Mont_SC_170814_Light.ufo
<glyph name="exclam" format="1">
  <advance width="157.143399003"/>
  <unicode hex="0021"/>
  <outline>
    <contour>
      <point x="87.6761856953" y="151.889902901" type="line"/>
      <point x="88.3881057242" y="415.408097933" type="line"/>
      <point x="88.3881057242" y="545.373440415" type="line"/>
      <point x="68.7552932791" y="545.373440415" type="line"/>
      <point x="68.7552932791" y="415.408097933" type="line"/>
      <point x="69.4672133079" y="151.889902901" type="line"/>
    </contour>
    <component base="period" xOffset="8.88120216713"/>
  </outline>
</glyph>
<glyph name="numbersign" format="1">
  <advance width="572.639334815"/>
  <unicode hex="0023"/>
  <outline>
    <contour>
      <point x="365.687422933" y="0.0" type="line"/>
      <point x="435.279222246" y="558.548950667" type="line"/>
      <point x="416.60750184" y="558.548950667" type="line"/>
      <point x="347.015702527" y="0.0" type="line"/>
    </contour>
    <contour>
      <point x="508.346485612" y="164.514103142" type="line"/>
      <point x="507.893445611" y="183.682113508" type="line"/>
      <point x="36.8046466853" y="183.682113508" type="line"/>
      <point x="37.2576866861" y="164.514103142" type="line"/>
    </contour>
    <contour>
      <point x="155.258428962" y="0.0" type="line"/>
      <point x="224.850228275" y="558.548950667" type="line"/>
      <point x="206.178507869" y="558.548950667" type="line"/>
      <point x="136.586708556" y="0.0" type="line"/>
    </contour>
    <contour>
      <point x="534.270082102" y="372.32601711" type="line"/>
      <point x="533.7992441" y="391.494027477" type="line"/>
      <point x="62.7104451743" y="391.494027477" type="line"/>
      <point x="63.1812831759" y="372.32601711" type="line"/>
    </contour>
  </outline>
</glyph>
<glyph name="dollar" format="1">
  <advance width="481.0006671"/>
  <unicode hex="0024"/>
  <outline>
    <contour>
      <point x="244.995946671" y="-78.3499414963" type="line"/>
      <point x="244.995946671" y="29.2354105583" type="line"/>
      <point x="226.21743826" y="29.2354105583" type="line"/>
      <point x="226.21743826" y="-78.3499414963" type="line"/>
    </contour>
    <contour>
      <point x="244.995946671" y="528.490570093" type="line"/>
      <point x="244.995946671" y="625.952591954" type="line"/>
      <point x="226.21743826" y="625.952591954" type="line"/>
      <point x="226.21743826" y="528.490570093" type="line"/>
    </contour>
    <component base="S"/>
  </outline>
</glyph>
<glyph name="percent" format="1">
  <advance width="695.011913128"/>
  <unicode hex="0025"/>
  <outline>
    <contour>
      <point x="138.678782658" y="0.0" type="line"/>
      <point x="573.013092831" y="558.548950667" type="line"/>
      <point x="549.789938345" y="558.548950667" type="line"/>
      <point x="115.455628173" y="0.0" type="line"/>
    </contour>
    <contour>
      <point x="293.035985531" y="412.164157871" type="curve" smooth="yes"/>
      <point x="293.035985531" y="507.197219686"/>
      <point x="253.039024769" y="561.744950728"/>
      <point x="183.935861458" y="561.744950728" type="curve" smooth="yes"/>
      <point x="114.814900147" y="561.744950728"/>
      <point x="75.5913433984" y="507.197219686"/>
      <point x="75.5913433984" y="412.164157871" type="curve" smooth="yes"/>
      <point x="75.5913433984" y="315.557066026"/>
      <point x="114.814900147" y="262.535425014"/>
      <point x="183.935861458" y="262.535425014" type="curve" smooth="yes"/>
      <point x="253.039024769" y="262.535425014"/>
      <point x="293.035985531" y="315.557066026"/>
    </contour>
    <contour>
      <point x="93.8359117872" y="412.164157871" type="curve" smooth="yes"/>
      <point x="93.8359117872" y="498.52007952"/>
      <point x="125.76876038" y="545.812890424"/>
      <point x="183.935861458" y="545.812890424" type="curve" smooth="yes"/>
      <point x="242.87636655" y="545.812890424"/>
      <point x="274.827013143" y="498.52007952"/>
      <point x="274.827013143" y="412.164157871" type="curve" smooth="yes"/>
      <point x="274.827013143" y="325.736326221"/>
      <point x="242.87636655" y="279.266485333"/>
      <point x="183.935861458" y="279.266485333" type="curve" smooth="yes"/>
      <point x="125.76876038" y="279.266485333"/>
      <point x="93.8359117872" y="325.736326221"/>
    </contour>
    <contour>
      <point x="620.193973744" y="146.408762796" type="curve" smooth="yes"/>
      <point x="620.193973744" y="241.441824611"/>
      <point x="580.197012981" y="295.989555653"/>
      <point x="511.093849671" y="295.989555653" type="curve" smooth="yes"/>
      <point x="441.972888359" y="295.989555653"/>
      <point x="402.749331611" y="241.441824611"/>
      <point x="402.749331611" y="146.408762796" type="curve" smooth="yes"/>
      <point x="402.749331611" y="49.8016709511"/>
      <point x="441.972888359" y="-3.21997006149"/>
      <point x="511.093849671" y="-3.21997006149" type="curve" smooth="yes"/>
      <point x="580.197012981" y="-3.21997006149"/>
      <point x="620.193973744" y="49.8016709511"/>
    </contour>
    <contour>
      <point x="420.9939" y="146.408762796" type="curve" smooth="yes"/>
      <point x="420.9939" y="232.764684445"/>
      <point x="452.926748593" y="280.057495348"/>
      <point x="511.093849671" y="280.057495348" type="curve" smooth="yes"/>
      <point x="570.034354762" y="280.057495348"/>
      <point x="601.985001356" y="232.764684445"/>
      <point x="601.985001356" y="146.408762796" type="curve" smooth="yes"/>
      <point x="601.985001356" y="59.9809311455"/>
      <point x="570.034354762" y="13.511090258"/>
      <point x="511.093849671" y="13.511090258" type="curve" smooth="yes"/>
      <point x="452.926748593" y="13.511090258"/>
      <point x="420.9939" y="59.9809311455"/>
    </contour>
  </outline>
</glyph>
<glyph name="ampersand" format="1">
  <advance width="507.85784961"/>
  <unicode hex="0026"/>
  <outline>
    <contour>
      <point x="468.964364892" y="233.387904457" type="curve"/>
      <point x="463.375792666" y="240.33920459"/>
      <point x="446.901316331" y="251.86877481"/>
      <point x="446.901316331" y="253.810344847" type="curve"/>
      <point x="382.022751139" y="111.971862138"/>
      <point x="296.066499566" y="29.5709905647"/>
      <point x="203.994207885" y="29.5709905647" type="curve" smooth="yes"/>
      <point x="130.083966538" y="29.5709905647"/>
      <point x="70.2729774458" y="81.841571563"/>
      <point x="70.2729774458" y="154.822232957" type="curve" smooth="yes"/>
      <point x="70.2729774458" y="305.210015829"/>
      <point x="351.445786478" y="306.808015859"/>
      <point x="351.445786478" y="447.336138543" type="curve" smooth="yes"/>
      <point x="351.445786478" y="502.515079597"/>
      <point x="309.834061756" y="541.506280341"/>
      <point x="246.007196642" y="541.506280341" type="curve" smooth="yes"/>
      <point x="177.575503446" y="541.506280341"/>
      <point x="130.132506627" y="496.818209488"/>
      <point x="131.200386671" y="442.062738442" type="curve" smooth="yes"/>
      <point x="131.200386671" y="339.758776488"/>
      <point x="275.854443273" y="218.949974181"/>
      <point x="488.687785183" y="8.91684017029" type="curve"/>
      <point x="488.189441163" y="5.80074011078"/>
      <point x="496.997833292" y="13.5510402588"/>
      <point x="495.396013227" y="13.5510402588" type="curve"/>
      <point x="281.726165283" y="224.359204285"/>
      <point x="139.495872656" y="344.384986577"/>
      <point x="139.495872656" y="440.768358418" type="curve" smooth="yes"/>
      <point x="139.495872656" y="493.973769434"/>
      <point x="187.320717665" y="534.395180206"/>
      <point x="250.616878828" y="539.285060299" type="curve" smooth="yes"/>
      <point x="308.37462589" y="541.634120344"/>
      <point x="343.132502492" y="509.961759739"/>
      <point x="340.836560399" y="460.359838792" type="curve" smooth="yes"/>
      <point x="338.469426303" y="323.179526172"/>
      <point x="49.785860966" y="326.974776244"/>
      <point x="49.785860966" y="154.582532952" type="curve" smooth="yes"/>
      <point x="49.785860966" y="70.2081313408"/>
      <point x="119.270872275" y="7.62246014557"/>
      <point x="208.230132057" y="-0.958800018311" type="curve" smooth="yes"/>
      <point x="307.921585889" y="-0.958800018311"/>
      <point x="401.712193657" y="90.0073517189"/>
    </contour>
  </outline>
</glyph>
<glyph name="quotesingle" format="1">
  <advance width="115.894106243"/>
  <unicode hex="0027"/>
  <outline>
    <contour>
      <point x="67.3541053275" y="404.054307716" type="line"/>
      <point x="67.3541053275" y="558.548950667" type="line"/>
      <point x="48.5400009155" y="558.548950667" type="line"/>
      <point x="48.5400009155" y="404.054307716" type="line"/>
    </contour>
  </outline>
</glyph>
<glyph name="parenleft" format="1">
  <advance width="224.957016279"/>
  <unicode hex="0028"/>
  <outline>
    <contour>
      <point x="193.504713706" y="-99.0760018921" type="line"/>
      <point x="134.447712592" y="-11.7213302238"/>
      <point x="101.909731974" y="110.525672111"/>
      <point x="101.909731974" y="246.891004715" type="curve" smooth="yes"/>
      <point x="101.909731974" y="383.256337319"/>
      <point x="134.447712592" y="505.503339654"/>
      <point x="193.504713706" y="592.858011322" type="curve"/>
      <point x="174.10327527" y="592.858011322" type="line"/>
      <point x="114.814900147" y="505.503339654"/>
      <point x="82.3303135313" y="383.256337319"/>
      <point x="82.3303135313" y="246.891004715" type="curve" smooth="yes"/>
      <point x="82.3303135313" y="110.525672111"/>
      <point x="114.814900147" y="-11.7213302238"/>
      <point x="174.10327527" y="-99.0760018921" type="curve"/>
    </contour>
  </outline>
</glyph>
<glyph name="asterisk" format="1">
  <advance width="243.004188625"/>
  <unicode hex="002A"/>
  <outline>
    <contour>
      <point x="129.601802483" y="362.793946928" type="line"/>
      <point x="129.548408481" y="455.5818187" type="line"/>
      <point x="210.812460004" y="408.728457806" type="line"/>
      <point x="218.912168174" y="424.205088101" type="line"/>
      <point x="137.594722649" y="470.187538979" type="line"/>
      <point x="218.912168174" y="516.122049857" type="line"/>
      <point x="210.812460004" y="531.574710152" type="line"/>
      <point x="129.566206482" y="484.769289258" type="line"/>
      <point x="129.601802483" y="577.55716103" type="line"/>
      <point x="113.402386142" y="577.55716103" type="line"/>
      <point x="113.437982143" y="484.769289258" type="line"/>
      <point x="32.1917286211" y="531.622650153" type="line"/>
      <point x="24.0920204505" y="516.122049857" type="line"/>
      <point x="104.600465961" y="470.187538979" type="line"/>
      <point x="24.0920204505" y="424.205088101" type="line"/>
      <point x="32.1917286211" y="408.776397807" type="line"/>
      <point x="113.455780144" y="455.605788701" type="line"/>
      <point x="113.402386142" y="362.793946928" type="line"/>
    </contour>
  </outline>
</glyph>
<glyph name="plus" format="1">
  <advance width="389.031927353"/>
  <unicode hex="002B"/>
  <outline>
    <contour>
      <point x="203.673843872" y="95.3766318214" type="line"/>
      <point x="203.673843872" y="416.414837952" type="line"/>
      <point x="185.358083481" y="416.414837952" type="line"/>
      <point x="185.358083481" y="95.3766318214" type="line"/>
    </contour>
    <contour>
      <point x="356.84990675" y="246.467534707" type="line"/>
      <point x="356.84990675" y="265.323935067" type="line"/>
      <point x="32.1820206031" y="265.323935067" type="line"/>
      <point x="32.1820206031" y="246.467534707" type="line"/>
    </contour>
  </outline>
</glyph>
<glyph name="comma" format="1">
  <advance width="140.021722695"/>
  <unicode hex="002C"/>
  <outline>
    <contour>
      <point x="61.7169932042" y="-112.339402145" type="line"/>
      <point x="89.0725197344" y="-8.01397015305" type="line"/>
      <point x="91.2778537887" y="2.3091100441"/>
      <point x="92.9314498207" y="8.30960015869"/>
      <point x="92.9314498207" y="17.6259403366" type="curve" smooth="yes"/>
      <point x="92.9314498207" y="28.8199305504"/>
      <point x="84.0583376364" y="40.8688507805"/>
      <point x="70.0108613475" y="40.8688507805" type="curve" smooth="yes"/>
      <point x="56.7545870732" y="40.8688507805"/>
      <point x="47.0902728743" y="30.36999058"/>
      <point x="47.0902728743" y="17.6259403366" type="curve" smooth="yes"/>
      <point x="47.0902728743" y="4.88189009323"/>
      <point x="57.5457890877" y="-5.5450601059"/>
      <point x="70.0108613475" y="-5.5450601059" type="curve"/>
      <point x="69.4235273237" y="6.00049011459" type="line"/>
      <point x="44.9836368415" y="-112.339402145" type="line"/>
    </contour>
  </outline>
</glyph>
<glyph name="hyphen" format="1">
  <advance width="289.222359464"/>
  <unicode hex="002D"/>
  <outline>
    <contour>
      <point x="232.94831841" y="230.487534402" type="line"/>
      <point x="232.94831841" y="249.343934762" type="line"/>
      <point x="56.2740410537" y="249.343934762" type="line"/>
      <point x="56.2740410537" y="230.487534402" type="line"/>
    </contour>
  </outline>
</glyph>
<glyph name="period" format="1">
  <advance width="140.021722695"/>
  <unicode hex="002E"/>
  <outline>
    <contour>
      <point x="92.9314498207" y="17.6259403366" type="curve" smooth="yes"/>
      <point x="92.9314498207" y="30.36999058"/>
      <point x="82.4759336073" y="40.8688507805"/>
      <point x="70.0108613475" y="40.8688507805" type="curve" smooth="yes"/>
      <point x="57.5457890877" y="40.8688507805"/>
      <point x="47.0902728743" y="30.36999058"/>
      <point x="47.0902728743" y="17.6259403366" type="curve" smooth="yes"/>
      <point x="47.0902728743" y="4.88189009323"/>
      <point x="57.5457890877" y="-5.66491010818"/>
      <point x="70.0108613475" y="-5.66491010818" type="curve" smooth="yes"/>
      <point x="82.4759336073" y="-5.66491010818"/>
      <point x="92.9314498207" y="4.88189009323"/>
    </contour>
  </outline>
</glyph>
<glyph name="slash" format="1">
  <advance width="239.252046543"/>
  <unicode hex="002F"/>
  <outline>
    <contour>
      <point x="22.236174463" y="-103.246781972" type="line"/>
      <point x="270.199533149" y="659.494612595" type="line"/>
      <point x="250.238266708" y="659.494612595" type="line"/>
      <point x="2.27490802208" y="-103.246781972" type="line"/>
    </contour>
  </outline>
</glyph>
<glyph name="zero" format="1">
  <advance width="563.277586629"/>
  <unicode hex="0030"/>
  <outline>
    <contour>
      <point x="508.079515601" y="279.650005341" type="curve" smooth="yes"/>
      <point x="508.079515601" y="449.517408585"/>
      <point x="415.533149849" y="562.008620733"/>
      <point x="281.638793314" y="562.008620733" type="curve" smooth="yes"/>
      <point x="147.74443678" y="562.008620733"/>
      <point x="55.1980710276" y="449.517408585"/>
      <point x="55.1980710276" y="279.650005341" type="curve" smooth="yes"/>
      <point x="55.1980710276" y="109.782602097"/>
      <point x="147.74443678" y="-2.70861005173"/>
      <point x="281.638793314" y="-2.70861005173" type="curve" smooth="yes"/>
      <point x="415.533149849" y="-2.70861005173"/>
      <point x="508.079515601" y="109.782602097"/>
    </contour>
    <contour>
      <point x="75.1690454865" y="279.650005341" type="curve" smooth="yes"/>
      <point x="75.1690454865" y="437.891958363"/>
      <point x="159.730581056" y="542.752720365"/>
      <point x="281.638793314" y="542.752720365" type="curve" smooth="yes"/>
      <point x="403.547005573" y="542.752720365"/>
      <point x="488.108541142" y="437.891958363"/>
      <point x="488.108541142" y="279.650005341" type="curve" smooth="yes"/>
      <point x="488.108541142" y="121.408052319"/>
      <point x="403.547005573" y="16.547290316"/>
      <point x="281.638793314" y="16.547290316" type="curve" smooth="yes"/>
      <point x="159.730581056" y="16.547290316"/>
      <point x="75.1690454865" y="121.408052319"/>
    </contour>
  </outline>
</glyph>
<glyph name="one" format="1">
  <advance width="279.524067299"/>
  <unicode hex="0031"/>
  <outline>
    <contour>
      <point x="173.279713324" y="0.0" type="line"/>
      <point x="173.279713324" y="559.300010681" type="line"/>
      <point x="9.49442417445" y="559.300010681" type="line"/>
      <point x="9.49442417445" y="540.307780318" type="line"/>
      <point x="162.964963081" y="540.307780318" type="line"/>
      <point x="154.046546878" y="548.809140481" type="line"/>
      <point x="154.046546878" y="0.0" type="line"/>
    </contour>
  </outline>
</glyph>
<glyph name="two" format="1">
  <advance width="455.07707061"/>
  <unicode hex="0032"/>
  <outline>
    <contour>
      <point x="411.116009792" y="0.0" type="line"/>
      <point x="411.116009792" y="19.112080365" type="line"/>
      <point x="41.3512268521" y="19.112080365" type="line"/>
      <point x="51.4151870496" y="11.7213302238" type="line"/>
      <point x="287.339007458" y="246.052054699" type="line" smooth="yes"/>
      <point x="362.736190883" y="320.383026118"/>
      <point x="382.978989266" y="365.222906975"/>
      <point x="382.978989266" y="420.329938027" type="curve" smooth="yes"/>
      <point x="382.978989266" y="494.84467945"/>
      <point x="325.530280164" y="562.008620733"/>
      <point x="197.530297746" y="562.008620733" type="curve" smooth="yes"/>
      <point x="119.696406257" y="562.008620733"/>
      <point x="60.0520711192" y="538.893550291"/>
      <point x="15.7350502871" y="492.247929401" type="curve"/>
      <point x="29.0463365988" y="478.489149138" type="line"/>
      <point x="71.3715993851" y="522.098569971"/>
      <point x="125.796266399" y="542.824630367"/>
      <point x="197.174337732" y="542.824630367" type="curve" smooth="yes"/>
      <point x="308.814721802" y="542.824630367"/>
      <point x="363.008014807" y="487.198249304"/>
      <point x="363.008014807" y="419.147418005" type="curve" smooth="yes"/>
      <point x="363.008014807" y="370.472337075"/>
      <point x="345.42359048" y="331.049676322"/>
      <point x="273.325509135" y="258.644294939" type="curve" smooth="yes"/>
      <point x="29.1240005493" y="15.1011002884" type="line"/>
      <point x="29.1240005493" y="0.0" type="line"/>
    </contour>
  </outline>
</glyph>
<glyph name="three" format="1">
  <advance width="455.07707061"/>
  <unicode hex="0033"/>
  <outline>
    <contour>
      <point x="408.235969746" y="146.352832795" type="curve" smooth="yes"/>
      <point x="408.235969746" y="232.956444449"/>
      <point x="344.866998545" y="294.719145628"/>
      <point x="210.430612006" y="294.719145628" type="curve" smooth="yes"/>
      <point x="187.191277555" y="294.719145628" type="line"/>
      <point x="189.602097635" y="287.759855495" type="line"/>
      <point x="387.779595355" y="544.198910393" type="line"/>
      <point x="387.779595355" y="559.300010681" type="line"/>
      <point x="4.29417208639" y="559.300010681" type="line"/>
      <point x="4.29417208639" y="540.307780318" type="line"/>
      <point x="368.876500939" y="540.307780318" type="line"/>
      <point x="367.675944908" y="547.626620458" type="line"/>
      <point x="169.640831194" y="291.187565561" type="line"/>
      <point x="169.640831194" y="276.086465273" type="line"/>
      <point x="210.047145973" y="276.086465273" type="line" smooth="yes"/>
      <point x="335.654106312" y="276.086465273"/>
      <point x="388.264995287" y="223.727994273"/>
      <point x="388.264995287" y="146.352832795" type="curve" smooth="yes"/>
      <point x="388.264995287" y="68.8338513145"/>
      <point x="335.476126304" y="16.4753803146"/>
      <point x="212.50974202" y="16.4753803146" type="curve" smooth="yes"/>
      <point x="121.840256326" y="16.4753803146"/>
      <point x="53.1286490314" y="48.7789509315"/>
      <point x="21.0971024168" y="90.0153417191" type="curve"/>
      <point x="8.66762615847" y="75.769171447" type="line"/>
      <point x="43.1439708195" y="29.7387805679"/>
      <point x="119.58152827" y="-2.70861005173"/>
      <point x="212.580934023" y="-2.70861005173" type="curve" smooth="yes"/>
      <point x="344.831402543" y="-2.70861005173"/>
      <point x="408.235969746" y="59.8451011429"/>
    </contour>
  </outline>
</glyph>
<glyph name="four" format="1">
  <advance width="520.71285985"/>
  <unicode hex="0034"/>
  <outline>
    <contour>
      <point x="484.735011181" y="164.082643134" type="line"/>
      <point x="484.735011181" y="183.194723499" type="line"/>
      <point x="31.3131546381" y="183.194723499" type="line"/>
      <point x="42.694166889" y="179.303593424" type="line"/>
      <point x="348.334372615" y="559.300010681" type="line"/>
      <point x="325.829610106" y="559.300010681" type="line"/>
      <point x="20.064818375" y="179.303593424" type="line"/>
      <point x="20.064818375" y="164.082643134" type="line"/>
    </contour>
    <contour>
      <point x="355.696272773" y="0.0" type="line"/>
      <point x="355.696272773" y="327.590006256" type="line"/>
      <point x="336.010066326" y="327.590006256" type="line"/>
      <point x="336.010066326" y="183.194723499" type="line"/>
      <point x="335.885480321" y="164.082643134" type="line"/>
      <point x="335.885480321" y="0.0" type="line"/>
    </contour>
  </outline>
</glyph>
<glyph name="five" format="1">
  <advance width="455.07707061"/>
  <unicode hex="0035"/>
  <outline>
    <contour>
      <point x="408.022393737" y="151.945832902" type="curve" smooth="yes"/>
      <point x="408.022393737" y="242.832084637"/>
      <point x="349.204856615" y="294.135875617"/>
      <point x="176.177551372" y="295.87769565" type="curve" smooth="yes"/>
      <point x="59.440467147" y="296.89242567" type="line"/>
      <point x="66.3768333229" y="286.673215475" type="line"/>
      <point x="95.3050558643" y="548.928990483" type="line"/>
      <point x="87.5062956709" y="540.307780318" type="line"/>
      <point x="376.257817133" y="540.307780318" type="line"/>
      <point x="376.257817133" y="559.300010681" type="line"/>
      <point x="77.4148294547" y="559.300010681" type="line"/>
      <point x="46.6550308742" y="277.828285306" type="line"/>
      <point x="173.944711299" y="276.861495287" type="line" smooth="yes"/>
      <point x="336.124944313" y="276.014555271"/>
      <point x="388.051419278" y="232.301264436"/>
      <point x="388.051419278" y="151.706132897" type="curve" smooth="yes"/>
      <point x="388.051419278" y="74.1871514168"/>
      <point x="335.3693383" y="16.4034703133"/>
      <point x="212.296166012" y="16.4034703133" type="curve" smooth="yes"/>
      <point x="121.733468322" y="16.4034703133"/>
      <point x="54.675457059" y="48.6591009293"/>
      <point x="19.4791023863" y="84.3504316109" type="curve"/>
      <point x="7.04962612795" y="70.1042613388" type="line"/>
      <point x="44.6907788472" y="29.6429005661"/>
      <point x="119.545932268" y="-2.70861005173"/>
      <point x="212.456348018" y="-2.70861005173" type="curve" smooth="yes"/>
      <point x="344.875088528" y="-2.70861005173"/>
      <point x="408.022393737" y="63.8480912193"/>
    </contour>
  </outline>
</glyph>
<glyph name="six" format="1">
  <advance width="518.667707802"/>
  <unicode hex="0036"/>
  <outline>
    <contour>
      <point x="469.78145489" y="171.465403275" type="curve" smooth="yes"/>
      <point x="469.78145489" y="275.575105263"/>
      <point x="394.241887459" y="344.361016576"/>
      <point x="275.585855227" y="344.361016576" type="curve" smooth="yes"/>
      <point x="170.931995264" y="344.361016576"/>
      <point x="87.5613077082" y="281.423785374"/>
      <point x="82.9111756074" y="170.490623256" type="curve"/>
      <point x="90.2018837627" y="170.139063249" type="line"/>
      <point x="77.5426515301" y="210.144994013"/>
      <point x="75.1690454865" y="254.777134866"/>
      <point x="75.1690454865" y="281.607555378" type="curve" smooth="yes"/>
      <point x="75.1690454865" y="451.770588628"/>
      <point x="166.487349189" y="543.01639037"/>
      <point x="297.197481629" y="543.01639037" type="curve" smooth="yes"/>
      <point x="355.036128711" y="543.01639037"/>
      <point x="404.838169643" y="527.27609007"/>
      <point x="441.171978327" y="487.757549315" type="curve"/>
      <point x="453.690444589" y="501.787989583" type="line"/>
      <point x="415.578453868" y="543.703530383"/>
      <point x="358.770472793" y="562.008620733"/>
      <point x="297.090693625" y="562.008620733" type="curve" smooth="yes"/>
      <point x="156.101406944" y="562.008620733"/>
      <point x="55.1980710276" y="464.027248862"/>
      <point x="55.1980710276" y="279.122665331" type="curve" smooth="yes"/>
      <point x="55.1980710276" y="108.91169208"/>
      <point x="131.795810484" y="-2.70861005173"/>
      <point x="281.007773306" y="-2.70861005173" type="curve" smooth="yes"/>
      <point x="392.41031142" y="-2.70861005173"/>
      <point x="469.78145489" y="67.0440912804"/>
    </contour>
    <contour>
      <point x="99.892085945" y="171.20173327" type="curve" smooth="yes"/>
      <point x="99.892085945" y="256.806594904"/>
      <point x="171.705399278" y="325.728336221"/>
      <point x="274.535773184" y="325.728336221" type="curve" smooth="yes"/>
      <point x="384.486965221" y="325.728336221"/>
      <point x="449.970662438" y="263.006835023"/>
      <point x="449.970662438" y="171.20173327" type="curve" smooth="yes"/>
      <point x="449.970662438" y="79.3966315163"/>
      <point x="382.113359178" y="15.9240703041"/>
      <point x="280.865389301" y="15.9240703041" type="curve" smooth="yes"/>
      <point x="163.002177118" y="15.9240703041"/>
      <point x="99.892085945" y="95.6722618271"/>
    </contour>
  </outline>
</glyph>
<glyph name="seven" format="1">
  <advance width="495.260101362"/>
  <unicode hex="0037"/>
  <outline>
    <contour>
      <point x="175.342663373" y="0.0" type="line"/>
      <point x="454.446050602" y="544.198910393" type="line"/>
      <point x="454.446050602" y="559.300010681" type="line"/>
      <point x="44.0500508212" y="559.300010681" type="line"/>
      <point x="44.0500508212" y="428.463758183" type="line"/>
      <point x="63.3447012526" y="428.463758183" type="line"/>
      <point x="63.3447012526" y="548.952960484" type="line"/>
      <point x="54.5864670554" y="540.187930316" type="line"/>
      <point x="444.406360353" y="540.187930316" type="line"/>
      <point x="433.790662133" y="547.986170465" type="line"/>
      <point x="152.606526854" y="0.0" type="line"/>
    </contour>
  </outline>
</glyph>
<glyph name="eight" format="1">
  <advance width="563.277586629"/>
  <unicode hex="0038"/>
  <outline>
    <contour>
      <point x="516.782737761" y="149.916372863" type="curve" smooth="yes"/>
      <point x="516.782737761" y="241.529714613"/>
      <point x="431.285998137" y="298.426505699"/>
      <point x="280.8475913" y="298.426505699" type="curve" smooth="yes"/>
      <point x="130.409184463" y="298.426505699"/>
      <point x="46.4948488677" y="241.529714613"/>
      <point x="46.4948488677" y="149.916372863" type="curve" smooth="yes"/>
      <point x="46.4948488677" y="56.7529710838"/>
      <point x="130.32019446" y="-2.70861005173"/>
      <point x="280.8475913" y="-2.70861005173" type="curve" smooth="yes"/>
      <point x="431.37498814" y="-2.70861005173"/>
      <point x="516.782737761" y="56.7529710838"/>
    </contour>
    <contour>
      <point x="66.4658233265" y="149.333102852" type="curve" smooth="yes"/>
      <point x="66.4658233265" y="230.239844397"/>
      <point x="142.270742734" y="282.838015401"/>
      <point x="280.8475913" y="282.838015401" type="curve" smooth="yes"/>
      <point x="419.424439866" y="282.838015401"/>
      <point x="496.811763302" y="230.239844397"/>
      <point x="496.811763302" y="149.333102852" type="curve" smooth="yes"/>
      <point x="496.811763302" y="68.4263613068"/>
      <point x="419.424439866" y="15.8281903023"/>
      <point x="280.8475913" y="15.8281903023" type="curve" smooth="yes"/>
      <point x="142.270742734" y="15.8281903023"/>
      <point x="66.4658233265" y="68.4263613068"/>
    </contour>
    <contour>
      <point x="496.55773738" y="422.143668062" type="curve" smooth="yes"/>
      <point x="496.55773738" y="507.341039689"/>
      <point x="414.492775824" y="562.008620733"/>
      <point x="280.8475913" y="562.008620733" type="curve" smooth="yes"/>
      <point x="147.202406776" y="562.008620733"/>
      <point x="66.7198492492" y="507.341039689"/>
      <point x="66.7198492492" y="422.143668062" type="curve" smooth="yes"/>
      <point x="66.7198492492" y="338.496356464"/>
      <point x="140.170578648" y="285.618535455"/>
      <point x="280.8475913" y="285.618535455" type="curve" smooth="yes"/>
      <point x="421.524603951" y="285.618535455"/>
      <point x="496.55773738" y="338.496356464"/>
    </contour>
    <contour>
      <point x="86.6552277066" y="422.678998072" type="curve" smooth="yes"/>
      <point x="86.6552277066" y="495.643679465"/>
      <point x="158.361753035" y="543.471820379"/>
      <point x="280.8475913" y="543.471820379" type="curve" smooth="yes"/>
      <point x="403.333429565" y="543.471820379"/>
      <point x="476.622358922" y="495.643679465"/>
      <point x="476.622358922" y="421.903968057" type="curve" smooth="yes"/>
      <point x="476.622358922" y="348.939286664"/>
      <point x="407.289439637" y="301.11114575"/>
      <point x="280.8475913" y="301.11114575" type="curve" smooth="yes"/>
      <point x="154.405742962" y="301.11114575"/>
      <point x="86.6552277066" y="348.939286664"/>
    </contour>
  </outline>
</glyph>
<glyph name="less" format="1">
  <advance width="389.031927353"/>
  <unicode hex="003C"/>
  <outline>
    <contour>
      <point x="356.84990675" y="121.943382329" type="line"/>
      <point x="49.7777709832" y="261.952155003" type="line"/>
      <point x="356.84990675" y="401.960927676" type="line"/>
      <point x="356.84990675" y="422.750908073" type="line"/>
      <point x="32.1820206031" y="274.160875236" type="line"/>
      <point x="32.1820206031" y="249.743434769" type="line"/>
      <point x="356.84990675" y="101.153401932" type="line"/>
    </contour>
  </outline>
</glyph>
<glyph name="equal" format="1">
  <advance width="389.031927353"/>
  <unicode hex="003D"/>
  <outline>
    <contour>
      <point x="356.84990675" y="326.607236237" type="line"/>
      <point x="356.84990675" y="345.463636597" type="line"/>
      <point x="32.1820206031" y="345.463636597" type="line"/>
      <point x="32.1820206031" y="326.607236237" type="line"/>
    </contour>
    <contour>
      <point x="356.84990675" y="166.327833176" type="line"/>
      <point x="356.84990675" y="185.184233537" type="line"/>
      <point x="32.1820206031" y="185.184233537" type="line"/>
      <point x="32.1820206031" y="166.327833176" type="line"/>
    </contour>
  </outline>
</glyph>
<glyph name="question" format="1">
  <advance width="321.388200102"/>
  <unicode hex="003F"/>
  <outline>
    <contour>
      <point x="156.183924999" y="165.648683163" type="line"/>
      <point x="156.183924999" y="296.045485654"/>
      <point x="302.399351753" y="285.115165445"/>
      <point x="302.399351753" y="421.895978057" type="curve" smooth="yes"/>
      <point x="302.399351753" y="504.480619634"/>
      <point x="240.755168586" y="543.288050375"/>
      <point x="161.427863072" y="543.288050375" type="curve" smooth="yes"/>
      <point x="81.1135775345" y="543.288050375"/>
      <point x="24.9010204658" y="502.259399592"/>
      <point x="19.362606364" y="426.322438142" type="curve"/>
      <point x="38.2479027789" y="424.772378112" type="line"/>
      <point x="42.9951148661" y="490.394249365"/>
      <point x="89.1873977215" y="523.544759998"/>
      <point x="160.262903042" y="523.544759998" type="curve" smooth="yes"/>
      <point x="231.213822358" y="523.544759998"/>
      <point x="282.83773131" y="490.681889371"/>
      <point x="282.83773131" y="421.784118055" type="curve" smooth="yes"/>
      <point x="282.83773131" y="292.833505592"/>
      <point x="137.387618588" y="304.075435807"/>
      <point x="137.387618588" y="165.648683163" type="curve"/>
    </contour>
    <component base="period" xOffset="75.5217694306"/>
  </outline>
</glyph>
<glyph name="at" format="1">
  <advance width="826.08447753"/>
  <unicode hex="0040"/>
  <outline>
    <contour>
      <point x="557.960838518" y="-103.957891985" type="curve"/>
      <point x="550.723524365" y="-87.9459316795" type="line"/>
      <point x="512.540341642" y="-108.37636207"/>
      <point x="451.127532485" y="-123.55736236"/>
      <point x="405.82353163" y="-123.55736236" type="curve" smooth="yes"/>
      <point x="208.917781945" y="-123.55736236"/>
      <point x="64.9432852473" y="16.858900322"/>
      <point x="64.9432852473" y="209.481824001" type="curve" smooth="yes"/>
      <point x="64.9432852473" y="410.701987843"/>
      <point x="213.051772025" y="557.65407065"/>
      <point x="416.322733828" y="557.65407065" type="curve" smooth="yes"/>
      <point x="616.011443574" y="557.65407065"/>
      <point x="761.158990284" y="410.046807831"/>
      <point x="761.158990284" y="207.276583958" type="curve" smooth="yes"/>
      <point x="761.158990284" y="85.0136016235"/>
      <point x="720.149161516" y="6.02446011505"/>
      <point x="657.812474357" y="6.02446011505" type="curve" smooth="yes"/>
      <point x="625.844029762" y="6.02446011505"/>
      <point x="597.938383245" y="34.1652406525"/>
      <point x="597.938383245" y="78.3819014969" type="curve" smooth="yes"/>
      <point x="597.938383245" y="418.660027995" type="line"/>
      <point x="579.711612857" y="418.660027995" type="line"/>
      <point x="579.711612857" y="299.872695727" type="line"/>
      <point x="550.437138319" y="371.950487103"/>
      <point x="480.837249023" y="420.49772803"/>
      <point x="393.314773386" y="420.49772803" type="curve" smooth="yes"/>
      <point x="275.699115179" y="420.49772803"/>
      <point x="189.72344757" y="332.679636353"/>
      <point x="189.72344757" y="212.653854061" type="curve" smooth="yes"/>
      <point x="189.72344757" y="93.0914917778"/>
      <point x="276.2152572" y="5.68089010849"/>
      <point x="393.581743397" y="5.68089010849" type="curve" smooth="yes"/>
      <point x="480.641471015" y="5.68089010849"/>
      <point x="550.348148315" y="53.4131510201"/>
      <point x="580.28114888" y="126.73738242" type="curve"/>
      <point x="580.316744881" y="76.9676714699" type="line"/>
      <point x="580.583714892" y="23.0191904396"/>
      <point x="614.579513534" y="-11.6094702217"/>
      <point x="655.998696318" y="-11.6094702217" type="curve" smooth="yes"/>
      <point x="730.764859736" y="-11.6094702217"/>
      <point x="778.887416652" y="74.3948914207"/>
      <point x="778.887416652" y="207.34849396" type="curve" smooth="yes"/>
      <point x="778.887416652" y="420.106218023"/>
      <point x="626.199989777" y="575.527700991"/>
      <point x="416.322733828" y="575.527700991" type="curve" smooth="yes"/>
      <point x="203.262871821" y="575.527700991"/>
      <point x="47.1970608786" y="421.416578048"/>
      <point x="47.1970608786" y="209.481824001" type="curve" smooth="yes"/>
      <point x="47.1970608786" y="6.1682801178"/>
      <point x="198.319881726" y="-141.430992701"/>
      <point x="405.82353163" y="-141.430992701" type="curve" smooth="yes"/>
      <point x="452.310290515" y="-141.430992701"/>
      <point x="516.577251735" y="-126.010292406"/>
    </contour>
    <contour>
      <point x="208.181591967" y="212.773704063" type="curve" smooth="yes"/>
      <point x="208.181591967" y="321.821226146"/>
      <point x="286.217733412" y="402.024847678"/>
      <point x="393.813117407" y="402.024847678" type="curve" smooth="yes"/>
      <point x="501.515289405" y="402.024847678"/>
      <point x="579.55143085" y="321.845196146"/>
      <point x="579.55143085" y="212.749734063" type="curve" smooth="yes"/>
      <point x="579.55143085" y="103.582361978"/>
      <point x="501.533087406" y="24.0818604599"/>
      <point x="393.830915407" y="24.0818604599" type="curve" smooth="yes"/>
      <point x="286.199935412" y="24.0818604599"/>
      <point x="208.181591967" y="103.630301979"/>
    </contour>
  </outline>
</glyph>
<glyph name="B" format="1">
  <advance width="605.576961432"/>
  <unicode hex="0042"/>
  <outline>
    <contour>
      <point x="305.081995756" y="559.300010681" type="move" name="top"/>
    </contour>
    <contour>
      <point x="305.081995756" y="0.0" type="move" name="bottom"/>
    </contour>
    <contour>
      <point x="348.243764576" y="0.0" type="line"/>
      <point x="486.183121187" y="0.0"/>
      <point x="553.686082468" y="52.0788209946"/>
      <point x="553.686082468" y="146.456702797" type="curve" smooth="yes"/>
      <point x="553.686082468" y="240.834584599"/>
      <point x="487.765525216" y="290.61228555"/>
      <point x="357.480926758" y="290.61228555" type="curve"/>
      <point x="343.674532496" y="279.242515333" type="line"/>
      <point x="449.431868504" y="279.242515333"/>
      <point x="523.033071892" y="324.513856197"/>
      <point x="523.033071892" y="417.733187978" type="curve" smooth="yes"/>
      <point x="523.033071892" y="510.952519758"/>
      <point x="449.431868504" y="559.300010681"/>
      <point x="332.063764271" y="559.300010681" type="curve" smooth="yes"/>
      <point x="106.244353975" y="559.300010681" type="line"/>
      <point x="106.244353975" y="0.0" type="line"/>
    </contour>
    <contour>
      <point x="126.197530433" y="274.752135247" type="line"/>
      <point x="351.05261262" y="274.752135247" type="line" smooth="yes"/>
      <point x="469.867208824" y="274.752135247"/>
      <point x="533.626118005" y="235.545204498"/>
      <point x="533.626118005" y="147.103892809" type="curve" smooth="yes"/>
      <point x="533.626118005" y="58.6625811203"/>
      <point x="469.867208824" y="18.6806203568"/>
      <point x="351.05261262" y="18.6806203568" type="curve" smooth="yes"/>
      <point x="126.197530433" y="18.6806203568" type="line"/>
    </contour>
    <contour>
      <point x="126.197530433" y="540.619390324" type="line"/>
      <point x="334.659036306" y="540.619390324" type="line" smooth="yes"/>
      <point x="440.832198278" y="540.619390324"/>
      <point x="502.973107429" y="498.336309517"/>
      <point x="502.973107429" y="416.918207962" type="curve" smooth="yes"/>
      <point x="502.973107429" y="335.500106407"/>
      <point x="440.832198278" y="293.2170256"/>
      <point x="334.659036306" y="293.2170256" type="curve" smooth="yes"/>
      <point x="126.197530433" y="293.2170256" type="line"/>
    </contour>
  </outline>
</glyph>
<glyph name="D" format="1">
  <advance width="668.234012604"/>
  <unicode hex="0044"/>
  <outline>
    <contour>
      <point x="315.749469943" y="558.524980666" type="move" name="top"/>
    </contour>
    <contour>
      <point x="161.906791056" y="284.420035432" type="move" name="center"/>
    </contour>
    <contour>
      <point x="319.741076017" y="0.0" type="move" name="bottom"/>
    </contour>
    <contour>
      <point x="322.053198076" y="0.0" type="line"/>
      <point x="501.073575457" y="0.0"/>
      <point x="621.036951725" y="117.892452251"/>
      <point x="621.036951725" y="279.650005341" type="curve" smooth="yes"/>
      <point x="621.036951725" y="441.40755843"/>
      <point x="501.073575457" y="559.300010681"/>
      <point x="322.053198076" y="559.300010681" type="curve" smooth="yes"/>
      <point x="106.244353975" y="559.300010681" type="line"/>
      <point x="106.244353975" y="0.0" type="line"/>
    </contour>
    <contour>
      <point x="126.268722436" y="540.163960316" type="line"/>
      <point x="320.29281404" y="540.163960316" type="line" smooth="yes"/>
      <point x="491.372047222" y="540.163960316"/>
      <point x="600.976987263" y="430.245528217"/>
      <point x="600.976987263" y="279.650005341" type="curve" smooth="yes"/>
      <point x="600.976987263" y="129.054482465"/>
      <point x="491.372047222" y="19.1360503654"/>
      <point x="320.29281404" y="19.1360503654" type="curve" smooth="yes"/>
      <point x="126.268722436" y="19.1360503654" type="line"/>
    </contour>
  </outline>
</glyph>
<glyph name="G" format="1">
  <advance width="626.077021807"/>
  <unicode hex="0047"/>
  <outline>
    <contour>
      <point x="325.60956215" y="558.548950667" type="move" name="top"/>
    </contour>
    <contour>
      <point x="325.36039014" y="0.0" type="move" name="bottom"/>
    </contour>
    <contour>
      <point x="536.679284147" y="69.1774213211" type="curve"/>
      <point x="524.835523877" y="84.6860116173" type="line"/>
      <point x="475.557714949" y="35.5794706795"/>
      <point x="411.389451751" y="16.5952303169"/>
      <point x="340.820380433" y="16.5952303169" type="curve" smooth="yes"/>
      <point x="183.947187511" y="16.5952303169"/>
      <point x="67.2570253411" y="130.652482495"/>
      <point x="67.2570253411" y="279.650005341" type="curve" smooth="yes"/>
      <point x="67.2570253411" y="428.719438187"/>
      <point x="183.947187511" y="542.704780364"/>
      <point x="340.873774435" y="542.704780364" type="curve" smooth="yes"/>
      <point x="411.60302776" y="542.704780364"/>
      <point x="473.433280916" y="524.255870012"/>
      <point x="524.853321878" y="475.756569086" type="curve"/>
      <point x="537.035244161" y="489.794999354" type="line"/>
      <point x="488.299465238" y="538.382190282"/>
      <point x="418.280513907" y="562.008620733"/>
      <point x="340.660198427" y="562.008620733" type="curve" smooth="yes"/>
      <point x="171.978841236" y="562.008620733"/>
      <point x="47.1970608786" y="441.359618429"/>
      <point x="47.1970608786" y="279.650005341" type="curve" smooth="yes"/>
      <point x="47.1970608786" y="117.940392252"/>
      <point x="171.978841236" y="-2.70861005173"/>
      <point x="340.571208423" y="-2.70861005173" type="curve" smooth="yes"/>
      <point x="417.568593879" y="-2.70861005173"/>
      <point x="487.694333213" y="21.2853604065"/>
    </contour>
    <contour>
      <point x="536.679284147" y="76.2725414566" type="line"/>
      <point x="533.030693999" y="274.680225246" type="line"/>
      <point x="517.997855723" y="268.304205124" type="line"/>
      <point x="521.646445871" y="69.1774213211" type="line"/>
    </contour>
  </outline>
</glyph>
<glyph name="H" format="1">
  <advance width="659.930436443"/>
  <unicode hex="0048"/>
  <outline>
    <contour>
      <point x="329.965218221" y="559.300010681" type="move" name="top"/>
    </contour>
    <contour>
      <point x="329.965218221" y="430.772868227" type="move" name="center"/>
    </contour>
    <contour>
      <point x="329.965218221" y="0.0" type="move" name="bottom"/>
    </contour>
    <contour>
      <point x="126.268722436" y="0.0" type="line"/>
      <point x="126.268722436" y="274.344645239" type="line"/>
      <point x="533.661714007" y="274.344645239" type="line"/>
      <point x="533.661714007" y="0.0" type="line"/>
      <point x="553.686082468" y="0.0" type="line"/>
      <point x="553.686082468" y="559.300010681" type="line"/>
      <point x="533.661714007" y="559.300010681" type="line"/>
      <point x="533.661714007" y="293.720395609" type="line"/>
      <point x="126.268722436" y="293.720395609" type="line"/>
      <point x="126.268722436" y="559.300010681" type="line"/>
      <point x="106.244353975" y="559.300010681" type="line"/>
      <point x="106.244353975" y="0.0" type="line"/>
    </contour>
  </outline>
</glyph>
<glyph name="J" format="1">
  <advance width="387.619413348"/>
  <unicode hex="004A"/>
  <outline>
    <contour>
      <point x="170.487045246" y="559.300010681" type="move" name="top"/>
    </contour>
    <contour>
      <point x="286.229059465" y="156.827722995" type="curve" smooth="yes"/>
      <point x="286.229059465" y="559.300010681" type="line"/>
      <point x="54.7272330261" y="559.300010681" type="line"/>
      <point x="54.7272330261" y="540.307780318" type="line"/>
      <point x="266.258085007" y="540.307780318" type="line"/>
      <point x="266.258085007" y="158.13808302" type="line" smooth="yes"/>
      <point x="266.258085007" y="62.2181311882"/>
      <point x="227.008640275" y="16.5952303169"/>
      <point x="145.433932757" y="16.5952303169" type="curve" smooth="yes"/>
      <point x="92.520477769" y="16.5952303169"/>
      <point x="46.7990329151" y="42.6266508141"/>
      <point x="16.074830336" y="89.4081017075" type="curve"/>
      <point x="2.73765604083" y="76.5122414612" type="line"/>
      <point x="33.0444146206" y="26.8304205124"/>
      <point x="86.8833656457" y="-2.70861005173"/>
      <point x="144.998690756" y="-2.70861005173" type="curve" smooth="yes"/>
      <point x="238.541744549" y="-2.70861005173"/>
      <point x="286.229059465" y="50.6965509682"/>
    </contour>
  </outline>
</glyph>
<glyph name="K" format="1">
  <advance width="561.918466626"/>
  <unicode hex="004B"/>
  <outline>
    <contour>
      <point x="299.579177656" y="559.300010681" type="move" name="top"/>
    </contour>
    <contour>
      <point x="299.579177656" y="0.0" type="move" name="bottom"/>
    </contour>
    <contour>
      <point x="265.72576302" y="289.413785527" type="line"/>
      <point x="277.551725289" y="301.151095751" type="line"/>
      <point x="531.257366067" y="559.300010681" type="line"/>
      <point x="505.320825489" y="559.300010681" type="line"/>
      <point x="122.42759035" y="171.785003281" type="line"/>
      <point x="122.658964359" y="144.650962762" type="line"/>
    </contour>
    <contour>
      <point x="126.197530433" y="0.0" type="line"/>
      <point x="126.197530433" y="559.300010681" type="line"/>
      <point x="106.244353975" y="559.300010681" type="line"/>
      <point x="106.244353975" y="0.0" type="line"/>
    </contour>
    <contour>
      <point x="549.704184412" y="0.0" type="line"/>
      <point x="270.937341161" y="312.664685971" type="line"/>
      <point x="256.346216833" y="298.706155704" type="line"/>
      <point x="523.482875822" y="0.0" type="line"/>
    </contour>
  </outline>
</glyph>
<glyph name="N" format="1">
  <advance width="659.930436443"/>
  <unicode hex="004E"/>
  <outline>
    <contour>
      <point x="329.965218221" y="559.300010681" type="move" name="top"/>
    </contour>
    <contour>
      <point x="329.965218221" y="0.0" type="move" name="bottom"/>
    </contour>
    <contour>
      <point x="126.161934431" y="0.0" type="line"/>
      <point x="126.161934431" y="534.906540215" type="line"/>
      <point x="115.856892206" y="534.906540215" type="line"/>
      <point x="536.782836081" y="0.0" type="line"/>
      <point x="553.686082468" y="0.0" type="line"/>
      <point x="553.686082468" y="559.300010681" type="line"/>
      <point x="533.768502011" y="559.300010681" type="line"/>
      <point x="533.768502011" y="24.3934704659" type="line"/>
      <point x="544.073544236" y="24.3934704659" type="line"/>
      <point x="123.147600362" y="559.300010681" type="line"/>
      <point x="106.244353975" y="559.300010681" type="line"/>
      <point x="106.244353975" y="0.0" type="line"/>
    </contour>
  </outline>
</glyph>
<glyph name="O" format="1">
  <advance width="676.537588765"/>
  <unicode hex="004F"/>
  <outline>
    <contour>
      <point x="47.2860508822" y="559.300010681" type="move" name="topleft"/>
    </contour>
    <contour>
      <point x="338.268794383" y="279.650005341" type="move" name="center"/>
    </contour>
    <contour>
      <point x="338.268794383" y="0.0" type="move" name="bottom"/>
    </contour>
    <contour>
      <point x="338.268794383" y="559.300010681" type="move" name="top"/>
    </contour>
    <contour>
      <point x="538.232564122" y="559.300010681" type="move" name="topright"/>
    </contour>
    <contour>
      <point x="380.809251213" y="0.0" type="move" name="ogonek"/>
    </contour>
    <contour>
      <point x="629.340527886" y="279.650005341" type="curve" smooth="yes"/>
      <point x="629.340527886" y="441.287708427"/>
      <point x="504.523151527" y="562.008620733"/>
      <point x="338.268794383" y="562.008620733" type="curve" smooth="yes"/>
      <point x="172.014437238" y="562.008620733"/>
      <point x="47.1970608786" y="441.287708427"/>
      <point x="47.1970608786" y="279.650005341" type="curve" smooth="yes"/>
      <point x="47.1970608786" y="118.012302254"/>
      <point x="172.014437238" y="-2.70861005173"/>
      <point x="338.268794383" y="-2.70861005173" type="curve" smooth="yes"/>
      <point x="504.523151527" y="-2.70861005173"/>
      <point x="629.340527886" y="118.012302254"/>
    </contour>
    <contour>
      <point x="67.2570253411" y="279.650005341" type="curve" smooth="yes"/>
      <point x="67.2570253411" y="430.293468217"/>
      <point x="184.018379514" y="542.704780364"/>
      <point x="338.268794383" y="542.704780364" type="curve" smooth="yes"/>
      <point x="492.519209251" y="542.704780364"/>
      <point x="609.280563424" y="430.293468217"/>
      <point x="609.280563424" y="279.650005341" type="curve" smooth="yes"/>
      <point x="609.280563424" y="129.006542464"/>
      <point x="492.519209251" y="16.5952303169"/>
      <point x="338.268794383" y="16.5952303169" type="curve" smooth="yes"/>
      <point x="184.018379514" y="16.5952303169"/>
      <point x="67.2570253411" y="129.006542464"/>
    </contour>
  </outline>
</glyph>
<glyph name="Q" format="1">
  <advance width="676.537588765"/>
  <unicode hex="0051"/>
  <outline>
    <contour>
      <point x="338.286592383" y="559.300010681" type="move" name="top"/>
    </contour>
    <contour>
      <point x="629.340527886" y="279.650005341" type="curve" smooth="yes"/>
      <point x="629.340527886" y="441.287708427"/>
      <point x="504.523151527" y="562.008620733"/>
      <point x="338.268794383" y="562.008620733" type="curve" smooth="yes"/>
      <point x="172.014437238" y="562.008620733"/>
      <point x="47.1970608786" y="441.287708427"/>
      <point x="47.1970608786" y="279.650005341" type="curve" smooth="yes"/>
      <point x="47.1970608786" y="118.012302254"/>
      <point x="172.014437238" y="-2.70861005173"/>
      <point x="338.268794383" y="-2.70861005173" type="curve" smooth="yes"/>
      <point x="504.523151527" y="-2.70861005173"/>
      <point x="629.340527886" y="118.012302254"/>
    </contour>
    <contour>
      <point x="653.75291235" y="-39.3108007507" type="curve"/>
      <point x="640.860688073" y="-25.5839804886" type="line"/>
      <point x="608.69646547" y="-63.4805512123"/>
      <point x="570.904838763" y="-81.6897615601"/>
      <point x="524.409989895" y="-81.6897615601" type="curve" smooth="yes"/>
      <point x="473.816746949" y="-81.6897615601"/>
      <point x="421.188059973" y="-51.7831909889"/>
      <point x="366.54981695" y="8.11784015503" type="curve"/>
      <point x="341.635852396" y="2.80449005356" type="line"/>
      <point x="410.588541718" y="-69.065561319"/>
      <point x="465.796320764" y="-100.346411916"/>
      <point x="524.320999891" y="-100.346411916" type="curve" smooth="yes"/>
      <point x="575.661758868" y="-100.346411916"/>
      <point x="620.441527719" y="-79.4525615173"/>
    </contour>
    <contour>
      <point x="67.2570253411" y="279.650005341" type="curve" smooth="yes"/>
      <point x="67.2570253411" y="428.743408188"/>
      <point x="184.018379514" y="542.704780364"/>
      <point x="338.268794383" y="542.704780364" type="curve" smooth="yes"/>
      <point x="492.519209251" y="542.704780364"/>
      <point x="609.280563424" y="428.743408188"/>
      <point x="609.280563424" y="279.650005341" type="curve" smooth="yes"/>
      <point x="609.280563424" y="130.556602493"/>
      <point x="492.519209251" y="16.5952303169"/>
      <point x="338.268794383" y="16.5952303169" type="curve" smooth="yes"/>
      <point x="184.018379514" y="16.5952303169"/>
      <point x="67.2570253411" y="130.556602493"/>
    </contour>
  </outline>
</glyph>
<glyph name="T" format="1">
  <advance width="445.218596438"/>
  <unicode hex="0054"/>
  <outline>
    <contour>
      <point x="222.609298219" y="559.300010681" type="move" name="top"/>
    </contour>
    <contour>
      <point x="222.609298219" y="283.461235413" type="move" name="center"/>
    </contour>
    <contour>
      <point x="222.609298219" y="0.0" type="move" name="bottom"/>
    </contour>
    <contour>
      <point x="232.62148245" y="0.0" type="line"/>
      <point x="232.62148245" y="540.187930316" type="line"/>
      <point x="441.982596377" y="540.187930316" type="line"/>
      <point x="441.982596377" y="559.300010681" type="line"/>
      <point x="3.23600006104" y="559.300010681" type="line"/>
      <point x="3.23600006104" y="540.187930316" type="line"/>
      <point x="212.597113989" y="540.187930316" type="line"/>
      <point x="212.597113989" y="0.0" type="line"/>
    </contour>
  </outline>
</glyph>
<glyph name="U" format="1">
  <advance width="642.168032108"/>
  <unicode hex="0055"/>
  <outline>
    <contour>
      <point x="321.119612056" y="559.300010681" type="move" name="top"/>
    </contour>
    <contour>
      <point x="472.305534923" y="0.0" type="move" name="ogonek"/>
    </contour>
    <contour>
      <point x="543.078474231" y="559.300010681" type="move" name="topright"/>
    </contour>
    <contour>
      <point x="321.119612056" y="0.0" type="move" name="bottom"/>
    </contour>
    <contour>
      <point x="540.777678225" y="234.634344481" type="curve" smooth="yes"/>
      <point x="540.777678225" y="559.300010681" type="line"/>
      <point x="520.824501767" y="559.300010681" type="line"/>
      <point x="520.824501767" y="235.577164499" type="line" smooth="yes"/>
      <point x="520.824501767" y="88.0817616821"/>
      <point x="448.095400415" y="16.5952303169"/>
      <point x="321.119612056" y="16.5952303169" type="curve" smooth="yes"/>
      <point x="194.143823697" y="16.5952303169"/>
      <point x="121.414722344" y="88.0817616821"/>
      <point x="121.414722344" y="235.577164499" type="curve" smooth="yes"/>
      <point x="121.414722344" y="559.300010681" type="line"/>
      <point x="101.390353883" y="559.300010681" type="line"/>
      <point x="101.390353883" y="234.634344481" type="line" smooth="yes"/>
      <point x="101.390353883" y="76.1447014542"/>
      <point x="185.126709471" y="-2.70861005173"/>
      <point x="321.084016054" y="-2.70861005173" type="curve" smooth="yes"/>
      <point x="457.041322637" y="-2.70861005173"/>
      <point x="540.777678225" y="76.1447014542"/>
    </contour>
  </outline>
</glyph>
<glyph name="W" format="1">
  <advance width="905.228949125"/>
  <unicode hex="0057"/>
  <outline>
    <contour>
      <point x="452.614474563" y="559.300010681" type="move" name="top"/>
    </contour>
    <contour>
      <point x="452.614474563" y="0.0" type="move" name="bottom"/>
    </contour>
    <contour>
      <point x="256.52743291" y="0.0" type="line"/>
      <point x="454.873202619" y="537.071830257" type="line"/>
      <point x="450.498130512" y="537.071830257" type="line"/>
      <point x="648.701516215" y="0.0" type="line"/>
      <point x="669.028450689" y="0.0" type="line"/>
      <point x="870.993686492" y="559.300010681" type="line"/>
      <point x="850.338298023" y="559.300010681" type="line"/>
      <point x="653.743204332" y="15.0132102867" type="line"/>
      <point x="663.844378566" y="15.0132102867" type="line"/>
      <point x="462.680052795" y="559.300010681" type="line"/>
      <point x="442.887058344" y="559.300010681" type="line"/>
      <point x="241.491358564" y="15.0132102867" type="line"/>
      <point x="252.472724816" y="15.0132102867" type="line"/>
      <point x="56.0200151311" y="559.300010681" type="line"/>
      <point x="34.2352626338" y="559.300010681" type="line"/>
      <point x="236.200498437" y="0.0" type="line"/>
    </contour>
  </outline>
</glyph>
<glyph name="X" format="1">
  <advance width="504.898527577"/>
  <unicode hex="0058"/>
  <outline>
    <contour>
      <point x="43.4141769006" y="0.0" type="line"/>
      <point x="255.352764863" y="278.57934532" type="line"/>
      <point x="248.665570697" y="278.55537532" type="line"/>
      <point x="460.675350662" y="0.0" type="line"/>
      <point x="485.26086122" y="0.0" type="line"/>
      <point x="261.247138979" y="294.30366562" type="line"/>
      <point x="261.247138979" y="284.172345427" type="line"/>
      <point x="469.169850918" y="559.300010681" type="line"/>
      <point x="445.660310386" y="559.300010681" type="line"/>
      <point x="249.545762715" y="299.609025722" type="line"/>
      <point x="256.304148884" y="299.632995722" type="line"/>
      <point x="60.1184092095" y="559.300010681" type="line"/>
      <point x="35.6218886549" y="559.300010681" type="line"/>
      <point x="245.918206638" y="280.856495364" type="line"/>
      <point x="245.936004639" y="297.212025676" type="line"/>
      <point x="19.6376663577" y="0.0" type="line"/>
    </contour>
  </outline>
</glyph>
<glyph name="Z" format="1">
  <advance width="517.805313785"/>
  <unicode hex="005A"/>
  <outline>
    <contour>
      <point x="263.44114698" y="559.300010681" type="move" name="top"/>
    </contour>
    <contour>
      <point x="271.353167125" y="0.0" type="move" name="bottom"/>
    </contour>
    <contour>
      <point x="486.734859209" y="0.0" type="line"/>
      <point x="486.734859209" y="19.112080365" type="line"/>
      <point x="61.2380652198" y="19.112080365" type="line"/>
      <point x="62.5454092553" y="11.7213302238" type="line"/>
      <point x="478.538071052" y="544.222880393" type="line"/>
      <point x="478.538071052" y="559.323980682" type="line"/>
      <point x="44.2636268299" y="559.323980682" type="line"/>
      <point x="44.2636268299" y="540.211900317" type="line"/>
      <point x="457.429642583" y="540.211900317" type="line"/>
      <point x="456.122298547" y="547.602650458" type="line"/>
      <point x="40.12963675" y="15.1011002884" type="line"/>
      <point x="40.12963675" y="0.0" type="line"/>
    </contour>
  </outline>
</glyph>
<glyph name="bracketleft" format="1">
  <advance width="231.482410403"/>
  <unicode hex="005B"/>
  <outline>
    <contour>
      <point x="209.941976004" y="-99.0760018921" type="line"/>
      <point x="209.941976004" y="-79.5963815201" type="line"/>
      <point x="105.794550044" y="-79.5963815201" type="line"/>
      <point x="105.794550044" y="573.37839095" type="line"/>
      <point x="209.941976004" y="573.37839095" type="line"/>
      <point x="209.941976004" y="592.858011322" type="line"/>
      <point x="86.410909609" y="592.858011322" type="line"/>
      <point x="86.410909609" y="-99.0760018921" type="line"/>
    </contour>
  </outline>
</glyph>
<glyph name="underscore" format="1">
  <advance width="435.536484239"/>
  <unicode hex="005F"/>
  <outline>
    <contour>
      <point x="435.536484239" y="-162.996003113" type="line"/>
      <point x="435.536484239" y="-144.619002762" type="line"/>
      <point x="0.0" y="-144.619002762" type="line"/>
      <point x="0.0" y="-162.996003113" type="line"/>
    </contour>
  </outline>
</glyph>
<glyph name="c" format="1">
  <advance width="441.937292358"/>
  <unicode hex="0063"/>
  <outline>
    <contour>
      <point x="235.89955046" y="413.802107903" type="move" name="top"/>
    </contour>
    <contour>
      <point x="235.757166454" y="0.0" type="move" name="bottom"/>
    </contour>
    <contour>
      <point x="401.550393615" y="66.4208712685" type="curve"/>
      <point x="387.46570329" y="80.1077415298" type="line"/>
      <point x="355.408268692" y="37.0336507072"/>
      <point x="304.975207752" y="16.3795003128"/>
      <point x="249.688146721" y="16.3795003128" type="curve" smooth="yes"/>
      <point x="141.968176721" y="16.3795003128"/>
      <point x="62.8916612518" y="93.9703917946"/>
      <point x="62.8916612518" y="207.300553959" type="curve" smooth="yes"/>
      <point x="62.8916612518" y="319.831716108"/>
      <point x="141.968176721" y="397.42260759"/>
      <point x="249.688146721" y="397.42260759" type="curve" smooth="yes"/>
      <point x="304.975207752" y="397.42260759"/>
      <point x="355.408268692" y="376.768457195"/>
      <point x="387.46570329" y="333.694366373" type="curve"/>
      <point x="401.550393615" y="347.381236634" type="line"/>
      <point x="366.11457495" y="393.203887509"/>
      <point x="310.568633891" y="416.366897952"/>
      <point x="249.705944721" y="416.366897952" type="curve" smooth="yes"/>
      <point x="130.106618451" y="416.366897952"/>
      <point x="43.0986668002" y="330.634196314"/>
      <point x="43.0986668002" y="207.300553959" type="curve" smooth="yes"/>
      <point x="43.0986668002" y="83.9429416031"/>
      <point x="130.106618451" y="-2.56479004898"/>
      <point x="249.705944721" y="-2.56479004898" type="curve" smooth="yes"/>
      <point x="310.568633891" y="-2.56479004898"/>
      <point x="366.11457495" y="20.5982203934"/>
    </contour>
  </outline>
</glyph>
<glyph name="f" format="1">
  <advance width="253.645774828"/>
  <unicode hex="0066"/>
  <outline>
    <contour>
      <point x="118.499086296" y="0.0" type="line"/>
      <point x="118.499086296" y="399.404127628" type="line"/>
      <point x="118.374500291" y="410.158667833" type="line"/>
      <point x="118.374500291" y="487.50985931" type="line" smooth="yes"/>
      <point x="118.374500291" y="545.141730411"/>
      <point x="147.24932883" y="576.598361012"/>
      <point x="203.203005871" y="576.598361012" type="curve" smooth="yes"/>
      <point x="229.633036364" y="576.598361012"/>
      <point x="254.480662827" y="567.929210846"/>
      <point x="272.154077158" y="551.485790532" type="curve"/>
      <point x="284.1919974" y="566.099500811" type="line"/>
      <point x="264.615815028" y="585.906711189"/>
      <point x="232.024440408" y="595.422801371"/>
      <point x="201.895661835" y="595.422801371" type="curve" smooth="yes"/>
      <point x="135.82301256" y="595.422801371"/>
      <point x="98.6526978422" y="553.715000574"/>
      <point x="98.6526978422" y="491.432949385" type="curve" smooth="yes"/>
      <point x="98.6526978422" y="0.0" type="line"/>
    </contour>
    <contour>
      <point x="258.952814921" y="394.402387532" type="line"/>
      <point x="258.952814921" y="413.083007889" type="line"/>
      <point x="18.1976463344" y="413.083007889" type="line"/>
      <point x="18.1976463344" y="394.402387532" type="line"/>
    </contour>
  </outline>
</glyph>
<glyph name="h" format="1">
  <advance width="541.017142217"/>
  <unicode hex="0068"/>
  <outline>
    <contour>
      <point x="101.801325935" y="592.858011322" type="move" name="top"/>
    </contour>
    <contour>
      <point x="271.370965126" y="0.0" type="move" name="bottom"/>
    </contour>
    <contour>
      <point x="185.911439538" y="413.802107903" type="move" name="topright"/>
    </contour>
    <contour>
      <point x="153.345952902" y="503.609709618" type="move" name="center"/>
    </contour>
    <contour>
      <point x="453.921818598" y="0.0" type="line"/>
      <point x="453.921818598" y="243.862794657" type="line" smooth="yes"/>
      <point x="453.921818598" y="356.489836808"/>
      <point x="388.881453365" y="416.366897952"/>
      <point x="286.156249427" y="416.366897952" type="curve" smooth="yes"/>
      <point x="169.313995234" y="416.366897952"/>
      <point x="98.7352158981" y="340.214206497"/>
      <point x="98.3792558837" y="230.463564401" type="curve"/>
      <point x="111.724520162" y="223.943724277" type="line"/>
      <point x="111.724520162" y="327.414226253"/>
      <point x="177.297207382" y="397.087027583"/>
      <point x="285.719389392" y="397.087027583" type="curve" smooth="yes"/>
      <point x="379.019743123" y="397.087027583"/>
      <point x="434.075430144" y="343.761766565"/>
      <point x="434.075430144" y="242.927964639" type="curve" smooth="yes"/>
      <point x="434.075430144" y="0.0" type="line"/>
    </contour>
    <contour>
      <point x="111.724520162" y="0.0" type="line"/>
      <point x="111.724520162" y="592.858011322" type="line"/>
      <point x="91.8781317079" y="592.858011322" type="line"/>
      <point x="91.8781317079" y="0.0" type="line"/>
    </contour>
  </outline>
</glyph>
<glyph name="i" format="1">
  <advance width="203.584853869"/>
  <unicode hex="0069"/>
  <outline>
    <contour>
      <point x="111.706722161" y="0.0" type="move" name="ogonek"/>
    </contour>
    <contour>
      <point x="101.801325935" y="0.0" type="move" name="bottom"/>
    </contour>
    <component base="dotaccentcomb.i" xOffset="-140.898678643"/>
    <component base="idotless"/>
  </outline>
</glyph>
<glyph name="k" format="1">
  <advance width="452.980142595"/>
  <unicode hex="006B"/>
  <outline>
    <contour>
      <point x="101.801325935" y="592.858011322" type="move" name="top"/>
    </contour>
    <contour>
      <point x="181.866439462" y="413.802107903" type="move" name="topright"/>
    </contour>
    <contour>
      <point x="248.647772696" y="0.0" type="move" name="bottom"/>
    </contour>
    <contour>
      <point x="233.86410643" y="236.384154514" type="line"/>
      <point x="248.534512744" y="247.865784734" type="line"/>
      <point x="431.004466195" y="413.802107903" type="line"/>
      <point x="403.307541581" y="413.802107903" type="line"/>
      <point x="105.616570037" y="146.488662798" type="line"/>
      <point x="105.527580033" y="121.511922321" type="line"/>
    </contour>
    <contour>
      <point x="111.724520162" y="0.0" type="line"/>
      <point x="111.724520162" y="592.858011322" type="line"/>
      <point x="91.8781317079" y="592.858011322" type="line"/>
      <point x="91.8781317079" y="0.0" type="line"/>
    </contour>
    <contour>
      <point x="449.522476543" y="0.0" type="line"/>
      <point x="245.084936674" y="253.562654842" type="line"/>
      <point x="229.951782341" y="240.163424586" type="line"/>
      <point x="424.092369968" y="0.0" type="line"/>
    </contour>
  </outline>
</glyph>
<glyph name="l" format="1">
  <advance width="203.60265187"/>
  <unicode hex="006C"/>
  <outline>
    <contour>
      <point x="101.801325935" y="592.858011322" type="move" name="top"/>
    </contour>
    <contour>
      <point x="101.801325935" y="0.0" type="move" name="bottom"/>
    </contour>
    <contour>
      <point x="192.090581666" y="592.858011322" type="move" name="topright"/>
    </contour>
    <contour>
      <point x="205.995673949" y="280.12940535" type="move" name="dot"/>
    </contour>
    <contour>
      <point x="101.801325935" y="280.12940535" type="move" name="center"/>
    </contour>
    <contour>
      <point x="111.724520162" y="0.0" type="line"/>
      <point x="111.724520162" y="592.858011322" type="line"/>
      <point x="91.8781317079" y="592.858011322" type="line"/>
      <point x="91.8781317079" y="0.0" type="line"/>
    </contour>
  </outline>
</glyph>
<glyph name="q" format="1">
  <advance width="543.248364255"/>
  <unicode hex="0071"/>
  <outline>
    <contour>
      <point x="247.243348674" y="413.802107903" type="move" name="top"/>
    </contour>
    <contour>
      <point x="246.335650637" y="0.0" type="move" name="bottom"/>
    </contour>
    <contour>
      <point x="446.20234039" y="206.501553944" type="curve" smooth="yes"/>
      <point x="446.20234039" y="329.803236298"/>
      <point x="361.338238809" y="416.366897952"/>
      <point x="246.335650637" y="416.366897952" type="curve" smooth="yes"/>
      <point x="131.457648471" y="416.366897952"/>
      <point x="43.0986668002" y="329.299866289"/>
      <point x="43.0986668002" y="206.501553944" type="curve" smooth="yes"/>
      <point x="43.0986668002" y="83.7032415985"/>
      <point x="131.457648471" y="-2.56479004898"/>
      <point x="246.335650637" y="-2.56479004898" type="curve" smooth="yes"/>
      <point x="361.195854803" y="-2.56479004898"/>
      <point x="446.20234039" y="83.2717815903"/>
    </contour>
    <contour>
      <point x="62.8916612518" y="206.501553944" type="curve" smooth="yes"/>
      <point x="62.8916612518" y="319.032716093"/>
      <point x="141.914782719" y="397.42260759"/>
      <point x="247.243348674" y="397.42260759" type="curve" smooth="yes"/>
      <point x="352.571914629" y="397.42260759"/>
      <point x="431.595036096" y="319.032716093"/>
      <point x="431.595036096" y="206.501553944" type="curve" smooth="yes"/>
      <point x="431.595036096" y="93.9703917946"/>
      <point x="352.571914629" y="16.3795003128"/>
      <point x="247.243348674" y="16.3795003128" type="curve" smooth="yes"/>
      <point x="141.914782719" y="16.3795003128"/>
      <point x="62.8916612518" y="93.9703917946"/>
    </contour>
    <contour>
      <point x="451.370232547" y="-155.00600296" type="line"/>
      <point x="451.370232547" y="413.802107903" type="line"/>
      <point x="431.719622102" y="413.802107903" type="line"/>
      <point x="431.719622102" y="264.772625056" type="line"/>
      <point x="439.613844246" y="205.726523929" type="line"/>
      <point x="431.523844094" y="146.680422801" type="line"/>
      <point x="431.523844094" y="-155.00600296" type="line"/>
    </contour>
  </outline>
</glyph>
<glyph name="r" format="1">
  <advance width="316.684673999"/>
  <unicode hex="0072"/>
  <outline>
    <contour>
      <point x="183.963367477" y="413.802107903" type="move" name="top"/>
    </contour>
    <contour>
      <point x="101.801325935" y="0.0" type="move" name="bottom"/>
    </contour>
    <contour>
      <point x="111.724520162" y="0.0" type="line"/>
      <point x="111.724520162" y="252.539934823" type="line"/>
      <point x="111.528742154" y="269.14315514" type="line"/>
      <point x="111.528742154" y="413.802107903" type="line"/>
      <point x="91.8781317079" y="413.802107903" type="line"/>
      <point x="91.8781317079" y="0.0" type="line"/>
    </contour>
    <contour>
      <point x="269.655885109" y="396.168177566" type="curve" smooth="yes"/>
      <point x="271.52305715" y="396.168177566"/>
      <point x="273.354633189" y="396.144207565"/>
      <point x="275.292997233" y="396.072297564" type="curve"/>
      <point x="275.257401231" y="416.366897952" type="line"/>
      <point x="162.841995112" y="416.366897952"/>
      <point x="98.7352158981" y="344.792476585"/>
      <point x="98.7352158981" y="226.276804321" type="curve"/>
      <point x="111.724520162" y="221.283054226" type="line"/>
      <point x="111.724520162" y="329.547556293"/>
      <point x="170.336571258" y="396.168177566"/>
    </contour>
  </outline>
</glyph>
<glyph name="t" format="1">
  <advance width="315.173461972"/>
  <unicode hex="0074"/>
  <outline>
    <contour>
      <point x="108.575892069" y="504.328809631" type="move" name="top"/>
    </contour>
    <contour>
      <point x="195.556337701" y="0.0" type="move" name="bottom"/>
    </contour>
    <contour>
      <point x="202.429601857" y="592.858011322" type="move" name="topright"/>
    </contour>
    <contour>
      <point x="138.979730635" y="244.190384663" type="move" name="center"/>
    </contour>
    <contour>
      <point x="284.1919974" y="26.8064505119" type="curve"/>
      <point x="272.154077158" y="41.420160791" type="line"/>
      <point x="254.480662827" y="24.9048304756"/>
      <point x="229.633036364" y="16.2596503105"/>
      <point x="203.203005871" y="16.2596503105" type="curve" smooth="yes"/>
      <point x="147.338318834" y="16.2596503105"/>
      <point x="118.499086296" y="47.7162809113"/>
      <point x="118.499086296" y="105.108452007" type="curve" smooth="yes"/>
      <point x="118.499086296" y="504.328809631" type="line"/>
      <point x="98.6526978422" y="504.328809631" type="line"/>
      <point x="98.6526978422" y="101.185361932" type="line" smooth="yes"/>
      <point x="98.6526978422" y="38.6636107384"/>
      <point x="134.240608531" y="-2.56479004898"/>
      <point x="201.806671832" y="-2.56479004898" type="curve" smooth="yes"/>
      <point x="232.024440408" y="-2.56479004898"/>
      <point x="264.580219026" y="6.95130013275"/>
    </contour>
    <contour>
      <point x="258.952814921" y="394.402387532" type="line"/>
      <point x="258.952814921" y="413.083007889" type="line"/>
      <point x="18.1976463344" y="413.083007889" type="line"/>
      <point x="18.1976463344" y="394.402387532" type="line"/>
    </contour>
  </outline>
</glyph>
<glyph name="v" format="1">
  <advance width="413.39253585"/>
  <unicode hex="0076"/>
  <outline>
    <contour>
      <point x="206.696267925" y="413.802107903" type="move" name="top"/>
    </contour>
    <contour>
      <point x="206.696267925" y="0.0" type="move" name="bottom"/>
    </contour>
    <contour>
      <point x="216.690654155" y="0.0" type="line"/>
      <point x="408.912293773" y="413.802107903" type="line"/>
      <point x="386.905875284" y="413.802107903" type="line"/>
      <point x="202.552569827" y="13.3193302544" type="line"/>
      <point x="210.964552028" y="13.3193302544" type="line"/>
      <point x="26.8070245781" y="413.802107903" type="line"/>
      <point x="4.4802420764" y="413.802107903" type="line"/>
      <point x="196.701881695" y="0.0" type="line"/>
    </contour>
  </outline>
</glyph>
<glyph name="w" format="1">
  <advance width="781.549026777"/>
  <unicode hex="0077"/>
  <outline>
    <contour>
      <point x="390.774513389" y="413.802107903" type="move" name="top"/>
    </contour>
    <contour>
      <point x="390.774513389" y="0.0" type="move" name="bottom"/>
    </contour>
    <contour>
      <point x="214.210260107" y="0.0" type="line"/>
      <point x="394.597847473" y="394.354447531" type="line"/>
      <point x="387.022371307" y="394.354447531" type="line"/>
      <point x="567.338766671" y="0.0" type="line"/>
      <point x="587.32753913" y="0.0" type="line"/>
      <point x="773.005986624" y="413.802107903" type="line"/>
      <point x="750.999568135" y="413.802107903" type="line"/>
      <point x="573.082666798" y="13.3193302544" type="line"/>
      <point x="581.583639003" y="13.3193302544" type="line"/>
      <point x="400.697707616" y="413.802107903" type="line"/>
      <point x="381.118289173" y="413.802107903" type="line"/>
      <point x="200.036579778" y="13.3193302544" type="line"/>
      <point x="208.555349983" y="13.3193302544" type="line"/>
      <point x="30.8342266537" y="413.802107903" type="line"/>
      <point x="8.54304015342" y="413.802107903" type="line"/>
      <point x="194.221487647" y="0.0" type="line"/>
    </contour>
  </outline>
</glyph>
<glyph name="x" format="1">
  <advance width="405.498313705"/>
  <unicode hex="0078"/>
  <outline>
    <contour>
      <point x="46.1340349407" y="0.0" type="line"/>
      <point x="205.087975912" y="202.722283871" type="line"/>
      <point x="199.441155771" y="203.033893877" type="line"/>
      <point x="358.32390474" y="0.0" type="line"/>
      <point x="383.504839304" y="0.0" type="line"/>
      <point x="209.702512012" y="219.828874198" type="line"/>
      <point x="208.911309997" y="207.532263963" type="line"/>
      <point x="371.547819083" y="413.802107903" type="line"/>
      <point x="348.340844563" y="413.802107903" type="line"/>
      <point x="198.018933748" y="223.288544264" type="line"/>
      <point x="206.021561933" y="223.456334267" type="line"/>
      <point x="55.9132271267" y="413.802107903" type="line"/>
      <point x="31.5946865793" y="413.802107903" type="line"/>
      <point x="192.630993635" y="210.368714017" type="line"/>
      <point x="193.528983654" y="218.910024181" type="line"/>
      <point x="21.9934744006" y="0.0" type="line"/>
    </contour>
  </outline>
</glyph>
<glyph name="y" format="1">
  <advance width="413.39253585"/>
  <unicode hex="0079"/>
  <outline>
    <contour>
      <point x="194.6680557" y="413.802107903" type="move" name="top"/>
    </contour>
    <contour>
      <point x="279.970635352" y="0.0" type="move" name="bottom"/>
    </contour>
    <contour>
      <point x="187.202603608" y="-65.0226212418" type="curve" smooth="yes"/>
      <point x="408.912293773" y="413.802107903" type="line"/>
      <point x="386.905875284" y="413.802107903" type="line"/>
      <point x="202.605963829" y="13.2713902534" type="line"/>
      <point x="198.365185745" y="7.31884013977" type="line"/>
      <point x="167.943549178" y="-58.9582111259" type="line" smooth="yes"/>
      <point x="139.193306644" y="-120.297442297"/>
      <point x="107.980468062" y="-138.578562646"/>
      <point x="67.7084473068" y="-138.578562646" type="curve" smooth="yes"/>
      <point x="34.7886186913" y="-138.578562646"/>
      <point x="11.2920222473" y="-128.28744245"/>
      <point x="-11.2531901756" y="-104.629051998" type="curve"/>
      <point x="-24.4560704478" y="-120.744882306" type="line"/>
      <point x="-1.64388801403" y="-145.489912778"/>
      <point x="30.4410526027" y="-157.570793009"/>
      <point x="67.1130233002" y="-157.570793009" type="curve" smooth="yes"/>
      <point x="117.440914271" y="-157.570793009"/>
      <point x="155.402431003" y="-134.06421256"/>
    </contour>
    <contour>
      <point x="210.911158026" y="13.7507902626" type="line"/>
      <point x="26.8070245781" y="413.802107903" type="line"/>
      <point x="4.4802420764" y="413.802107903" type="line"/>
      <point x="200.978255781" y="-9.12458017426" type="line"/>
    </contour>
  </outline>
</glyph>
<glyph name="z" format="1">
  <advance width="398.625049549"/>
  <unicode hex="007A"/>
  <outline>
    <contour>
      <point x="199.005913771" y="413.802107903" type="move" name="top"/>
    </contour>
    <contour>
      <point x="206.917933916" y="0.0" type="move" name="bottom"/>
    </contour>
    <contour>
      <point x="360.326988838" y="0.0" type="line"/>
      <point x="360.326988838" y="18.6806203568" type="line"/>
      <point x="48.8894889823" y="18.6806203568" type="line"/>
      <point x="59.0424391834" y="12.304600235" type="line"/>
      <point x="356.175200758" y="399.060557621" type="line"/>
      <point x="356.175200758" y="413.802107903" type="line"/>
      <point x="41.0276267688" y="413.802107903" type="line"/>
      <point x="41.0276267688" y="395.121487546" type="line"/>
      <point x="341.050136408" y="395.121487546" type="line"/>
      <point x="334.061994265" y="401.497507668" type="line"/>
      <point x="36.9292326904" y="14.7415502815" type="line"/>
      <point x="36.9292326904" y="0.0" type="line"/>
    </contour>
  </outline>
</glyph>
<glyph name="braceleft" format="1">
  <advance width="257.52088488"/>
  <unicode hex="007B"/>
  <outline>
    <contour>
      <point x="74.5428793909" y="236.328224513" type="line"/>
      <point x="98.929375871" y="244.374154667" type="line" smooth="yes"/>
      <point x="127.050216432" y="251.589124805"/>
      <point x="137.994368648" y="271.803825191"/>
      <point x="137.994368648" y="312.880415975" type="curve" smooth="yes"/>
      <point x="137.994368648" y="508.483609711" type="line" smooth="yes"/>
      <point x="137.994368648" y="552.93997056"/>
      <point x="165.144409152" y="573.450300951"/>
      <point x="224.885824276" y="573.450300951" type="curve"/>
      <point x="224.885824276" y="592.905951323" type="line"/>
      <point x="219.36359014" y="592.905951323" type="line" smooth="yes"/>
      <point x="150.321910814" y="592.905951323"/>
      <point x="118.610728213" y="567.194130832"/>
      <point x="118.610728213" y="510.185479743" type="curve" smooth="yes"/>
      <point x="118.610728213" y="312.520865968" type="line" smooth="yes"/>
      <point x="118.610728213" y="273.921175231"/>
      <point x="104.226707945" y="255.903724887"/>
      <point x="74.5428793909" y="255.903724887" type="curve" smooth="yes"/>
      <point x="58.7091310823" y="255.903724887" type="line"/>
      <point x="58.7091310823" y="236.328224513" type="line"/>
    </contour>
    <contour>
      <point x="224.885824276" y="-100.674001923" type="line"/>
      <point x="224.885824276" y="-81.2183515511" type="line"/>
      <point x="165.144409152" y="-81.2183515511"/>
      <point x="137.994368648" y="-60.7080211594"/>
      <point x="137.994368648" y="-16.2516603104" type="curve" smooth="yes"/>
      <point x="137.994368648" y="179.351533425" type="line" smooth="yes"/>
      <point x="137.994368648" y="220.42812421"/>
      <point x="127.050216432" y="240.642824596"/>
      <point x="98.929375871" y="247.857794733" type="curve" smooth="yes"/>
      <point x="74.5428793909" y="255.903724887" type="line"/>
      <point x="58.7091310823" y="255.903724887" type="line"/>
      <point x="58.7091310823" y="236.328224513" type="line"/>
      <point x="74.5428793909" y="236.328224513" type="line" smooth="yes"/>
      <point x="104.226707945" y="236.328224513"/>
      <point x="118.610728213" y="218.310774169"/>
      <point x="118.610728213" y="179.711083432" type="curve" smooth="yes"/>
      <point x="118.610728213" y="-17.9535303429" type="line" smooth="yes"/>
      <point x="118.610728213" y="-74.9621814316"/>
      <point x="150.321910814" y="-100.674001923"/>
      <point x="219.36359014" y="-100.674001923" type="curve" smooth="yes"/>
    </contour>
  </outline>
</glyph>
<glyph name="bar" format="1">
  <advance width="179.866591433"/>
  <unicode hex="007C"/>
  <outline>
    <contour>
      <point x="99.322549922" y="-102.447781956" type="line"/>
      <point x="99.322549922" y="657.70485256" type="line"/>
      <point x="80.5440415114" y="657.70485256" type="line"/>
      <point x="80.5440415114" y="-102.447781956" type="line"/>
    </contour>
  </outline>
</glyph>
<glyph name="asciitilde" format="1">
  <advance width="389.031927353"/>
  <unicode hex="007E"/>
  <outline>
    <contour>
      <point x="323.316856127" y="281.495695376" type="curve"/>
      <point x="304.85871173" y="281.495695376" type="line"/>
      <point x="304.85871173" y="251.373394801"/>
      <point x="290.474691462" y="234.011124469"/>
      <point x="264.835862984" y="234.011124469" type="curve" smooth="yes"/>
      <point x="222.439408195" y="234.011124469"/>
      <point x="172.077539258" y="289.317905525"/>
      <point x="124.16855835" y="289.317905525" type="curve" smooth="yes"/>
      <point x="87.8072436481" y="289.317905525"/>
      <point x="66.5062732405" y="264.532925052"/>
      <point x="66.5062732405" y="222.497534249" type="curve"/>
      <point x="84.9822156388" y="222.497534249" type="line"/>
      <point x="84.9822156388" y="252.619834824"/>
      <point x="99.3662359062" y="269.982105156"/>
      <point x="125.005064384" y="269.982105156" type="curve" smooth="yes"/>
      <point x="168.192721188" y="269.982105156"/>
      <point x="211.433771994" y="214.6753241"/>
      <point x="265.672369018" y="214.6753241" type="curve" smooth="yes"/>
      <point x="302.03368372" y="214.6753241"/>
      <point x="323.316856127" y="239.460304573"/>
    </contour>
  </outline>
</glyph>
<glyph name="cent" format="1">
  <advance width="485.400009155"/>
  <unicode hex="00A2"/>
  <outline>
    <contour>
      <point x="255.46764285" y="-111.684222133" type="line"/>
      <point x="255.46764285" y="10.8743902077" type="line"/>
      <point x="236.689134439" y="10.8743902077" type="line"/>
      <point x="236.689134439" y="-111.684222133" type="line"/>
    </contour>
    <contour>
      <point x="255.46764285" y="403.167417699" type="line"/>
      <point x="255.46764285" y="523.984210007" type="line"/>
      <point x="236.689134439" y="523.984210007" type="line"/>
      <point x="236.689134439" y="403.167417699" type="line"/>
    </contour>
    <component base="c"/>
  </outline>
</glyph>
<glyph name="sterling" format="1">
  <advance width="431.171120149"/>
  <unicode hex="00A3"/>
  <outline>
    <contour>
      <point x="391.344049412" y="0.0" type="line"/>
      <point x="391.344049412" y="19.6474103752" type="line"/>
      <point x="128.169872443" y="19.6474103752" type="line"/>
      <point x="137.088288646" y="10.2511701958" type="line"/>
      <point x="137.088288646" y="400.06729764" type="line" smooth="yes"/>
      <point x="137.088288646" y="490.154549361"/>
      <point x="180.133561444" y="538.661840287"/>
      <point x="258.294288894" y="538.661840287" type="curve" smooth="yes"/>
      <point x="308.745147835" y="538.661840287"/>
      <point x="353.746582677" y="513.381479804"/>
      <point x="386.951179304" y="465.944848898" type="curve"/>
      <point x="399.523039568" y="480.870169183" type="line"/>
      <point x="363.677866886" y="530.96747014"/>
      <point x="313.163905926" y="558.788650671"/>
      <point x="257.849338876" y="558.788650671" type="curve" smooth="yes"/>
      <point x="167.071447143" y="558.788650671"/>
      <point x="117.117314187" y="502.379249594"/>
      <point x="117.117314187" y="400.187147643" type="curve" smooth="yes"/>
      <point x="117.117314187" y="10.2511701958" type="line"/>
      <point x="126.035730391" y="19.6474103752" type="line"/>
      <point x="41.4984647704" y="19.6474103752" type="line"/>
      <point x="41.4984647704" y="0.0" type="line"/>
    </contour>
    <contour>
      <point x="291.037755538" y="263.022815023" type="line"/>
      <point x="291.037755538" y="280.201315351" type="line"/>
      <point x="41.4984647704" y="280.201315351" type="line"/>
      <point x="41.4984647704" y="263.022815023" type="line"/>
    </contour>
  </outline>
</glyph>
<glyph name="currency" format="1">
  <advance width="586.746677054"/>
  <unicode hex="00A4"/>
  <outline>
    <contour>
      <point x="521.795301824" y="252.651794825" type="curve" smooth="yes"/>
      <point x="521.795301824" y="372.262097109"/>
      <point x="419.301471896" y="470.323368982"/>
      <point x="293.364439527" y="470.323368982" type="curve" smooth="yes"/>
      <point x="169.027609187" y="470.323368982"/>
      <point x="67.307183273" y="372.262097109"/>
      <point x="67.307183273" y="252.651794825" type="curve" smooth="yes"/>
      <point x="67.307183273" y="134.59155257"/>
      <point x="169.027609187" y="37.3053107124"/>
      <point x="293.364439527" y="37.3053107124" type="curve" smooth="yes"/>
      <point x="419.283673896" y="37.3053107124"/>
      <point x="521.795301824" y="134.59155257"/>
    </contour>
    <contour>
      <point x="152.350882897" y="100.658021922" type="line"/>
      <point x="138.258102588" y="114.504692187" type="line"/>
      <point x="41.4094747668" y="18.1612703468" type="line"/>
      <point x="54.7110530605" y="4.3146000824" type="line"/>
    </contour>
    <contour>
      <point x="537.666263976" y="28.4923405441" type="line"/>
      <point x="440.817636155" y="124.835762384" type="line"/>
      <point x="426.724855846" y="110.98909212" type="line"/>
      <point x="524.364685683" y="14.6456702797" type="line"/>
    </contour>
    <contour>
      <point x="160.021821208" y="396.37591757" type="line"/>
      <point x="62.3819913714" y="492.71933941" type="line"/>
      <point x="49.0804130777" y="478.872669145" type="line"/>
      <point x="145.929040899" y="382.529247305" type="line"/>
    </contour>
    <contour>
      <point x="86.24587369" y="252.651794825" type="curve" smooth="yes"/>
      <point x="86.24587369" y="361.435646902"/>
      <point x="179.439439416" y="450.651988606"/>
      <point x="293.364439527" y="450.651988606" type="curve" smooth="yes"/>
      <point x="408.871843666" y="450.651988606"/>
      <point x="502.874409408" y="361.435646902"/>
      <point x="502.874409408" y="252.651794825" type="curve" smooth="yes"/>
      <point x="502.874409408" y="145.418002777"/>
      <point x="408.871843666" y="57.0006610886"/>
      <point x="293.364439527" y="57.0006610886" type="curve" smooth="yes"/>
      <point x="179.439439416" y="57.0006610886"/>
      <point x="86.24587369" y="145.418002777"/>
    </contour>
    <contour>
      <point x="545.337202287" y="489.203739342" type="line"/>
      <point x="532.035623994" y="503.050409607" type="line"/>
      <point x="434.395794157" y="406.706987767" type="line"/>
      <point x="448.488574466" y="392.860317503" type="line"/>
    </contour>
  </outline>
</glyph>
<glyph name="yen" format="1">
  <advance width="492.621143343"/>
  <unicode hex="00A5"/>
  <outline>
    <contour>
      <point x="250.542450755" y="200.437143828" type="line"/>
      <point x="484.709123197" y="558.548950667" type="line"/>
      <point x="461.608936682" y="558.548950667" type="line"/>
      <point x="247.937470702" y="234.314744475" type="line"/>
      <point x="31.0122066609" y="558.548950667" type="line"/>
      <point x="7.91202014537" y="558.548950667" type="line"/>
      <point x="245.296894648" y="200.437143828" type="line"/>
    </contour>
    <contour>
      <point x="257.914058931" y="0.0" type="line"/>
      <point x="257.914058931" y="222.281804245" type="line"/>
      <point x="237.960882473" y="222.281804245" type="line"/>
      <point x="237.960882473" y="0.0" type="line"/>
    </contour>
    <contour>
      <point x="435.19994026" y="118.539642264" type="line"/>
      <point x="435.19994026" y="135.718142592" type="line"/>
      <point x="60.6038091415" y="135.718142592" type="line"/>
      <point x="60.6038091415" y="118.539642264" type="line"/>
    </contour>
    <contour>
      <point x="435.19994026" y="206.549493945" type="line"/>
      <point x="435.19994026" y="223.727994273" type="line"/>
      <point x="60.6038091415" y="223.727994273" type="line"/>
      <point x="60.6038091415" y="206.549493945" type="line"/>
    </contour>
  </outline>
</glyph>
<glyph name="brokenbar" format="1">
  <advance width="179.866591433"/>
  <unicode hex="00A6"/>
  <outline>
    <contour>
      <point x="99.322549922" y="375.99342718" type="line"/>
      <point x="99.322549922" y="657.70485256" type="line"/>
      <point x="80.5440415114" y="657.70485256" type="line"/>
      <point x="80.5440415114" y="375.99342718" type="line"/>
    </contour>
    <contour>
      <point x="99.322549922" y="-102.447781956" type="line"/>
      <point x="99.322549922" y="179.263643423" type="line"/>
      <point x="80.5440415114" y="179.263643423" type="line"/>
      <point x="80.5440415114" y="-102.447781956" type="line"/>
    </contour>
  </outline>
</glyph>
<glyph name="section" format="1">
  <advance width="353.32266673"/>
  <unicode hex="00A7"/>
  <outline>
    <contour>
      <point x="320.428726098" y="43.042130822" type="curve" smooth="yes"/>
      <point x="320.428726098" y="89.0964917015"/>
      <point x="290.869483548" y="123.629272361"/>
      <point x="224.66577632" y="145.154332772" type="curve"/>
      <point x="268.422969147" y="150.547582875"/>
      <point x="322.812040159" y="187.301583577"/>
      <point x="322.812040159" y="250.742184789" type="curve" smooth="yes"/>
      <point x="322.812040159" y="388.242097414"/>
      <point x="69.9153993962" y="336.19523642"/>
      <point x="69.9153993962" y="456.021268709" type="curve" smooth="yes"/>
      <point x="69.9153993962" y="507.38897969"/>
      <point x="116.774298261" y="535.457850226"/>
      <point x="186.018227542" y="535.457850226" type="curve" smooth="yes"/>
      <point x="227.045854311" y="535.457850226"/>
      <point x="262.997814997" y="525.678090039"/>
      <point x="289.793513522" y="507.668629695" type="curve"/>
      <point x="300.480403745" y="522.625909981" type="line"/>
      <point x="267.319493102" y="543.879310387"/>
      <point x="228.584572356" y="554.50601059"/>
      <point x="185.982631541" y="554.50601059" type="curve" smooth="yes"/>
      <point x="106.637528026" y="554.50601059"/>
      <point x="51.2339709721" y="517.87984989"/>
      <point x="51.2339709721" y="454.982568689" type="curve" smooth="yes"/>
      <point x="51.2339709721" y="407.665787785"/>
      <point x="83.7978395732" y="373.716277137"/>
      <point x="166.776971113" y="348.244156651" type="curve"/>
      <point x="93.7453037485" y="342.075876533"/>
      <point x="48.8506569106" y="308.42199589"/>
      <point x="48.8506569106" y="250.382634782" type="curve" smooth="yes"/>
      <point x="48.8506569106" y="111.332662126"/>
      <point x="301.640509669" y="162.604493105"/>
      <point x="301.640509669" y="43.6493708336" type="curve" smooth="yes"/>
      <point x="301.640509669" y="-13.9185802658"/>
      <point x="243.704782601" y="-45.0636008606"/>
      <point x="175.954267345" y="-45.0636008606" type="curve" smooth="yes"/>
      <point x="122.773842347" y="-45.0636008606"/>
      <point x="74.0380634231" y="-25.9115704948"/>
      <point x="37.8903247293" y="8.4933701622" type="curve"/>
      <point x="25.7278184818" y="-5.7128501091" type="line"/>
      <point x="60.3465471486" y="-40.2855807693"/>
      <point x="114.274488177" y="-64.1597012253"/>
      <point x="177.625661378" y="-64.1597012253" type="curve" smooth="yes"/>
      <point x="259.451158941" y="-64.1597012253"/>
      <point x="320.428726098" y="-23.7063304527"/>
    </contour>
    <contour>
      <point x="67.514287334" y="256.167394892" type="curve" smooth="yes"/>
      <point x="67.514287334" y="300.655715742"/>
      <point x="114.462176202" y="331.073646323"/>
      <point x="184.675287506" y="331.073646323" type="curve" smooth="yes"/>
      <point x="259.813590903" y="331.073646323"/>
      <point x="304.041621732" y="296.660715665"/>
      <point x="304.041621732" y="247.378394724" type="curve" smooth="yes"/>
      <point x="304.041621732" y="195.163743727"/>
      <point x="255.475732832" y="159.320603043"/>
      <point x="197.077257745" y="159.320603043" type="curve" smooth="yes"/>
      <point x="130.624378507" y="159.320603043"/>
      <point x="67.514287334" y="205.335013921"/>
    </contour>
  </outline>
</glyph>
<glyph name="copyright" format="1">
  <advance width="642.087132087"/>
  <unicode hex="00A9"/>
  <outline>
    <contour>
      <point x="594.890071209" y="279.650005341" type="curve" smooth="yes"/>
      <point x="594.890071209" y="428.264008179"/>
      <point x="475.158068951" y="550.511010513"/>
      <point x="321.448066051" y="550.511010513" type="curve" smooth="yes"/>
      <point x="166.929063137" y="550.511010513"/>
      <point x="47.1970608786" y="425.867008133"/>
      <point x="47.1970608786" y="278.05200531" type="curve" smooth="yes"/>
      <point x="47.1970608786" y="130.237002487"/>
      <point x="166.120063122" y="7.19100013733"/>
      <point x="319.830066021" y="7.19100013733" type="curve" smooth="yes"/>
      <point x="474.349068935" y="7.19100013733"/>
      <point x="594.890071209" y="131.835002518"/>
    </contour>
    <contour>
      <point x="428.378452071" y="173.398983311" type="curve"/>
      <point x="417.024945839" y="185.008453533" type="line"/>
      <point x="392.123925373" y="163.555303123"/>
      <point x="359.186298757" y="150.81924288"/>
      <point x="324.773056116" y="150.81924288" type="curve" smooth="yes"/>
      <point x="250.514944737" y="150.81924288"/>
      <point x="190.676449626" y="208.115533974"/>
      <point x="190.676449626" y="278.898945326" type="curve" smooth="yes"/>
      <point x="190.676449626" y="348.883356663"/>
      <point x="250.514944737" y="406.179647757"/>
      <point x="324.773056116" y="406.179647757" type="curve" smooth="yes"/>
      <point x="360.013096773" y="406.179647757"/>
      <point x="392.159521375" y="393.371677512"/>
      <point x="417.024945839" y="371.822647101" type="curve"/>
      <point x="428.378452071" y="384.398907341" type="line"/>
      <point x="400.908047554" y="408.488757801"/>
      <point x="363.569460847" y="423.765638093"/>
      <point x="324.737460115" y="423.765638093" type="curve" smooth="yes"/>
      <point x="240.690448531" y="423.765638093"/>
      <point x="172.948023258" y="358.583216848"/>
      <point x="172.948023258" y="278.851005325" type="curve" smooth="yes"/>
      <point x="172.948023258" y="198.319793787"/>
      <point x="240.65485253" y="133.137372543"/>
      <point x="323.875066097" y="133.137372543" type="curve" smooth="yes"/>
      <point x="363.516066845" y="133.137372543"/>
      <point x="400.854653552" y="148.438222835"/>
    </contour>
    <contour>
      <point x="64.8009012415" y="278.05200531" type="curve" smooth="yes"/>
      <point x="64.8009012415" y="416.82232796"/>
      <point x="175.837771323" y="532.613410172"/>
      <point x="321.448066051" y="532.613410172" type="curve" smooth="yes"/>
      <point x="466.249360765" y="532.613410172"/>
      <point x="577.286230846" y="419.195358006"/>
      <point x="577.286230846" y="279.650005341" type="curve" smooth="yes"/>
      <point x="577.286230846" y="140.87968269"/>
      <point x="465.45815875" y="25.0886004791"/>
      <point x="319.830066021" y="25.0886004791" type="curve" smooth="yes"/>
      <point x="175.028771307" y="25.0886004791"/>
      <point x="64.8009012415" y="139.28168266"/>
    </contour>
  </outline>
</glyph>
<glyph name="ordfeminine" format="1">
  <advance width="301.446349696"/>
  <unicode hex="00AA"/>
  <outline>
    <contour>
      <point x="246.372864674" y="365.942006989" type="line"/>
      <point x="245.581662659" y="526.053620046" type="line" smooth="yes"/>
      <point x="245.59946066" y="575.999111"/>
      <point x="212.056702019" y="608.054991612"/>
      <point x="152.465760884" y="608.054991612" type="curve" smooth="yes"/>
      <point x="115.953972193" y="608.054991612"/>
      <point x="83.9758195804" y="594.615811356"/>
      <point x="53.6156669985" y="574.009600962" type="curve"/>
      <point x="61.3416171539" y="559.284030681" type="line"/>
      <point x="89.7456076916" y="578.947421056"/>
      <point x="117.358396215" y="590.740661282"/>
      <point x="149.451426814" y="590.740661282" type="curve" smooth="yes"/>
      <point x="200.693487769" y="590.740661282"/>
      <point x="226.314518247" y="566.427090817"/>
      <point x="227.105720261" y="524.847130023" type="curve" smooth="yes"/>
      <point x="227.896922276" y="365.942006989" type="line"/>
    </contour>
    <contour>
      <point x="236.902710448" y="435.65475832" type="curve"/>
      <point x="227.896922276" y="442.885708458" type="line"/>
      <point x="208.712295919" y="398.397387608"/>
      <point x="173.614639268" y="381.17893728"/>
      <point x="127.440154413" y="381.17893728" type="curve" smooth="yes"/>
      <point x="85.977285644" y="381.17893728"/>
      <point x="58.9162351433" y="403.870537713"/>
      <point x="58.9162351433" y="436.781348341" type="curve" smooth="yes"/>
      <point x="58.9162351433" y="468.14209894"/>
      <point x="87.5596896731" y="485.38451927"/>
      <point x="137.6901846" y="485.38451927" type="curve" smooth="yes"/>
      <point x="232.875508372" y="485.38451927" type="line"/>
      <point x="232.875508372" y="499.390989537" type="line"/>
      <point x="135.538244548" y="499.390989537" type="line" smooth="yes"/>
      <point x="76.9876774374" y="499.367019537"/>
      <point x="40.5470807493" y="476.052199091"/>
      <point x="40.5470807493" y="435.718678321" type="curve" smooth="yes"/>
      <point x="40.5470807493" y="394.682037537"/>
      <point x="73.7516773764" y="365.774216985"/>
      <point x="123.332052317" y="365.774216985" type="curve" smooth="yes"/>
      <point x="175.810265304" y="365.774216985"/>
      <point x="216.046690058" y="387.347217397"/>
    </contour>
  </outline>
</glyph>
<glyph name="logicalnot" format="1">
  <advance width="436.958706261"/>
  <unicode hex="00AC"/>
  <outline>
    <contour>
      <point x="357.739806786" y="270.916935174" type="line"/>
      <point x="357.739806786" y="289.773335534" type="line"/>
      <point x="32.1820206031" y="289.773335534" type="line"/>
      <point x="32.1820206031" y="270.916935174" type="line"/>
    </contour>
    <contour>
      <point x="357.739806786" y="127.096932427" type="line"/>
      <point x="357.739806786" y="289.773335534" type="line"/>
      <point x="339.06808638" y="289.773335534" type="line"/>
      <point x="339.06808638" y="127.096932427" type="line"/>
    </contour>
  </outline>
</glyph>
<glyph name="registered" format="1">
  <advance width="642.087132087"/>
  <unicode hex="00AE"/>
  <outline>
    <contour>
      <point x="594.890071209" y="279.650005341" type="curve" smooth="yes"/>
      <point x="594.890071209" y="428.264008179"/>
      <point x="475.158068951" y="550.511010513"/>
      <point x="321.448066051" y="550.511010513" type="curve" smooth="yes"/>
      <point x="166.929063137" y="550.511010513"/>
      <point x="47.1970608786" y="425.867008133"/>
      <point x="47.1970608786" y="278.05200531" type="curve" smooth="yes"/>
      <point x="47.1970608786" y="130.237002487"/>
      <point x="166.120063122" y="7.19100013733"/>
      <point x="319.830066021" y="7.19100013733" type="curve" smooth="yes"/>
      <point x="474.349068935" y="7.19100013733"/>
      <point x="594.890071209" y="131.835002518"/>
    </contour>
    <contour>
      <point x="442.833664342" y="135.262712583" type="line"/>
      <point x="363.258804852" y="244.174404663" type="line"/>
      <point x="342.561348434" y="244.174404663" type="line"/>
      <point x="421.042439897" y="135.262712583" type="line"/>
    </contour>
    <contour>
      <point x="64.8009012415" y="278.05200531" type="curve" smooth="yes"/>
      <point x="64.8009012415" y="416.82232796"/>
      <point x="175.837771323" y="532.613410172"/>
      <point x="321.448066051" y="532.613410172" type="curve" smooth="yes"/>
      <point x="466.249360765" y="532.613410172"/>
      <point x="577.286230846" y="419.195358006"/>
      <point x="577.286230846" y="279.650005341" type="curve" smooth="yes"/>
      <point x="577.286230846" y="140.87968269"/>
      <point x="465.45815875" y="25.0886004791"/>
      <point x="319.830066021" y="25.0886004791" type="curve" smooth="yes"/>
      <point x="175.028771307" y="25.0886004791"/>
      <point x="64.8009012415" y="139.28168266"/>
    </contour>
    <contour>
      <point x="235.46430846" y="135.262712583" type="line"/>
      <point x="235.46430846" y="234.786154484" type="line"/>
      <point x="324.017450103" y="234.786154484" type="line" smooth="yes"/>
      <point x="399.058673514" y="234.786154484"/>
      <point x="441.037684304" y="272.219305199"/>
      <point x="441.037684304" y="335.995486417" type="curve" smooth="yes"/>
      <point x="441.037684304" y="398.077787602"/>
      <point x="399.058673514" y="433.113938271"/>
      <point x="324.017450103" y="433.113938271" type="curve" smooth="yes"/>
      <point x="217.860468097" y="433.113938271" type="line"/>
      <point x="217.860468097" y="135.262712583" type="line"/>
    </contour>
    <contour>
      <point x="235.46430846" y="415.815587941" type="line"/>
      <point x="324.017450103" y="415.815587941" type="line" smooth="yes"/>
      <point x="386.913965267" y="415.815587941"/>
      <point x="423.522833945" y="388.377927417"/>
      <point x="423.522833945" y="335.899606415" type="curve" smooth="yes"/>
      <point x="423.522833945" y="282.646255398"/>
      <point x="386.913965267" y="252.108474815"/>
      <point x="324.017450103" y="252.108474815" type="curve" smooth="yes"/>
      <point x="235.46430846" y="252.108474815" type="line"/>
    </contour>
  </outline>
</glyph>
<glyph name="degree" format="1">
  <advance width="244.47980465"/>
  <unicode hex="00B0"/>
  <outline>
    <contour>
      <point x="243.989550612" y="549.29653049" type="curve" smooth="yes"/>
      <point x="243.989550612" y="595.854261379"/>
      <point x="201.885953817" y="636.675172159"/>
      <point x="152.430164882" y="636.675172159" type="curve" smooth="yes"/>
      <point x="103.765577962" y="636.675172159"/>
      <point x="61.6619811669" y="595.854261379"/>
      <point x="61.6619811669" y="549.29653049" type="curve" smooth="yes"/>
      <point x="61.6619811669" y="502.738799601"/>
      <point x="103.765577962" y="462.692918836"/>
      <point x="152.430164882" y="462.692918836" type="curve" smooth="yes"/>
      <point x="201.885953817" y="462.692918836"/>
      <point x="243.989550612" y="502.738799601"/>
    </contour>
    <contour>
      <point x="78.9632555175" y="549.29653049" type="curve" smooth="yes"/>
      <point x="78.9632555175" y="587.00134121"/>
      <point x="112.49630614" y="619.185061825"/>
      <point x="152.430164882" y="619.185061825" type="curve" smooth="yes"/>
      <point x="193.155225639" y="619.185061825"/>
      <point x="226.688276262" y="587.00134121"/>
      <point x="226.688276262" y="549.29653049" type="curve" smooth="yes"/>
      <point x="226.688276262" y="511.59171977"/>
      <point x="193.155225639" y="480.18302917"/>
      <point x="152.430164882" y="480.18302917" type="curve" smooth="yes"/>
      <point x="112.49630614" y="480.18302917"/>
      <point x="78.9632555175" y="511.59171977"/>
    </contour>
  </outline>
</glyph>
<glyph name="paragraph" format="1">
  <advance width="456.918354667"/>
  <unicode hex="00B6"/>
  <outline>
    <contour>
      <point x="186.615269584" y="-89.3202117058" type="line"/>
      <point x="186.615269584" y="574.385130969" type="line"/>
      <point x="331.895492282" y="574.385130969" type="line"/>
      <point x="331.895492282" y="-89.3202117058" type="line"/>
      <point x="350.674000692" y="-89.3202117058" type="line"/>
      <point x="350.674000692" y="592.858011322" type="line"/>
      <point x="165.045711131" y="592.858011322" type="line"/>
      <point x="50.1402029453" y="592.858011322"/>
      <point x="5.36043409455" y="526.596940057"/>
      <point x="5.36043409455" y="458.71389876" type="curve" smooth="yes"/>
      <point x="5.36043409455" y="408.600617803"/>
      <point x="32.253212606" y="330.210726306"/>
      <point x="137.379528605" y="330.210726306" type="curve" smooth="yes"/>
      <point x="146.998538785" y="330.210726306"/>
      <point x="156.635346965" y="330.985756321"/>
      <point x="167.836761174" y="331.760786336" type="curve"/>
      <point x="167.836761174" y="-89.3202117058" type="line"/>
    </contour>
  </outline>
</glyph>
<glyph name="periodcentered" format="1">
  <advance width="138.811458646"/>
  <unicode hex="00B7"/>
  <outline>
    <contour>
      <point x="70.3927093454" y="214.004164087" type="move" name="_dot"/>
    </contour>
    <contour>
      <point x="92.0059537832" y="213.229134072" type="curve" smooth="yes"/>
      <point x="92.0059537832" y="225.517754307"/>
      <point x="81.7640135784" y="235.824854504"/>
      <point x="69.6015073309" y="235.824854504" type="curve" smooth="yes"/>
      <point x="57.4567990841" y="235.824854504"/>
      <point x="47.2148588793" y="225.517754307"/>
      <point x="47.2148588793" y="213.229134072" type="curve" smooth="yes"/>
      <point x="47.2148588793" y="200.916543837"/>
      <point x="57.4567990841" y="190.60944364"/>
      <point x="69.6015073309" y="190.60944364" type="curve" smooth="yes"/>
      <point x="81.7640135784" y="190.60944364"/>
      <point x="92.0059537832" y="200.916543837"/>
    </contour>
  </outline>
</glyph>
<glyph name="ordmasculine" format="1">
  <advance width="320.773360059"/>
  <unicode hex="00BA"/>
  <outline>
    <contour>
      <point x="284.955693396" y="486.926589299" type="curve" smooth="yes"/>
      <point x="284.955693396" y="557.622110649"/>
      <point x="232.157116396" y="608.031021612"/>
      <point x="160.377781029" y="608.031021612" type="curve" smooth="yes"/>
      <point x="87.8250416488" y="608.031021612"/>
      <point x="35.8176666628" y="557.622110649"/>
      <point x="35.8176666628" y="486.926589299" type="curve" smooth="yes"/>
      <point x="35.8176666628" y="415.480007935"/>
      <point x="87.8250416488" y="365.822156986"/>
      <point x="160.377781029" y="365.822156986" type="curve" smooth="yes"/>
      <point x="232.157116396" y="365.822156986"/>
      <point x="284.955693396" y="415.480007935"/>
    </contour>
    <contour>
      <point x="54.364801064" y="486.878649298" type="curve" smooth="yes"/>
      <point x="54.364801064" y="548.169940469"/>
      <point x="98.9746798903" y="590.548901278"/>
      <point x="160.377781029" y="590.548901278" type="curve" smooth="yes"/>
      <point x="221.780882168" y="590.548901278"/>
      <point x="265.59955898" y="548.169940469"/>
      <point x="265.59955898" y="486.878649298" type="curve" smooth="yes"/>
      <point x="265.59955898" y="424.836298113"/>
      <point x="221.780882168" y="382.457337304"/>
      <point x="160.377781029" y="382.457337304" type="curve" smooth="yes"/>
      <point x="98.9746798903" y="382.457337304"/>
      <point x="54.364801064" y="424.836298113"/>
    </contour>
  </outline>
</glyph>
<glyph name="multiply" format="1">
  <advance width="389.031927353"/>
  <unicode hex="00D7"/>
  <outline>
    <contour>
      <point x="73.6448893721" y="362.458366922" type="line"/>
      <point x="86.483719647" y="375.681817175" type="line"/>
      <point x="315.387037981" y="149.333102852" type="line"/>
      <point x="302.548207706" y="136.109652599" type="line"/>
    </contour>
    <contour>
      <point x="315.387037981" y="362.458366922" type="line"/>
      <point x="302.548207706" y="375.681817175" type="line"/>
      <point x="73.6448893721" y="149.333102852" type="line"/>
      <point x="86.483719647" y="136.109652599" type="line"/>
    </contour>
  </outline>
</glyph>
<glyph name="germandbls" format="1">
  <advance width="528.464697989"/>
  <unicode hex="00DF"/>
  <outline>
    <contour>
      <point x="485.366031189" y="155.461432969" type="curve" smooth="yes"/>
      <point x="485.366031189" y="254.777134866"/>
      <point x="409.968847763" y="311.57804595"/>
      <point x="297.703915632" y="311.57804595" type="curve"/>
      <point x="277.033965233" y="300.751595744" type="line"/>
      <point x="359.276906796" y="300.751595744"/>
      <point x="439.146242315" y="357.672356831"/>
      <point x="439.146242315" y="452.993058651" type="curve" smooth="yes"/>
      <point x="439.146242315" y="534.970460217"/>
      <point x="374.879281095" y="595.422801371"/>
      <point x="271.22858112" y="595.422801371" type="curve" smooth="yes"/>
      <point x="165.506841114" y="595.422801371"/>
      <point x="91.8781317079" y="529.569220113"/>
      <point x="91.8781317079" y="405.029087735" type="curve" smooth="yes"/>
      <point x="91.8781317079" y="0.0" type="line"/>
      <point x="111.724520162" y="0.0" type="line"/>
      <point x="111.724520162" y="404.997127734" type="line" smooth="yes"/>
      <point x="111.724520162" y="520.077099932"/>
      <point x="176.310227359" y="576.52645101"/>
      <point x="272.037581136" y="576.52645101" type="curve" smooth="yes"/>
      <point x="364.51113685" y="576.52645101"/>
      <point x="419.566823872" y="524.727280021"/>
      <point x="419.566823872" y="452.465718641" type="curve" smooth="yes"/>
      <point x="419.566823872" y="367.004677009"/>
      <point x="357.301328716" y="312.880415975"/>
      <point x="252.043954764" y="312.832475974" type="curve"/>
      <point x="252.043954764" y="294.032005615" type="line"/>
      <point x="300.441571673" y="294.032005615" type="line" smooth="yes"/>
      <point x="397.066915468" y="294.032005615"/>
      <point x="465.573036737" y="243.99862466"/>
      <point x="465.573036737" y="155.605252972" type="curve" smooth="yes"/>
      <point x="465.573036737" y="67.1879112831"/>
      <point x="393.848713408" y="16.3795003128"/>
      <point x="299.792753665" y="16.3795003128" type="curve" smooth="yes"/>
      <point x="269.299925095" y="16.3795003128"/>
      <point x="243.607702614" y="20.3505303886"/>
      <point x="219.497884163" y="28.2925905403" type="curve"/>
      <point x="214.35911606" y="9.44418018036" type="line"/>
      <point x="238.575722516" y="1.45418002777"/>
      <point x="269.584693106" y="-2.56479004898"/>
      <point x="300.397885689" y="-2.56479004898" type="curve" smooth="yes"/>
      <point x="404.430433662" y="-2.56479004898"/>
      <point x="485.366031189" y="57.5280010986"/>
    </contour>
  </outline>
</glyph>
<glyph name="eth" format="1">
  <advance width="466.171696814"/>
  <unicode hex="00F0"/>
  <outline>
    <contour>
      <point x="418.974635936" y="183.194723499" type="curve" smooth="yes"/>
      <point x="418.974635936" y="335.196486401"/>
      <point x="308.01704784" y="495.971269472"/>
      <point x="137.104468612" y="593.097711327" type="curve"/>
      <point x="124.922546328" y="577.013841019" type="line"/>
      <point x="255.998346801" y="506.645909676"/>
      <point x="363.59534883" y="380.363957264"/>
      <point x="396.843631442" y="253.93818485" type="curve"/>
      <point x="370.955630953" y="312.640715971"/>
      <point x="305.853781735" y="350.201706688"/>
      <point x="231.275306342" y="350.201706688" type="curve" smooth="yes"/>
      <point x="119.633304237" y="350.201706688"/>
      <point x="47.6323028787" y="282.23876539"/>
      <point x="47.6323028787" y="177.49785339" type="curve" smooth="yes"/>
      <point x="47.6323028787" y="69.4171213257"/>
      <point x="118.389062221" y="-0.263670005035"/>
      <point x="227.38239829" y="-0.263670005035" type="curve" smooth="yes"/>
      <point x="343.959300508" y="-0.263670005035"/>
      <point x="418.974635936" y="71.686281369"/>
    </contour>
    <contour>
      <point x="67.2829133246" y="179.311583424" type="curve" smooth="yes"/>
      <point x="67.2829133246" y="271.675985188"/>
      <point x="131.833024521" y="331.153546324"/>
      <point x="232.254196382" y="331.153546324" type="curve" smooth="yes"/>
      <point x="333.502166259" y="331.153546324"/>
      <point x="398.861277471" y="269.326925143"/>
      <point x="398.861277471" y="173.087373306" type="curve" smooth="yes"/>
      <point x="398.861277471" y="79.9479415268"/>
      <point x="333.502166259" y="19.6713803757"/>
      <point x="231.480792368" y="19.6713803757" type="curve" smooth="yes"/>
      <point x="131.850822522" y="19.6713803757"/>
      <point x="67.2829133246" y="82.2730315712"/>
    </contour>
    <contour>
      <point x="376.222221132" y="537.77495027" type="line"/>
      <point x="368.442876974" y="554.370180587" type="line"/>
      <point x="109.729526046" y="435.574858318" type="line"/>
      <point x="117.508870203" y="419.027568002" type="line"/>
    </contour>
  </outline>
</glyph>
<glyph name="divide" format="1">
  <advance width="389.031927353"/>
  <unicode hex="00F7"/>
  <outline>
    <contour>
      <point x="356.84990675" y="246.467534707" type="line"/>
      <point x="356.84990675" y="265.323935067" type="line"/>
      <point x="32.1820206031" y="265.323935067" type="line"/>
      <point x="32.1820206031" y="246.467534707" type="line"/>
    </contour>
    <component base="dotaccentcomb" xScale="0.995599999905" yScale="0.994" xOffset="132.37343649" yOffset="-133.824512556"/>
    <component base="dotaccentcomb" xScale="0.995599999905" yScale="0.994" xOffset="132.37343649" yOffset="-413.714217901"/>
  </outline>
</glyph>
<glyph name="Dcroat" format="1">
  <advance width="668.589972618"/>
  <unicode hex="0110"/>
  <outline>
    <contour>
      <point x="311.668873865" y="558.548950667" type="move" name="top"/>
    </contour>
    <contour>
      <point x="166.226851126" y="279.673975341" type="move" name="center"/>
    </contour>
    <contour>
      <point x="339.574520383" y="0.0" type="move" name="bottom"/>
    </contour>
    <component base="Eth"/>
  </outline>
</glyph>
<glyph name="eng" format="1">
  <advance width="541.017142217"/>
  <unicode hex="014B"/>
  <outline>
    <contour>
      <point x="453.921818598" y="-53.5809410233" type="curve" smooth="yes"/>
      <point x="453.921818598" y="243.862794657" type="line" smooth="yes"/>
      <point x="453.921818598" y="356.489836808"/>
      <point x="388.881453365" y="416.366897952"/>
      <point x="286.156249427" y="416.366897952" type="curve" smooth="yes"/>
      <point x="169.313995234" y="416.366897952"/>
      <point x="98.7352158981" y="340.214206497"/>
      <point x="98.3792558837" y="230.463564401" type="curve"/>
      <point x="111.724520162" y="223.943724277" type="line"/>
      <point x="111.724520162" y="327.414226253"/>
      <point x="177.297207382" y="397.087027583"/>
      <point x="285.719389392" y="397.087027583" type="curve" smooth="yes"/>
      <point x="379.019743123" y="397.087027583"/>
      <point x="434.075430144" y="343.761766565"/>
      <point x="434.075430144" y="242.927964639" type="curve" smooth="yes"/>
      <point x="434.075430144" y="-49.6578509483" type="line" smooth="yes"/>
      <point x="434.075430144" y="-107.289722049"/>
      <point x="405.236197607" y="-138.74635265"/>
      <point x="351.745116613" y="-138.74635265" type="curve" smooth="yes"/>
      <point x="322.941480077" y="-138.74635265"/>
      <point x="298.093853613" y="-130.101172485"/>
      <point x="280.420439283" y="-113.63378217" type="curve"/>
      <point x="268.38251904" y="-128.247492449" type="line"/>
      <point x="287.994297414" y="-148.054702827"/>
      <point x="320.550076032" y="-157.570793009"/>
      <point x="353.141450652" y="-157.570793009" type="curve" smooth="yes"/>
      <point x="418.33390791" y="-157.570793009"/>
      <point x="453.921818598" y="-115.862992213"/>
    </contour>
    <contour>
      <point x="111.724520162" y="0.0" type="line"/>
      <point x="111.724520162" y="252.539934823" type="line"/>
      <point x="111.528742154" y="269.14315514" type="line"/>
      <point x="111.528742154" y="413.802107903" type="line"/>
      <point x="91.8781317079" y="413.802107903" type="line"/>
      <point x="91.8781317079" y="0.0" type="line"/>
    </contour>
  </outline>
</glyph>
<glyph name="OE" format="1">
  <advance width="900.213148992"/>
  <unicode hex="0152"/>
  <outline>
    <contour>
      <point x="475.986485002" y="559.300010681" type="move" name="top"/>
    </contour>
    <contour>
      <point x="475.986485002" y="0.0" type="move" name="bottom"/>
    </contour>
    <contour>
      <point x="471.824988903" y="0.0" type="line"/>
      <point x="471.824988903" y="19.1360503654" type="line"/>
      <point x="346.358794535" y="19.1360503654" type="line" smooth="yes"/>
      <point x="177.653167396" y="19.1360503654"/>
      <point x="67.2570253411" y="128.27945245"/>
      <point x="67.2570253411" y="278.874975326" type="curve" smooth="yes"/>
      <point x="67.2570253411" y="429.470498202"/>
      <point x="177.653167396" y="540.163960316"/>
      <point x="346.358794535" y="540.163960316" type="curve" smooth="yes"/>
      <point x="471.824988903" y="540.163960316" type="line"/>
      <point x="471.824988903" y="559.300010681" type="line"/>
      <point x="346.180814528" y="559.300010681" type="line" smooth="yes"/>
      <point x="167.951639161" y="559.300010681"/>
      <point x="47.1970608786" y="440.632528415"/>
      <point x="47.1970608786" y="278.874975326" type="curve" smooth="yes"/>
      <point x="47.1970608786" y="117.117422237"/>
      <point x="167.951639161" y="0.0"/>
      <point x="346.180814528" y="0.0" type="curve" smooth="yes"/>
    </contour>
    <contour>
      <point x="845.068471967" y="0.0" type="line"/>
      <point x="845.068471967" y="18.9922303627" type="line"/>
      <point x="485.963073231" y="18.9922303627" type="line"/>
      <point x="485.963073231" y="274.632285245" type="line"/>
      <point x="796.635259056" y="274.632285245" type="line"/>
      <point x="796.635259056" y="293.432755604" type="line"/>
      <point x="485.963073231" y="293.432755604" type="line"/>
      <point x="485.963073231" y="540.307780318" type="line"/>
      <point x="832.969067739" y="540.307780318" type="line"/>
      <point x="832.969067739" y="559.300010681" type="line"/>
      <point x="466.009896773" y="559.300010681" type="line"/>
      <point x="466.009896773" y="0.0" type="line"/>
    </contour>
  </outline>
</glyph>
<glyph name="florin" format="1">
  <advance width="253.174936827"/>
  <unicode hex="0192"/>
  <outline>
    <contour>
      <point x="70.4218333992" y="-32.9827206299" type="curve" smooth="yes"/>
      <point x="133.328056581" y="477.770049124" type="line" smooth="yes"/>
      <point x="141.31126873" y="541.242610336"/>
      <point x="180.471723458" y="581.975631114"/>
      <point x="231.678188411" y="581.176631099" type="curve" smooth="yes"/>
      <point x="254.907814845" y="580.401601084"/>
      <point x="282.182441354" y="570.158420889"/>
      <point x="300.6648557" y="555.145210602" type="curve"/>
      <point x="313.058735957" y="571.237070909" type="line"/>
      <point x="291.77556355" y="588.087981231"/>
      <point x="260.553016951" y="600.07298146"/>
      <point x="232.584268413" y="600.848011475" type="curve" smooth="yes"/>
      <point x="170.121377214" y="601.64701149"/>
      <point x="123.349850317" y="553.395400568"/>
      <point x="113.606254133" y="478.58502914" type="curve" smooth="yes"/>
      <point x="50.6822329498" y="-32.1677406143" type="line" smooth="yes"/>
      <point x="42.6990208015" y="-95.6403018265"/>
      <point x="19.4337983669" y="-136.373322604"/>
      <point x="-31.6658785822" y="-135.574322589" type="curve" smooth="yes"/>
      <point x="-52.5218989717" y="-134.799292574"/>
      <point x="-76.631717423" y="-124.556112379"/>
      <point x="-91.93152571" y="-109.542902092" type="curve"/>
      <point x="-103.969445953" y="-125.634762399" type="line"/>
      <point x="-85.2200615958" y="-142.485672721"/>
      <point x="-57.3403030618" y="-154.47067295"/>
      <point x="-32.7499385911" y="-155.245702965" type="curve" smooth="yes"/>
      <point x="30.5219526235" y="-156.04470298"/>
      <point x="60.6782372147" y="-107.793092059"/>
    </contour>
    <contour>
      <point x="253.449996821" y="350.353516691" type="line"/>
      <point x="255.334966862" y="369.257857052" type="line"/>
      <point x="47.9526668917" y="369.257857052" type="line"/>
      <point x="46.0676968504" y="350.353516691" type="line"/>
    </contour>
  </outline>
</glyph>
<glyph name="tildecomb" format="1">
  <advance width="485.400009155"/>
  <unicode hex="0303"/>
  <outline>
    <contour>
      <point x="242.700004578" y="413.802107903" type="move" name="_top"/>
    </contour>
    <contour>
      <point x="242.700004578" y="521.747009964" type="move" name="top"/>
    </contour>
    <contour>
      <point x="354.201240713" y="563.231090756" type="curve"/>
      <point x="337.264016359" y="563.231090756" type="line"/>
      <point x="335.646016329" y="532.333760166"/>
      <point x="319.519410026" y="511.751519773"/>
      <point x="293.738197542" y="511.751519773" type="curve" smooth="yes"/>
      <point x="257.493378862" y="511.751519773"/>
      <point x="237.828206485" y="566.642820821"/>
      <point x="191.412639603" y="566.642820821" type="curve" smooth="yes"/>
      <point x="155.878122917" y="566.642820821"/>
      <point x="132.816768473" y="538.661840287"/>
      <point x="131.198768443" y="495.843429469" type="curve"/>
      <point x="148.135992796" y="495.843429469" type="line"/>
      <point x="149.753992826" y="528.33876009"/>
      <point x="165.880599129" y="548.944970483"/>
      <point x="191.661811613" y="548.944970483" type="curve" smooth="yes"/>
      <point x="227.906630294" y="548.944970483"/>
      <point x="247.57180267" y="494.053669435"/>
      <point x="293.987369552" y="494.053669435" type="curve" smooth="yes"/>
      <point x="329.521886238" y="494.053669435"/>
      <point x="352.583240682" y="522.034649969"/>
    </contour>
  </outline>
</glyph>
<glyph name="Delta" format="1">
  <advance width="556.985184549"/>
  <unicode hex="0394"/>
  <outline>
    <contour>
      <point x="30.9588126588" y="0.0" type="line"/>
      <point x="276.883491244" y="535.186190221" type="line"/>
      <point x="526.657391898" y="0.0" type="line"/>
      <point x="549.251144411" y="0.0" type="line"/>
      <point x="287.829261495" y="558.548950667" type="line"/>
      <point x="266.186893004" y="558.548950667" type="line"/>
      <point x="7.73404013816" y="0.0" type="line"/>
    </contour>
    <contour>
      <point x="532.729746022" y="0.0" type="line"/>
      <point x="532.729746022" y="19.479620372" type="line"/>
      <point x="23.1616705005" y="19.479620372" type="line"/>
      <point x="23.1616705005" y="0.0" type="line"/>
    </contour>
  </outline>
</glyph>
<glyph name="Omega" format="1">
  <advance width="733.201567799"/>
  <unicode hex="03A9"/>
  <outline>
    <contour>
      <point x="9.04138417362" y="558.548950667" type="move" name="topleft"/>
    </contour>
    <contour>
      <point x="251.137874762" y="0.0" type="line"/>
      <point x="251.137874762" y="20.4384203903" type="line"/>
      <point x="160.468389068" y="66.2051412643"/>
      <point x="95.5979138587" y="176.291363367"/>
      <point x="95.5979138587" y="282.598315397" type="curve" smooth="yes"/>
      <point x="95.5979138587" y="430.389348219"/>
      <point x="209.878873984" y="538.80566029"/>
      <point x="366.591884899" y="538.80566029" type="curve" smooth="yes"/>
      <point x="523.304895815" y="538.80566029"/>
      <point x="637.603653941" y="430.389348219"/>
      <point x="637.603653941" y="282.598315397" type="curve" smooth="yes"/>
      <point x="637.603653941" y="176.315333367"/>
      <point x="572.750976732" y="67.0281112801"/>
      <point x="482.854895052" y="21.2134504051" type="curve"/>
      <point x="482.854895052" y="0.0" type="line"/>
      <point x="729.965567738" y="0.0" type="line"/>
      <point x="729.965567738" y="19.8152003784" type="line"/>
      <point x="516.586959753" y="19.8152003784" type="line"/>
      <point x="599.397819304" y="74.7544414276"/>
      <point x="657.076284379" y="181.253153461"/>
      <point x="657.076284379" y="283.245505409" type="curve" smooth="yes"/>
      <point x="657.076284379" y="440.848258419"/>
      <point x="533.19249404" y="558.788650671"/>
      <point x="366.591884899" y="558.788650671" type="curve" smooth="yes"/>
      <point x="200.009073759" y="558.788650671"/>
      <point x="76.12528342" y="440.848258419"/>
      <point x="76.12528342" y="283.26947541" type="curve" smooth="yes"/>
      <point x="76.12528342" y="181.253153461"/>
      <point x="133.803748496" y="74.7544414276"/>
      <point x="216.632406047" y="19.8152003784" type="curve"/>
      <point x="3.23600006104" y="19.8152003784" type="line"/>
      <point x="3.23600006104" y="0.0" type="line"/>
    </contour>
  </outline>
</glyph>
<glyph name="mu" format="1">
  <advance width="555.365566483"/>
  <unicode hex="03BC"/>
  <outline>
    <contour>
      <point x="111.706722161" y="-155.00600296" type="line"/>
      <point x="111.706722161" y="413.802107903" type="line"/>
      <point x="91.8781317079" y="413.802107903" type="line"/>
      <point x="91.8781317079" y="-155.00600296" type="line"/>
    </contour>
    <component base="u" xOffset="17.584424327"/>
  </outline>
</glyph>
<glyph name="figuredash" format="1">
  <advance width="499.153009415"/>
  <unicode hex="2012"/>
  <outline>
    <contour>
      <point x="499.153009415" y="230.487534402" type="line"/>
      <point x="499.153009415" y="249.343934762" type="line"/>
      <point x="0.0" y="249.343934762" type="line"/>
      <point x="0.0" y="230.487534402" type="line"/>
    </contour>
  </outline>
</glyph>
<glyph name="endash" format="1">
  <advance width="323.777986111"/>
  <unicode hex="2013"/>
  <outline>
    <contour>
      <point x="323.777986111" y="230.487534402" type="line"/>
      <point x="323.777986111" y="249.343934762" type="line"/>
      <point x="0.0" y="249.343934762" type="line"/>
      <point x="0.0" y="230.487534402" type="line"/>
    </contour>
  </outline>
</glyph>
<glyph name="emdash" format="1">
  <advance width="612.170311488"/>
  <unicode hex="2014"/>
  <outline>
    <contour>
      <point x="612.170311488" y="230.487534402" type="line"/>
      <point x="612.170311488" y="249.343934762" type="line"/>
      <point x="0.0" y="249.343934762" type="line"/>
      <point x="0.0" y="230.487534402" type="line"/>
    </contour>
  </outline>
</glyph>
<glyph name="dagger" format="1">
  <advance width="390.598151417"/>
  <unicode hex="2020"/>
  <outline>
    <contour>
      <point x="205.151077932" y="-154.790272956" type="line"/>
      <point x="205.151077932" y="349.626426677" type="line"/>
      <point x="382.330171257" y="349.626426677" type="line"/>
      <point x="382.330171257" y="369.345747054" type="line"/>
      <point x="205.151077932" y="369.345747054" type="line"/>
      <point x="205.151077932" y="558.501010666" type="line"/>
      <point x="185.322487479" y="558.501010666" type="line"/>
      <point x="185.322487479" y="369.345747054" type="line"/>
      <point x="8.2679801598" y="369.345747054" type="line"/>
      <point x="8.2679801598" y="349.626426677" type="line"/>
      <point x="185.322487479" y="349.626426677" type="line"/>
      <point x="185.322487479" y="-154.790272956" type="line"/>
    </contour>
  </outline>
</glyph>
<glyph name="daggerdbl" format="1">
  <advance width="390.598151417"/>
  <unicode hex="2021"/>
  <outline>
    <contour>
      <point x="205.151077932" y="-154.790272956" type="line"/>
      <point x="205.151077932" y="349.626426677" type="line"/>
      <point x="382.330171257" y="349.626426677" type="line"/>
      <point x="382.330171257" y="369.345747054" type="line"/>
      <point x="205.151077932" y="369.345747054" type="line"/>
      <point x="205.151077932" y="558.501010666" type="line"/>
      <point x="185.322487479" y="558.501010666" type="line"/>
      <point x="185.322487479" y="369.345747054" type="line"/>
      <point x="8.2679801598" y="369.345747054" type="line"/>
      <point x="8.2679801598" y="349.626426677" type="line"/>
      <point x="185.322487479" y="349.626426677" type="line"/>
      <point x="185.322487479" y="-154.790272956" type="line"/>
    </contour>
    <contour>
      <point x="382.330171257" y="63.1849212067" type="line"/>
      <point x="382.330171257" y="82.9042415833" type="line"/>
      <point x="8.2679801598" y="82.9042415833" type="line"/>
      <point x="8.2679801598" y="63.1849212067" type="line"/>
    </contour>
  </outline>
</glyph>
<glyph name="bullet" format="1">
  <advance width="161.625259115"/>
  <unicode hex="2022"/>
  <outline>
    <contour>
      <point x="114.410400235" y="216.065584126" type="curve" smooth="yes"/>
      <point x="114.410400235" y="234.498514478"/>
      <point x="99.0474899283" y="249.959164774"/>
      <point x="80.7948315567" y="249.959164774" type="curve" smooth="yes"/>
      <point x="62.5777691865" y="249.959164774"/>
      <point x="47.2148588793" y="234.498514478"/>
      <point x="47.2148588793" y="216.065584126" type="curve" smooth="yes"/>
      <point x="47.2148588793" y="197.584713773"/>
      <point x="62.5777691865" y="182.124063478"/>
      <point x="80.7948315567" y="182.124063478" type="curve" smooth="yes"/>
      <point x="99.0474899283" y="182.124063478"/>
      <point x="114.410400235" y="197.584713773"/>
    </contour>
  </outline>
</glyph>
<glyph name="minute" format="1">
  <advance width="95.4911258543"/>
  <unicode hex="2032"/>
  <outline>
    <contour>
      <point x="40.8965688161" y="366.645127002" type="line"/>
      <point x="58.3483171553" y="558.548950667" type="line"/>
      <point x="39.7833847535" y="558.548950667" type="line"/>
      <point x="26.0303844941" y="366.645127002" type="line"/>
    </contour>
  </outline>
</glyph>
<glyph name="guilsinglleft" format="1">
  <advance width="217.114570102"/>
  <unicode hex="2039"/>
  <outline>
    <contour>
      <point x="156.227610984" y="74.722481427" type="line"/>
      <point x="68.8912053372" y="197.976223781" type="line"/>
      <point x="156.227610984" y="323.507116178" type="line"/>
      <point x="134.035122505" y="323.507116178" type="line"/>
      <point x="45.5871508309" y="197.976223781" type="line"/>
      <point x="134.035122505" y="74.722481427" type="line"/>
    </contour>
  </outline>
</glyph>
<glyph name="fraction" format="1">
  <advance width="18.493740399"/>
  <unicode hex="2044"/>
  <outline>
    <contour>
      <point x="-202.63832376" y="0.0" type="line"/>
      <point x="231.695986412" y="558.548950667" type="line"/>
      <point x="208.472831927" y="558.548950667" type="line"/>
      <point x="-225.861478246" y="0.0" type="line"/>
    </contour>
  </outline>
</glyph>
<glyph name="franc" format="1">
  <advance width="443.236546411"/>
  <unicode hex="20A3"/>
  <outline>
    <contour>
      <point x="122.917844387" y="0.0" type="line"/>
      <point x="122.917844387" y="265.435795069" type="line"/>
      <point x="113.999428184" y="256.03955489" type="line"/>
      <point x="398.252909569" y="256.03955489" type="line"/>
      <point x="398.252909569" y="275.519175262" type="line"/>
      <point x="113.999428184" y="275.519175262" type="line"/>
      <point x="122.917844387" y="266.122935082" type="line"/>
      <point x="122.917844387" y="548.22587047" type="line"/>
      <point x="113.999428184" y="538.82963029" type="line"/>
      <point x="435.021960253" y="538.82963029" type="line"/>
      <point x="435.021960253" y="558.548950667" type="line"/>
      <point x="102.964667929" y="558.548950667" type="line"/>
      <point x="102.964667929" y="0.0" type="line"/>
    </contour>
    <contour>
      <point x="310.018513904" y="122.918162347" type="line"/>
      <point x="310.018513904" y="140.096662675" type="line"/>
      <point x="30.5106265705" y="140.096662675" type="line"/>
      <point x="30.5106265705" y="122.918162347" type="line"/>
    </contour>
  </outline>
</glyph>
<glyph name="lira" format="1">
  <advance width="431.171120149"/>
  <unicode hex="20A4"/>
  <outline>
    <contour>
      <point x="391.344049412" y="0.0" type="line"/>
      <point x="391.344049412" y="19.6474103752" type="line"/>
      <point x="137.088288646" y="19.6474103752" type="line"/>
      <point x="137.088288646" y="400.06729764" type="line" smooth="yes"/>
      <point x="137.088288646" y="490.154549361"/>
      <point x="180.133561444" y="538.661840287"/>
      <point x="258.294288894" y="538.661840287" type="curve" smooth="yes"/>
      <point x="308.745147835" y="538.661840287"/>
      <point x="353.746582677" y="513.381479804"/>
      <point x="386.951179304" y="465.944848898" type="curve"/>
      <point x="399.523039568" y="480.870169183" type="line"/>
      <point x="363.677866886" y="530.96747014"/>
      <point x="313.163905926" y="558.788650671"/>
      <point x="257.849338876" y="558.788650671" type="curve" smooth="yes"/>
      <point x="167.071447143" y="558.788650671"/>
      <point x="117.117314187" y="502.379249594"/>
      <point x="117.117314187" y="400.187147643" type="curve" smooth="yes"/>
      <point x="117.117314187" y="0.0" type="line"/>
    </contour>
    <contour>
      <point x="175.2860333" y="0.0" type="line"/>
      <point x="175.2860333" y="19.6474103752" type="line"/>
      <point x="41.4984647704" y="19.6474103752" type="line"/>
      <point x="41.4984647704" y="0.0" type="line"/>
    </contour>
    <contour>
      <point x="291.037755538" y="221.019384221" type="line"/>
      <point x="291.037755538" y="238.197884549" type="line"/>
      <point x="41.4984647704" y="238.197884549" type="line"/>
      <point x="41.4984647704" y="221.019384221" type="line"/>
    </contour>
    <contour>
      <point x="291.037755538" y="309.029235902" type="line"/>
      <point x="291.037755538" y="326.20773623" type="line"/>
      <point x="41.4984647704" y="326.20773623" type="line"/>
      <point x="41.4984647704" y="309.029235902" type="line"/>
    </contour>
  </outline>
</glyph>
<glyph name="peseta" format="1">
  <advance width="1089.15833864"/>
  <unicode hex="20A7"/>
  <outline>
    <contour>
      <point x="121.582994333" y="0.0" type="line"/>
      <point x="121.582994333" y="190.369743636" type="line"/>
      <point x="263.031792963" y="190.369743636" type="line" smooth="yes"/>
      <point x="400.63298756" y="190.369743636"/>
      <point x="479.177181043" y="258.524444937"/>
      <point x="479.177181043" y="376.432877189" type="curve" smooth="yes"/>
      <point x="479.177181043" y="491.968279395"/>
      <point x="400.63298756" y="558.548950667"/>
      <point x="263.031792963" y="558.548950667" type="curve" smooth="yes"/>
      <point x="102.163757897" y="558.548950667" type="line"/>
      <point x="102.163757897" y="0.0" type="line"/>
    </contour>
    <contour>
      <point x="121.582994333" y="539.548730304" type="line"/>
      <point x="262.604640946" y="539.548730304" type="line" smooth="yes"/>
      <point x="388.051419278" y="539.548730304"/>
      <point x="459.971520615" y="480.438709175"/>
      <point x="459.971520615" y="376.432877189" type="curve" smooth="yes"/>
      <point x="459.971520615" y="270.054015157"/>
      <point x="388.051419278" y="209.369963998"/>
      <point x="262.604640946" y="209.369963998" type="curve" smooth="yes"/>
      <point x="121.582994333" y="209.369963998" type="line"/>
    </contour>
    <contour>
      <point x="747.687522159" y="29.2513905586" type="curve"/>
      <point x="737.516773957" y="45.3432508659" type="line"/>
      <point x="716.607359565" y="28.851890551"/>
      <point x="691.021925089" y="20.2067103859"/>
      <point x="665.36529861" y="19.4316803711" type="curve"/>
      <point x="618.168237732" y="18.6566503563"/>
      <point x="593.320611268" y="52.414401001"/>
      <point x="593.320611268" y="115.1838422" type="curve"/>
      <point x="593.320611268" y="504.328809631" type="line"/>
      <point x="574.043758837" y="504.328809631" type="line"/>
      <point x="574.043758837" y="114.272982182" type="line"/>
      <point x="574.043758837" y="38.6875807388"/>
      <point x="605.390891442" y="-1.01473001938"/>
      <point x="664.350812569" y="-0.239700004578" type="curve"/>
      <point x="694.604177147" y="0.535330010223"/>
      <point x="723.346329698" y="10.9223302086"/>
    </contour>
    <contour>
      <point x="739.597522006" y="386.572187383" type="line"/>
      <point x="739.597522006" y="405.332707741" type="line"/>
      <point x="512.577555678" y="405.332707741" type="line"/>
      <point x="512.577555678" y="386.572187383" type="line"/>
    </contour>
    <contour>
      <point x="1058.64771207" y="107.737162057" type="curve" smooth="yes"/>
      <point x="1058.64771207" y="251.629074805"/>
      <point x="808.063193361" y="193.773483701"/>
      <point x="808.063193361" y="315.557066026" type="curve" smooth="yes"/>
      <point x="808.063193361" y="370.288567072"/>
      <point x="859.020486304" y="395.35319755"/>
      <point x="923.606193502" y="395.35319755" type="curve" smooth="yes"/>
      <point x="964.740608275" y="395.35319755"/>
      <point x="999.509810931" y="384.89428735"/>
      <point x="1026.79414546" y="367.851617025" type="curve"/>
      <point x="1035.80964165" y="384.071317335" type="line"/>
      <point x="1004.48030704" y="401.960927676"/>
      <point x="967.737144344" y="414.041807907"/>
      <point x="922.63701148" y="414.041807907" type="curve" smooth="yes"/>
      <point x="849.941888094" y="414.041807907"/>
      <point x="789.124502944" y="382.2336173"/>
      <point x="789.124502944" y="313.863185994" type="curve" smooth="yes"/>
      <point x="789.124502944" y="174.597483334"/>
      <point x="1044.34944573" y="228.434104362"/>
      <point x="1039.60223364" y="103.67025198" type="curve" smooth="yes"/>
      <point x="1037.2286276" y="45.0396308601"/>
      <point x="981.559718571" y="18.4968503532"/>
      <point x="917.027405376" y="18.4968503532" type="curve" smooth="yes"/>
      <point x="862.282374349" y="18.4968503532"/>
      <point x="813.831363437" y="37.4810907158"/>
      <point x="777.790412748" y="71.5744213669" type="curve"/>
      <point x="766.508098518" y="57.0006610886" type="line"/>
      <point x="804.095857235" y="20.4384203903"/>
      <point x="858.530232267" y="-0.239700004578"/>
      <point x="917.098597379" y="-0.239700004578" type="curve" smooth="yes"/>
      <point x="990.673912783" y="-0.239700004578"/>
      <point x="1058.64771207" y="33.1664906334"/>
    </contour>
  </outline>
</glyph>
<glyph name="dong" format="1">
  <advance width="541.648162225"/>
  <unicode hex="20AB"/>
  <outline>
    <contour>
      <point x="449.909178453" y="206.573463945" type="curve"/>
      <point x="449.909178453" y="327.653926257"/>
      <point x="363.755530837" y="415.543927936"/>
      <point x="245.944094621" y="415.543927936" type="curve" smooth="yes"/>
      <point x="127.776698392" y="415.543927936"/>
      <point x="41.4094747668" y="327.677896258"/>
      <point x="41.4094747668" y="206.597433945" type="curve" smooth="yes"/>
      <point x="41.4094747668" y="86.1961216461"/>
      <point x="127.830092394" y="-1.74182003326"/>
      <point x="246.050882626" y="-1.74182003326" type="curve" smooth="yes"/>
      <point x="363.808924839" y="-1.74182003326"/>
      <point x="449.909178453" y="86.1961216461"/>
    </contour>
    <contour>
      <point x="431.064332145" y="-72.0937713768" type="line"/>
      <point x="431.064332145" y="-54.6755710442" type="line"/>
      <point x="106.396445998" y="-54.6755710442" type="line"/>
      <point x="106.396445998" y="-72.0937713768" type="line"/>
    </contour>
    <contour>
      <point x="61.2736612213" y="206.453613943" type="curve" smooth="yes"/>
      <point x="61.2736612213" y="315.716866029"/>
      <point x="139.380994669" y="395.776667558"/>
      <point x="247.083166668" y="395.776667558" type="curve" smooth="yes"/>
      <point x="354.767540666" y="395.776667558"/>
      <point x="432.874874113" y="315.716866029"/>
      <point x="432.874874113" y="206.453613943" type="curve" smooth="yes"/>
      <point x="432.874874113" y="97.1903618561"/>
      <point x="354.767540666" y="17.9055903419"/>
      <point x="247.083166668" y="17.9055903419" type="curve" smooth="yes"/>
      <point x="139.380994669" y="17.9055903419"/>
      <point x="61.2736612213" y="97.1903618561"/>
    </contour>
    <contour>
      <point x="452.703464566" y="0.0" type="line"/>
      <point x="452.703464566" y="592.858011322" type="line"/>
      <point x="432.874874113" y="592.858011322" type="line"/>
      <point x="432.874874113" y="0.0" type="line"/>
    </contour>
    <contour>
      <point x="513.956091717" y="478.385279136" type="line"/>
      <point x="513.956091717" y="495.803479469" type="line"/>
      <point x="288.554125419" y="495.803479469" type="line"/>
      <point x="288.554125419" y="478.385279136" type="line"/>
    </contour>
  </outline>
</glyph>
<glyph name="trademark" format="1">
  <advance width="694.452085123"/>
  <unicode hex="2122"/>
  <outline>
    <contour>
      <point x="327.442756224" y="223.720004272" type="line"/>
      <point x="327.442756224" y="538.334250281" type="line"/>
      <point x="468.446604836" y="260.330184972" type="line"/>
      <point x="478.334203062" y="260.330184972" type="line"/>
      <point x="619.338051674" y="538.334250281" type="line"/>
      <point x="620.129253688" y="223.720004272" type="line"/>
      <point x="638.516206083" y="223.720004272" type="line"/>
      <point x="638.516206083" y="558.548950667" type="line"/>
      <point x="609.309687478" y="558.548950667" type="line"/>
      <point x="474.172706963" y="289.661475532" type="line" smooth="yes"/>
      <point x="337.47112042" y="558.548950667" type="line"/>
      <point x="309.05580383" y="558.548950667" type="line"/>
      <point x="309.05580383" y="223.720004272" type="line"/>
    </contour>
    <contour>
      <point x="131.850822522" y="223.720004272" type="line"/>
      <point x="131.850822522" y="539.980190312" type="line"/>
      <point x="245.225702645" y="539.980190312" type="line"/>
      <point x="245.225702645" y="558.548950667" type="line"/>
      <point x="-0.195778007936" y="558.548950667" type="line"/>
      <point x="-0.195778007936" y="539.980190312" type="line"/>
      <point x="113.161304115" y="539.980190312" type="line"/>
      <point x="113.161304115" y="223.720004272" type="line"/>
    </contour>
  </outline>
</glyph>
<glyph name="estimated" format="1">
  <advance width="654.481012344"/>
  <unicode hex="212E"/>
  <outline>
    <contour>
      <point x="542.030010223" y="107.86500206" type="curve" smooth="yes"/>
      <point x="502.389009476" y="107.86500206" type="line"/>
      <point x="461.130008698" y="59.9250011444"/>
      <point x="398.028007507" y="28.7640005493"/>
      <point x="328.454006195" y="28.7640005493" type="curve" smooth="yes"/>
      <point x="262.925004959" y="28.7640005493"/>
      <point x="203.05900383" y="55.9300010681"/>
      <point x="161.800003052" y="99.8750019073" type="curve" smooth="yes"/>
      <point x="158.564002991" y="103.870001984"/>
      <point x="155.32800293" y="108.664002075"/>
      <point x="155.32800293" y="115.056002197" type="curve" smooth="yes"/>
      <point x="155.32800293" y="246.0920047" type="line"/>
      <point x="155.32800293" y="248.489004745"/>
      <point x="156.94600296" y="249.288004761"/>
      <point x="159.373003006" y="249.288004761" type="curve" smooth="yes"/>
      <point x="598.660011292" y="249.288004761" type="line"/>
      <point x="598.660011292" y="254.881004868" type="line"/>
      <point x="598.660011292" y="388.314007416"/>
      <point x="477.310009003" y="496.179009476"/>
      <point x="327.64500618" y="496.179009476" type="curve" smooth="yes"/>
      <point x="177.980003357" y="496.179009476"/>
      <point x="56.6300010681" y="388.314007416"/>
      <point x="56.6300010681" y="254.881004868" type="curve" smooth="yes"/>
      <point x="56.6300010681" y="122.247002335"/>
      <point x="177.980003357" y="14.3820002747"/>
      <point x="327.64500618" y="14.3820002747" type="curve" smooth="yes"/>
      <point x="414.208007812" y="14.3820002747"/>
      <point x="493.490009308" y="51.9350009918"/>
    </contour>
    <contour>
      <point x="155.32800293" y="266.067005081" type="curve" smooth="yes"/>
      <point x="155.32800293" y="395.505007553" type="line"/>
      <point x="155.32800293" y="401.897007675"/>
      <point x="158.564002991" y="407.490007782"/>
      <point x="162.609003067" y="411.485007858" type="curve" smooth="yes"/>
      <point x="204.67700386" y="454.631008682"/>
      <point x="262.925004959" y="481.797009201"/>
      <point x="328.454006195" y="481.797009201" type="curve" smooth="yes"/>
      <point x="392.365007401" y="481.797009201"/>
      <point x="450.613008499" y="455.430008698"/>
      <point x="492.681009293" y="413.882007904" type="curve" smooth="yes"/>
      <point x="496.726009369" y="409.887007828"/>
      <point x="499.96200943" y="404.294007721"/>
      <point x="499.96200943" y="397.902007599" type="curve" smooth="yes"/>
      <point x="499.96200943" y="266.067005081" type="line"/>
      <point x="499.96200943" y="263.670005035"/>
      <point x="498.344009399" y="262.072005005"/>
      <point x="495.917009354" y="262.072005005" type="curve" smooth="yes"/>
      <point x="159.373003006" y="262.072005005" type="line"/>
      <point x="156.94600296" y="262.072005005"/>
      <point x="155.32800293" y="263.670005035"/>
    </contour>
  </outline>
</glyph>
<glyph name="partialdiff" format="1">
  <advance width="472.625898936"/>
  <unicode hex="2202"/>
  <outline>
    <contour>
      <point x="427.873636103" y="264.996345061" type="curve" smooth="yes"/>
      <point x="427.873636103" y="441.479468431"/>
      <point x="345.630694541" y="558.788650671"/>
      <point x="211.487165996" y="558.788650671" type="curve" smooth="yes"/>
      <point x="164.786831103" y="558.788650671"/>
      <point x="110.032092058" y="541.841860348"/>
      <point x="63.7945051832" y="515.211189839" type="curve"/>
      <point x="73.272749392" y="497.377509499" type="line"/>
      <point x="113.562568148" y="523.08932999"/>
      <point x="165.089397115" y="539.021390294"/>
      <point x="209.655589957" y="539.021390294" type="curve" smooth="yes"/>
      <point x="348.801974546" y="539.021390294"/>
      <point x="423.149075929" y="411.756667863"/>
      <point x="404.951429595" y="202.953993876" type="curve"/>
      <point x="387.046641255" y="294.327635621"/>
      <point x="317.428953959" y="350.681106697"/>
      <point x="215.825024067" y="350.681106697" type="curve" smooth="yes"/>
      <point x="107.258840016" y="350.681106697"/>
      <point x="39.9160607413" y="285.650495455"/>
      <point x="39.9160607413" y="177.737553394" type="curve" smooth="yes"/>
      <point x="39.9160607413" y="67.1639412827"/>
      <point x="110.708416085" y="-0.239700004578"/>
      <point x="219.666156152" y="-0.239700004578" type="curve" smooth="yes"/>
      <point x="349.782482621" y="-0.239700004578"/>
      <point x="427.873636103" y="92.2924917625"/>
    </contour>
    <contour>
      <point x="59.5666711872" y="179.311583424" type="curve" smooth="yes"/>
      <point x="59.5666711872" y="273.297955219"/>
      <point x="121.671984337" y="331.153546324"/>
      <point x="216.625934099" y="331.153546324" type="curve" smooth="yes"/>
      <point x="325.839318124" y="331.153546324"/>
      <point x="391.145035334" y="254.697234864"/>
      <point x="391.145035334" y="173.087373306" type="curve"/>
      <point x="391.145035334" y="110.853262117"/>
      <point x="341.681156416" y="19.6713803757"/>
      <point x="223.764550231" y="19.6713803757" type="curve" smooth="yes"/>
      <point x="127.228196439" y="19.6713803757"/>
      <point x="59.5666711872" y="80.6270915398"/>
    </contour>
  </outline>
</glyph>
<glyph name="emptyset" format="1">
  <advance width="419.552261941"/>
  <unicode hex="2205"/>
  <outline>
    <contour>
      <point x="397.398605534" y="415.328197932" type="line"/>
      <point x="385.342887291" y="427.592848166" type="line"/>
      <point x="22.153656407" y="93.2912417816" type="line"/>
      <point x="34.1915766495" y="81.0265915474" type="line"/>
    </contour>
    <contour>
      <point x="367.483402971" y="255.895734887" type="curve" smooth="yes"/>
      <point x="367.483402971" y="342.203716535"/>
      <point x="296.602057623" y="411.58887786"/>
      <point x="210.22512598" y="411.58887786" type="curve" smooth="yes"/>
      <point x="123.056992323" y="411.58887786"/>
      <point x="52.9846469905" y="342.203716535"/>
      <point x="52.9846469905" y="255.895734887" type="curve" smooth="yes"/>
      <point x="52.9846469905" y="170.362783253"/>
      <point x="123.056992323" y="100.178621913"/>
      <point x="210.22512598" y="100.178621913" type="curve" smooth="yes"/>
      <point x="296.602057623" y="100.178621913"/>
      <point x="367.483402971" y="170.362783253"/>
    </contour>
    <contour>
      <point x="71.3715993851" y="255.895734887" type="curve" smooth="yes"/>
      <point x="71.3715993851" y="330.985756321"/>
      <point x="133.16625654" y="392.636597498"/>
      <point x="210.22512598" y="392.636597498" type="curve" smooth="yes"/>
      <point x="287.28399542" y="392.636597498"/>
      <point x="349.096450576" y="330.985756321"/>
      <point x="349.096450576" y="255.895734887" type="curve" smooth="yes"/>
      <point x="349.096450576" y="180.781743452"/>
      <point x="287.28399542" y="119.130902275"/>
      <point x="210.22512598" y="119.130902275" type="curve" smooth="yes"/>
      <point x="133.16625654" y="119.130902275"/>
      <point x="71.3715993851" y="180.781743452"/>
    </contour>
  </outline>
</glyph>
<glyph name="product" format="1">
  <advance width="624.912061777"/>
  <unicode hex="220F"/>
  <outline>
    <contour>
      <point x="126.072944428" y="-155.00600296" type="line"/>
      <point x="126.072944428" y="573.138690945" type="line"/>
      <point x="498.839117349" y="573.138690945" type="line"/>
      <point x="498.839117349" y="-155.00600296" type="line"/>
      <point x="518.667707802" y="-155.00600296" type="line"/>
      <point x="518.667707802" y="592.858011322" type="line"/>
      <point x="106.244353975" y="592.858011322" type="line"/>
      <point x="106.244353975" y="-155.00600296" type="line"/>
    </contour>
  </outline>
</glyph>
<glyph name="summation" format="1">
  <advance width="488.147373214"/>
  <unicode hex="2211"/>
  <outline>
    <contour>
      <point x="488.004989208" y="-110.262002106" type="line"/>
      <point x="488.004989208" y="-90.1351917213" type="line"/>
      <point x="55.2563191352" y="-90.1351917213" type="line"/>
      <point x="333.363018324" y="249.77539477" type="line"/>
      <point x="57.6299251788" y="572.803110939" type="line"/>
      <point x="479.914989056" y="572.803110939" type="line"/>
      <point x="479.914989056" y="592.929921323" type="line"/>
      <point x="34.6624146511" y="592.929921323" type="line"/>
      <point x="34.6624146511" y="570.446060894" type="line"/>
      <point x="308.431255769" y="249.75142477" type="line"/>
      <point x="32.0574345981" y="-87.8740216782" type="line"/>
      <point x="32.0574345981" y="-110.262002106" type="line"/>
    </contour>
  </outline>
</glyph>
<glyph name="minus" format="1">
  <advance width="389.031927353"/>
  <unicode hex="2212"/>
  <outline>
    <contour>
      <point x="356.84990675" y="246.467534707" type="line"/>
      <point x="356.84990675" y="265.323935067" type="line"/>
      <point x="32.1820206031" y="265.323935067" type="line"/>
      <point x="32.1820206031" y="246.467534707" type="line"/>
    </contour>
  </outline>
</glyph>
<glyph name="radical" format="1">
  <advance width="533.514476089"/>
  <unicode hex="221A"/>
  <outline>
    <contour>
      <point x="277.676311294" y="-117.013552235" type="line"/>
      <point x="513.388173729" y="604.483461544" type="line"/>
      <point x="492.172957254" y="604.483461544" type="line"/>
      <point x="266.855127048" y="-91.5174617477" type="line"/>
      <point x="129.939964497" y="304.530865816" type="line"/>
      <point x="19.6732623591" y="304.530865816" type="line"/>
      <point x="19.6732623591" y="285.586575454" type="line"/>
      <point x="116.122244182" y="285.586575454" type="line"/>
      <point x="255.998346801" y="-117.013552235" type="line"/>
    </contour>
  </outline>
</glyph>
<glyph name="infinity" format="1">
  <advance width="738.233547898"/>
  <unicode hex="221E"/>
  <outline>
    <contour>
      <point x="695.134881098" y="245.05330468" type="curve" smooth="yes"/>
      <point x="695.134881098" y="325.69637622"/>
      <point x="633.401707928" y="386.899777389"/>
      <point x="552.074554385" y="386.899777389" type="curve" smooth="yes"/>
      <point x="338.365874369" y="386.899777389"/>
      <point x="385.313763237" y="121.50393232"/>
      <point x="186.31917552" y="121.50393232" type="curve" smooth="yes"/>
      <point x="114.363478181" y="121.50393232"/>
      <point x="61.5924071991" y="173.422953312"/>
      <point x="61.5924071991" y="244.254304665" type="curve" smooth="yes"/>
      <point x="61.5924071991" y="315.085656017"/>
      <point x="114.363478181" y="367.028647009"/>
      <point x="186.31917552" y="367.028647009" type="curve" smooth="yes"/>
      <point x="385.313763237" y="367.028647009"/>
      <point x="338.543854376" y="103.182861971"/>
      <point x="552.074554385" y="103.182861971" type="curve" smooth="yes"/>
      <point x="633.401707928" y="103.182861971"/>
      <point x="695.134881098" y="164.386263139"/>
    </contour>
    <contour>
      <point x="551.896574378" y="367.803677024" type="curve" smooth="yes"/>
      <point x="623.870069717" y="367.803677024"/>
      <point x="676.641140699" y="315.884656033"/>
      <point x="676.641140699" y="245.05330468" type="curve" smooth="yes"/>
      <point x="676.641140699" y="174.221953327"/>
      <point x="623.870069717" y="122.278962335"/>
      <point x="551.896574378" y="122.278962335" type="curve" smooth="yes"/>
      <point x="352.90198666" y="122.278962335"/>
      <point x="399.671895521" y="386.124747374"/>
      <point x="186.141195512" y="386.124747374" type="curve" smooth="yes"/>
      <point x="104.83183997" y="386.124747374"/>
      <point x="43.0986668002" y="324.921346205"/>
      <point x="43.0986668002" y="244.254304665" type="curve" smooth="yes"/>
      <point x="43.0986668002" y="163.611233125"/>
      <point x="104.83183997" y="102.407831956"/>
      <point x="186.141195512" y="102.407831956" type="curve" smooth="yes"/>
      <point x="399.849875529" y="102.407831956"/>
      <point x="352.90198666" y="367.803677024"/>
    </contour>
  </outline>
</glyph>
<glyph name="integral" format="1">
  <advance width="217.392866166"/>
  <unicode hex="222B"/>
  <outline>
    <contour>
      <point x="125.131268425" y="46.3979308861" type="curve"/>
      <point x="125.131268425" y="185.495843542"/>
      <point x="111.973692172" y="393.507507515"/>
      <point x="111.973692172" y="525.366480033" type="curve"/>
      <point x="111.973692172" y="608.398561619"/>
      <point x="127.415884465" y="640.022982223"/>
      <point x="168.043865235" y="640.022982223" type="curve"/>
      <point x="181.832461496" y="640.022982223"/>
      <point x="191.629451682" y="637.625982177"/>
      <point x="202.360027889" y="631.210012054" type="curve"/>
      <point x="209.836806035" y="648.564292386" type="line"/>
      <point x="193.283047714" y="655.971022527"/>
      <point x="181.672279489" y="659.23893259"/>
      <point x="167.545521215" y="659.23893259" type="curve"/>
      <point x="114.078710169" y="659.23893259"/>
      <point x="93.212981762" y="621.789801875"/>
      <point x="93.212981762" y="524.863110023" type="curve"/>
      <point x="93.212981762" y="392.908257504"/>
      <point x="106.406154016" y="185.112323535"/>
      <point x="106.406154016" y="46.0144108788" type="curve"/>
      <point x="106.406154016" y="-37.1854607101"/>
      <point x="90.928365722" y="-68.8817913155"/>
      <point x="50.2469909497" y="-68.8817913155" type="curve"/>
      <point x="35.6315966728" y="-68.8817913155"/>
      <point x="25.781212484" y="-66.4128812683"/>
      <point x="14.9438482726" y="-59.853091143" type="curve"/>
      <point x="7.37808012373" y="-77.2313414749" type="line"/>
      <point x="23.807252439" y="-84.7339516182"/>
      <point x="35.5248086685" y="-88.0258316811"/>
      <point x="50.7631329706" y="-88.0258316811" type="curve"/>
      <point x="104.247742016" y="-88.0258316811"/>
      <point x="125.131268425" y="-50.5527309654"/>
    </contour>
  </outline>
</glyph>
<glyph name="approxequal" format="1">
  <advance width="389.031927353"/>
  <unicode hex="2248"/>
  <outline>
    <contour>
      <point x="323.316856127" y="374.954727161" type="curve"/>
      <point x="304.85871173" y="374.954727161" type="line"/>
      <point x="304.85871173" y="344.832426585"/>
      <point x="290.474691462" y="327.470156254"/>
      <point x="264.835862984" y="327.470156254" type="curve" smooth="yes"/>
      <point x="222.439408195" y="327.470156254"/>
      <point x="172.077539258" y="382.77693731"/>
      <point x="124.16855835" y="382.77693731" type="curve" smooth="yes"/>
      <point x="87.8072436481" y="382.77693731"/>
      <point x="66.5062732405" y="357.991956837"/>
      <point x="66.5062732405" y="315.956566034" type="curve"/>
      <point x="84.9822156388" y="315.956566034" type="line"/>
      <point x="84.9822156388" y="346.078866609"/>
      <point x="99.3662359062" y="363.441136941"/>
      <point x="125.005064384" y="363.441136941" type="curve" smooth="yes"/>
      <point x="168.192721188" y="363.441136941"/>
      <point x="211.433771994" y="308.134355885"/>
      <point x="265.672369018" y="308.134355885" type="curve" smooth="yes"/>
      <point x="302.03368372" y="308.134355885"/>
      <point x="323.316856127" y="332.919336358"/>
    </contour>
    <contour>
      <point x="323.316856127" y="213.420894076" type="curve"/>
      <point x="304.85871173" y="213.420894076" type="line"/>
      <point x="304.85871173" y="183.298593501"/>
      <point x="290.474691462" y="165.936323169"/>
      <point x="264.835862984" y="165.936323169" type="curve" smooth="yes"/>
      <point x="222.439408195" y="165.936323169"/>
      <point x="172.077539258" y="221.243104225"/>
      <point x="124.16855835" y="221.243104225" type="curve" smooth="yes"/>
      <point x="87.8072436481" y="221.243104225"/>
      <point x="66.5062732405" y="196.458123752"/>
      <point x="66.5062732405" y="154.422732949" type="curve"/>
      <point x="84.9822156388" y="154.422732949" type="line"/>
      <point x="84.9822156388" y="184.545033524"/>
      <point x="99.3662359062" y="201.907303856"/>
      <point x="125.005064384" y="201.907303856" type="curve" smooth="yes"/>
      <point x="168.192721188" y="201.907303856"/>
      <point x="211.433771994" y="146.6005228"/>
      <point x="265.672369018" y="146.6005228" type="curve" smooth="yes"/>
      <point x="302.03368372" y="146.6005228"/>
      <point x="323.316856127" y="171.385503273"/>
    </contour>
  </outline>
</glyph>
<glyph name="notequal" format="1">
  <advance width="389.031927353"/>
  <unicode hex="2260"/>
  <outline>
    <contour>
      <point x="127.716832442" y="38.2880807312" type="line"/>
      <point x="267.309785084" y="469.508388966" type="line"/>
      <point x="249.286882687" y="469.508388966" type="line"/>
      <point x="109.693930044" y="38.2880807312" type="line"/>
    </contour>
    <contour>
      <point x="356.84990675" y="166.327833176" type="line"/>
      <point x="356.84990675" y="185.184233537" type="line"/>
      <point x="32.1820206031" y="185.184233537" type="line"/>
      <point x="32.1820206031" y="166.327833176" type="line"/>
    </contour>
    <contour>
      <point x="356.84990675" y="326.607236237" type="line"/>
      <point x="356.84990675" y="345.463636597" type="line"/>
      <point x="32.1820206031" y="345.463636597" type="line"/>
      <point x="32.1820206031" y="326.607236237" type="line"/>
    </contour>
  </outline>
</glyph>
<glyph name="lozenge" format="1">
  <advance width="406.766825669"/>
  <unicode hex="25CA"/>
  <outline>
    <contour>
      <point x="363.668158869" y="263.670005035" type="line"/>
      <point x="203.796811842" y="498.807719526" type="line"/>
      <point x="43.0986668002" y="263.670005035" type="line"/>
      <point x="202.970013826" y="26.1352904991" type="line"/>
    </contour>
    <contour>
      <point x="64.6326292522" y="263.670005035" type="line"/>
      <point x="203.779013842" y="467.351088925" type="line"/>
      <point x="342.134196416" y="263.670005035" type="line"/>
      <point x="202.987811827" y="59.1659511299" type="line"/>
    </contour>
  </outline>
</glyph>
<glyph name="Adieresis.alt" format="1">
  <advance width="558.692174583"/>
  <outline>
    <contour>
      <point x="29.2518226246" y="0.0" type="line"/>
      <point x="284.085209396" y="544.214890393" type="line"/>
      <point x="274.535773184" y="544.214890393" type="line"/>
      <point x="529.369159956" y="0.0" type="line"/>
      <point x="551.909518466" y="0.0" type="line"/>
      <point x="289.322675521" y="559.300010681" type="line"/>
      <point x="269.369499063" y="559.300010681" type="line"/>
      <point x="6.78265611713" y="0.0" type="line"/>
    </contour>
    <contour>
      <point x="470.456160883" y="147.375552814" type="line"/>
      <point x="461.476260694" y="166.176023174" type="line"/>
      <point x="95.7483878472" y="166.176023174" type="line"/>
      <point x="86.7684876586" y="147.375552814" type="line"/>
    </contour>
    <contour>
      <point x="191.901275606" y="539.3409903" type="curve" smooth="yes"/>
      <point x="191.901275606" y="551.461820531"/>
      <point x="181.712729403" y="561.625100726"/>
      <point x="169.728203163" y="561.625100726" type="curve" smooth="yes"/>
      <point x="157.743676922" y="561.625100726"/>
      <point x="147.55513072" y="551.461820531"/>
      <point x="147.55513072" y="539.3409903" type="curve" smooth="yes"/>
      <point x="147.55513072" y="527.220160069"/>
      <point x="157.743676922" y="517.080849875"/>
      <point x="169.728203163" y="517.080849875" type="curve" smooth="yes"/>
      <point x="181.712729403" y="517.080849875"/>
      <point x="191.901275606" y="527.220160069"/>
    </contour>
    <contour>
      <point x="411.137043863" y="539.3409903" type="curve" smooth="yes"/>
      <point x="411.137043863" y="551.461820531"/>
      <point x="400.948497661" y="561.625100726"/>
      <point x="388.96397142" y="561.625100726" type="curve" smooth="yes"/>
      <point x="376.97944518" y="561.625100726"/>
      <point x="366.790898978" y="551.461820531"/>
      <point x="366.790898978" y="539.3409903" type="curve" smooth="yes"/>
      <point x="366.790898978" y="527.220160069"/>
      <point x="376.97944518" y="517.080849875"/>
      <point x="388.96397142" y="517.080849875" type="curve" smooth="yes"/>
      <point x="400.948497661" y="517.080849875"/>
      <point x="411.137043863" y="527.220160069"/>
    </contour>
  </outline>
</glyph>
<glyph name="E.ss01" format="1">
  <advance width="498.167647427"/>
  <outline>
    <contour>
      <point x="53.7483429864" y="559.300010681" type="move" name="topleft"/>
    </contour>
    <contour>
      <point x="272.518127155" y="559.300010681" type="move" name="top"/>
    </contour>
    <contour>
      <point x="456.92644465" y="0.0" type="move" name="ogonek"/>
    </contour>
    <contour>
      <point x="272.518127155" y="0.0" type="move" name="bottom"/>
    </contour>
    <contour>
      <point x="479.072011074" y="72.4053813828" type="curve"/>
      <point x="465.975918806" y="86.5796416534" type="line"/>
      <point x="424.52114002" y="42.3869508095"/>
      <point x="350.973330634" y="16.3315603119"/>
      <point x="264.295451015" y="16.3315603119" type="curve" smooth="yes"/>
      <point x="134.340924587" y="16.3315603119"/>
      <point x="71.9508434261" y="70.3359713432"/>
      <point x="71.9508434261" y="148.606012838" type="curve" smooth="yes"/>
      <point x="71.9508434261" y="234.554444479"/>
      <point x="145.168580781" y="274.536405243"/>
      <point x="248.194732695" y="274.536405243" type="curve" smooth="yes"/>
      <point x="381.094019224" y="274.536405243" type="line"/>
      <point x="381.094019224" y="293.432755604" type="line"/>
      <point x="247.688298692" y="293.432755604" type="line" smooth="yes"/>
      <point x="153.454358941" y="293.432755604"/>
      <point x="96.2030458832" y="337.24192644"/>
      <point x="96.2030458832" y="414.593117918" type="curve" smooth="yes"/>
      <point x="96.2030458832" y="487.437949309"/>
      <point x="156.201723" y="542.968450369"/>
      <point x="276.412653243" y="542.968450369" type="curve" smooth="yes"/>
      <point x="338.420886406" y="542.968450369"/>
      <point x="394.890705468" y="527.204180068"/>
      <point x="442.764090374" y="497.880879508" type="curve"/>
      <point x="451.815182565" y="514.404199824" type="line"/>
      <point x="407.84441373" y="544.526500399"/>
      <point x="342.066240484" y="562.008620733"/>
      <point x="275.461269222" y="562.008620733" type="curve" smooth="yes"/>
      <point x="143.752830706" y="562.008620733"/>
      <point x="76.1430814207" y="495.963279472"/>
      <point x="76.1430814207" y="415.727697939" type="curve" smooth="yes"/>
      <point x="76.1430814207" y="332.216216344"/>
      <point x="136.69349656" y="278.467485318"/>
      <point x="242.077074552" y="278.467485318" type="curve"/>
      <point x="238.823276491" y="289.789315534" type="line"/>
      <point x="132.541708479" y="289.789315534"/>
      <point x="51.8908789637" y="240.594884595"/>
      <point x="51.8908789637" y="147.447462816" type="curve" smooth="yes"/>
      <point x="51.8908789637" y="60.7000311592"/>
      <point x="122.950204319" y="-2.70861005173"/>
      <point x="263.344066994" y="-2.70861005173" type="curve" smooth="yes"/>
      <point x="357.081280759" y="-2.70861005173"/>
      <point x="435.82125225" y="24.9927204773"/>
    </contour>
  </outline>
</glyph>
<glyph name="Eng.ss01" format="1">
  <advance width="647.093224203"/>
  <outline>
    <contour>
      <point x="545.70287032" y="1.96554003754" type="curve" smooth="yes"/>
      <point x="545.70287032" y="336.770516431" type="line" smooth="yes"/>
      <point x="545.70287032" y="483.395009232"/>
      <point x="462.500454753" y="562.008620733"/>
      <point x="328.224250221" y="562.008620733" type="curve" smooth="yes"/>
      <point x="193.948045689" y="562.008620733"/>
      <point x="110.745630122" y="483.083399226"/>
      <point x="110.745630122" y="321.030216131" type="curve" smooth="yes"/>
      <point x="110.745630122" y="239.700004578" type="line"/>
      <point x="126.268722436" y="239.700004578" type="line"/>
      <point x="126.268722436" y="320.135336114" type="line" smooth="yes"/>
      <point x="126.268722436" y="471.170308998"/>
      <point x="199.140207794" y="542.704780364"/>
      <point x="326.027006149" y="542.704780364" type="curve" smooth="yes"/>
      <point x="452.949400506" y="542.704780364"/>
      <point x="525.678501859" y="472.017249014"/>
      <point x="525.678501859" y="335.827696413" type="curve" smooth="yes"/>
      <point x="525.678501859" y="3.27590006256" type="line" smooth="yes"/>
      <point x="525.678501859" y="-92.6440517693"/>
      <point x="486.429057127" y="-138.266952641"/>
      <point x="404.854349609" y="-138.266952641" type="curve" smooth="yes"/>
      <point x="352.207864632" y="-138.266952641"/>
      <point x="306.717793787" y="-112.523172149"/>
      <point x="276.242763218" y="-66.4128812683" type="curve"/>
      <point x="263.243750937" y="-79.6203515205" type="line"/>
      <point x="293.479317514" y="-128.535132455"/>
      <point x="346.891116522" y="-157.570793009"/>
      <point x="404.419107609" y="-157.570793009" type="curve" smooth="yes"/>
      <point x="497.962161401" y="-157.570793009"/>
      <point x="545.70287032" y="-104.165631989"/>
    </contour>
    <contour>
      <point x="126.268722436" y="0.0" type="line"/>
      <point x="126.268722436" y="372.126267107" type="line"/>
      <point x="126.144136431" y="385.996907372" type="line"/>
      <point x="126.144136431" y="559.300010681" type="line"/>
      <point x="106.244353975" y="559.300010681" type="line"/>
      <point x="106.244353975" y="0.0" type="line"/>
    </contour>
  </outline>
</glyph>
<glyph name="G.ss01" format="1">
  <advance width="626.077021807"/>
  <outline>
    <contour>
      <point x="325.60956215" y="559.323980682" type="move" name="top"/>
    </contour>
    <contour>
      <point x="325.36039014" y="0.0719100013733" type="move" name="bottom"/>
    </contour>
    <contour>
      <point x="531.619798029" y="81.2583015518" type="curve"/>
      <point x="524.301583855" y="99.020071891" type="line"/>
      <point x="471.601704877" y="41.9235308006"/>
      <point x="399.379037527" y="16.4993503151"/>
      <point x="330.214390231" y="16.4993503151" type="curve" smooth="yes"/>
      <point x="195.815217729" y="16.4993503151"/>
      <point x="67.2570253411" y="113.825542174"/>
      <point x="67.2570253411" y="279.362365335" type="curve" smooth="yes"/>
      <point x="67.2570253411" y="428.623558186"/>
      <point x="183.947187511" y="542.608900362"/>
      <point x="340.873774435" y="542.608900362" type="curve" smooth="yes"/>
      <point x="411.60302776" y="542.608900362"/>
      <point x="473.433280916" y="524.15999001"/>
      <point x="524.853321878" y="475.660689084" type="curve"/>
      <point x="537.035244161" y="489.699119352" type="line"/>
      <point x="488.299465238" y="538.28631028"/>
      <point x="418.280513907" y="561.912740731"/>
      <point x="340.660198427" y="561.912740731" type="curve" smooth="yes"/>
      <point x="171.978841236" y="561.912740731"/>
      <point x="47.1970608786" y="441.263738427"/>
      <point x="47.1970608786" y="279.362365335" type="curve" smooth="yes"/>
      <point x="47.1970608786" y="97.9653918709"/>
      <point x="187.696093523" y="-2.70861005173"/>
      <point x="329.627056208" y="-2.70861005173" type="curve" smooth="yes"/>
      <point x="403.202371612" y="-2.70861005173"/>
      <point x="477.754959021" y="23.4346704475"/>
    </contour>
    <contour>
      <point x="536.679284147" y="0.0" type="line"/>
      <point x="536.679284147" y="274.584345244" type="line"/>
      <point x="517.997855723" y="274.584345244" type="line"/>
      <point x="517.997855723" y="80.2595515327" type="line"/>
      <point x="518.905553759" y="76.5601814621" type="line"/>
      <point x="518.905553759" y="0.0" type="line"/>
    </contour>
  </outline>
</glyph>
<glyph name="J.ss01" format="1">
  <advance width="387.619413348"/>
  <outline>
    <contour>
      <point x="170.487045246" y="559.300010681" type="move" name="top"/>
    </contour>
    <contour>
      <point x="286.229059465" y="76.9277214691" type="curve" smooth="yes"/>
      <point x="286.229059465" y="559.300010681" type="line"/>
      <point x="54.7272330261" y="559.300010681" type="line"/>
      <point x="54.7272330261" y="540.307780318" type="line"/>
      <point x="266.258085007" y="540.307780318" type="line"/>
      <point x="266.258085007" y="78.2380814941" type="line" smooth="yes"/>
      <point x="266.258085007" y="-17.6818703377"/>
      <point x="227.008640275" y="-63.304771209"/>
      <point x="145.433932757" y="-63.304771209" type="curve" smooth="yes"/>
      <point x="92.520477769" y="-63.304771209"/>
      <point x="46.7990329151" y="-37.2733507118"/>
      <point x="16.074830336" y="9.50810018158" type="curve"/>
      <point x="2.73765604083" y="-3.3877600647" type="line"/>
      <point x="33.0444146206" y="-53.0695810135"/>
      <point x="86.8833656457" y="-82.6086115776"/>
      <point x="144.998690756" y="-82.6086115776" type="curve" smooth="yes"/>
      <point x="238.541744549" y="-82.6086115776"/>
      <point x="286.229059465" y="-29.2034505577"/>
    </contour>
  </outline>
</glyph>
<glyph name="Oogonek" format="1">
  <advance width="676.537588765"/>
  <outline>
    <contour>
      <point x="338.268794383" y="559.300010681" type="move" name="top"/>
    </contour>
    <contour>
      <point x="395.495837492" y="-149.357072852" type="curve"/>
      <point x="386.312069313" y="-135.502412588" type="line"/>
      <point x="373.38586707" y="-147.295652813"/>
      <point x="354.796664719" y="-153.663682935"/>
      <point x="336.207462369" y="-153.663682935" type="curve" smooth="yes"/>
      <point x="303.109653746" y="-153.663682935"/>
      <point x="278.297623284" y="-136.956592616"/>
      <point x="278.297623284" y="-103.078991969" type="curve" smooth="yes"/>
      <point x="278.297623284" y="-51.9110309914"/>
      <point x="338.962916411" y="-8.44543016129"/>
      <point x="405.639079676" y="4.77003009109" type="curve" smooth="yes"/>
      <point x="527.709091976" y="29.1954605576"/>
      <point x="629.340527886" y="132.146612524"/>
      <point x="629.340527886" y="279.650005341" type="curve" smooth="yes"/>
      <point x="629.340527886" y="441.287708427"/>
      <point x="504.523151527" y="562.008620733"/>
      <point x="338.268794383" y="562.008620733" type="curve" smooth="yes"/>
      <point x="172.014437238" y="562.008620733"/>
      <point x="47.1970608786" y="441.287708427"/>
      <point x="47.1970608786" y="279.650005341" type="curve" smooth="yes"/>
      <point x="47.1970608786" y="118.012302254"/>
      <point x="172.014437238" y="-2.70861005173"/>
      <point x="338.268794383" y="-2.70861005173" type="curve" smooth="yes"/>
      <point x="344.86538051" y="-2.70861005173"/>
      <point x="350.688562623" y="-1.90961003647"/>
      <point x="357.463128757" y="-1.08664002075" type="curve"/>
      <point x="371.49118901" y="13.5750102592" type="line"/>
      <point x="281.78117732" y="-24.4174404663"/>
      <point x="260.124246898" y="-70.008381337"/>
      <point x="260.124246898" y="-103.558391978" type="curve" smooth="yes"/>
      <point x="260.124246898" y="-145.657702782"/>
      <point x="292.013409507" y="-170.834193262"/>
      <point x="334.935714335" y="-170.834193262" type="curve" smooth="yes"/>
      <point x="357.854684773" y="-170.834193262"/>
      <point x="377.662241155" y="-164.394253139"/>
    </contour>
    <contour>
      <point x="67.2570253411" y="279.650005341" type="curve" smooth="yes"/>
      <point x="67.2570253411" y="430.293468217"/>
      <point x="184.018379514" y="542.704780364"/>
      <point x="338.268794383" y="542.704780364" type="curve" smooth="yes"/>
      <point x="492.519209251" y="542.704780364"/>
      <point x="609.280563424" y="430.293468217"/>
      <point x="609.280563424" y="279.650005341" type="curve" smooth="yes"/>
      <point x="609.280563424" y="129.006542464"/>
      <point x="492.519209251" y="16.5952303169"/>
      <point x="338.268794383" y="16.5952303169" type="curve" smooth="yes"/>
      <point x="184.018379514" y="16.5952303169"/>
      <point x="67.2570253411" y="129.006542464"/>
    </contour>
  </outline>
</glyph>
<glyph name="Q.ss01" format="1">
  <advance width="676.537588765"/>
  <outline>
    <contour>
      <point x="629.340527886" y="279.650005341" type="curve" smooth="yes"/>
      <point x="629.340527886" y="441.287708427"/>
      <point x="504.523151527" y="562.008620733"/>
      <point x="338.268794383" y="562.008620733" type="curve" smooth="yes"/>
      <point x="172.014437238" y="562.008620733"/>
      <point x="47.1970608786" y="441.287708427"/>
      <point x="47.1970608786" y="279.650005341" type="curve" smooth="yes"/>
      <point x="47.1970608786" y="118.012302254"/>
      <point x="172.014437238" y="-2.70861005173"/>
      <point x="338.268794383" y="-2.70861005173" type="curve" smooth="yes"/>
      <point x="504.523151527" y="-2.70861005173"/>
      <point x="629.340527886" y="118.012302254"/>
    </contour>
    <contour>
      <point x="348.280978613" y="-107.86500206" type="line"/>
      <point x="348.280978613" y="1.37428002625" type="line"/>
      <point x="348.102998606" y="9.95554019012" type="line"/>
      <point x="348.102998606" y="166.431703178" type="line"/>
      <point x="328.416792158" y="166.431703178" type="line"/>
      <point x="328.416792158" y="9.95554019012" type="line"/>
      <point x="328.256610152" y="1.37428002625" type="line"/>
      <point x="328.256610152" y="-107.86500206" type="line"/>
    </contour>
    <contour>
      <point x="67.2570253411" y="279.650005341" type="curve" smooth="yes"/>
      <point x="67.2570253411" y="428.743408188"/>
      <point x="184.018379514" y="542.704780364"/>
      <point x="338.268794383" y="542.704780364" type="curve" smooth="yes"/>
      <point x="492.519209251" y="542.704780364"/>
      <point x="609.280563424" y="428.743408188"/>
      <point x="609.280563424" y="279.650005341" type="curve" smooth="yes"/>
      <point x="609.280563424" y="130.460722491"/>
      <point x="492.768381261" y="16.5952303169"/>
      <point x="338.268794383" y="16.5952303169" type="curve" smooth="yes"/>
      <point x="183.769207504" y="16.5952303169"/>
      <point x="67.2570253411" y="130.460722491"/>
    </contour>
  </outline>
</glyph>
<glyph name="Schwa" format="1">
  <advance width="660.179608453"/>
  <outline>
    <contour>
      <point x="330.881006241" y="559.300010681" type="move" name="top"/>
    </contour>
    <contour>
      <point x="330.881006241" y="0.0" type="move" name="bottom"/>
    </contour>
    <contour>
      <point x="612.982547574" y="280.425035355" type="curve" smooth="yes"/>
      <point x="612.982547574" y="441.359618429"/>
      <point x="488.200767216" y="562.008620733"/>
      <point x="321.821824067" y="562.008620733" type="curve" smooth="yes"/>
      <point x="245.188488608" y="562.008620733"/>
      <point x="175.675971281" y="538.917520292"/>
      <point x="124.655576318" y="493.014969415" type="curve"/>
      <point x="135.832720578" y="477.961809128" type="line"/>
      <point x="189.608569583" y="524.15999001"/>
      <point x="251.972762761" y="542.704780364"/>
      <point x="321.786228065" y="542.704780364" type="curve" smooth="yes"/>
      <point x="475.441218927" y="542.704780364"/>
      <point x="592.922583112" y="428.695468187"/>
      <point x="592.922583112" y="280.66473536" type="curve" smooth="yes"/>
      <point x="592.922583112" y="277.964115308" type="line" smooth="yes"/>
      <point x="592.922583112" y="130.708412496"/>
      <point x="473.387976896" y="16.1637703087"/>
      <point x="330.089804226" y="16.1637703087" type="curve" smooth="yes"/>
      <point x="178.879611411" y="16.1637703087"/>
      <point x="67.2570253411" y="129.933382481"/>
      <point x="67.2570253411" y="278.739145323" type="curve"/>
      <point x="59.5747611699" y="270.349645163" type="line"/>
      <point x="597.323543202" y="270.349645163" type="line"/>
      <point x="597.323543202" y="288.550865511" type="line"/>
      <point x="47.1970608786" y="288.550865511" type="line"/>
      <point x="47.1970608786" y="279.889705345" type="line" smooth="yes"/>
      <point x="47.1970608786" y="117.892452251"/>
      <point x="167.053649142" y="-2.70861005173"/>
      <point x="330.089804226" y="-2.70861005173" type="curve" smooth="yes"/>
      <point x="487.480757205" y="-2.70861005173"/>
      <point x="612.982547574" y="124.867722385"/>
    </contour>
  </outline>
</glyph>
<glyph name="Schwa.ss01" format="1">
  <advance width="660.179608453"/>
  <outline>
    <contour>
      <point x="330.089804226" y="559.300010681" type="move" name="top"/>
    </contour>
    <contour>
      <point x="330.089804226" y="0.0" type="move" name="bottom"/>
    </contour>
    <contour>
      <point x="612.982547574" y="280.425035355" type="curve" smooth="yes"/>
      <point x="612.982547574" y="441.359618429"/>
      <point x="488.200767216" y="562.008620733"/>
      <point x="321.821824067" y="562.008620733" type="curve" smooth="yes"/>
      <point x="245.188488608" y="562.008620733"/>
      <point x="175.675971281" y="538.917520292"/>
      <point x="124.655576318" y="493.014969415" type="curve"/>
      <point x="135.832720578" y="477.961809128" type="line"/>
      <point x="189.608569583" y="524.15999001"/>
      <point x="251.972762761" y="542.704780364"/>
      <point x="321.786228065" y="542.704780364" type="curve" smooth="yes"/>
      <point x="475.441218927" y="542.704780364"/>
      <point x="592.922583112" y="428.695468187"/>
      <point x="592.922583112" y="280.66473536" type="curve" smooth="yes"/>
      <point x="592.922583112" y="277.964115308" type="line" smooth="yes"/>
      <point x="592.922583112" y="130.708412496"/>
      <point x="473.387976896" y="16.1637703087"/>
      <point x="330.089804226" y="16.1637703087" type="curve" smooth="yes"/>
      <point x="225.382550261" y="16.1637703087"/>
      <point x="140.047610679" y="70.2560713417"/>
      <point x="96.7094798862" y="155.50937297" type="curve"/>
      <point x="90.6096197441" y="146.752332803" type="line"/>
      <point x="590.034453082" y="352.287096728" type="line"/>
      <point x="583.623936945" y="368.530767038" type="line"/>
      <point x="72.7113033518" y="158.11411302" type="line"/>
      <point x="116.130334165" y="61.0595811661"/>
      <point x="211.983891981" y="-2.70861005173"/>
      <point x="330.089804226" y="-2.70861005173" type="curve" smooth="yes"/>
      <point x="487.480757205" y="-2.70861005173"/>
      <point x="612.982547574" y="124.867722385"/>
    </contour>
  </outline>
</glyph>
<glyph name="T.ss01" format="1">
  <advance width="445.75253646"/>
  <outline>
    <contour>
      <point x="222.965258234" y="558.548950667" type="move" name="top"/>
    </contour>
    <contour>
      <point x="222.858470229" y="278.451505318" type="move" name="center"/>
    </contour>
    <contour>
      <point x="222.87626823" y="0.0" type="move" name="bottom"/>
    </contour>
    <contour>
      <point x="222.085066215" y="542.776690366" type="curve" smooth="yes"/>
      <point x="291.312815531" y="542.776690366"/>
      <point x="367.23423096" y="526.652870058"/>
      <point x="433.607828213" y="487.549809311" type="curve"/>
      <point x="442.908092415" y="503.977249625" type="line"/>
      <point x="372.275919077" y="544.965950407"/>
      <point x="295.624785618" y="562.008620733"/>
      <point x="222.085066215" y="562.008620733" type="curve" smooth="yes"/>
      <point x="148.545346813" y="562.008620733"/>
      <point x="73.4766173828" y="544.965950407"/>
      <point x="2.84444404516" y="503.977249625" type="curve"/>
      <point x="12.1447082468" y="487.549809311" type="line"/>
      <point x="79.309507514" y="526.652870058"/>
      <point x="152.8573169" y="542.776690366"/>
    </contour>
    <contour>
      <point x="232.88845246" y="0.0" type="line"/>
      <point x="232.88845246" y="549.29653049" type="line"/>
      <point x="212.864083999" y="549.29653049" type="line"/>
      <point x="212.864083999" y="0.0" type="line"/>
    </contour>
  </outline>
</glyph>
<glyph name="T_h" format="1">
  <advance width="904.633525119"/>
  <outline>
    <contour>
      <point x="-7.13861613156" y="0.0" type="move" name="center_1"/>
    </contour>
    <contour>
      <point x="442.524626382" y="0.0" type="move" name="caret_1"/>
    </contour>
    <contour>
      <point x="217.701904125" y="0.0" type="move" name="bottom_1"/>
    </contour>
    <contour>
      <point x="667.365146639" y="0.0" type="move" name="bottom_2"/>
    </contour>
    <contour>
      <point x="-7.13861613156" y="0.0" type="move" name="center_2"/>
    </contour>
    <contour>
      <point x="217.701904125" y="413.802107903" type="move" name="top_1"/>
    </contour>
    <contour>
      <point x="667.365146639" y="413.802107903" type="move" name="top_2"/>
    </contour>
    <contour>
      <point x="232.443502442" y="0.0" type="line"/>
      <point x="232.443502442" y="538.661840287" type="line"/>
      <point x="457.539666657" y="538.661840287" type="line"/>
      <point x="457.539666657" y="558.548950667" type="line"/>
      <point x="3.23600006104" y="558.548950667" type="line"/>
      <point x="3.23600006104" y="538.661840287" type="line"/>
      <point x="212.490325984" y="538.661840287" type="line"/>
      <point x="212.490325984" y="0.0" type="line"/>
    </contour>
    <contour>
      <point x="477.208075104" y="0.0" type="line"/>
      <point x="477.208075104" y="558.548950667" type="line"/>
      <point x="457.379484651" y="558.548950667" type="line"/>
      <point x="457.379484651" y="0.0" type="line"/>
    </contour>
    <contour>
      <point x="817.5382015" y="0.0" type="line"/>
      <point x="817.5382015" y="250.949924792" type="line"/>
      <point x="817.5382015" y="353.173986745"/>
      <point x="756.756412351" y="414.041807907"/>
      <point x="653.435784407" y="414.041807907" type="curve"/>
      <point x="533.143954144" y="411.716717863"/>
      <point x="462.076538806" y="333.079136361"/>
      <point x="462.076538806" y="202.578463869" type="curve"/>
      <point x="477.208075104" y="202.578463869" type="line"/>
      <point x="477.208075104" y="320.103376113"/>
      <point x="541.793782301" y="391.470057476"/>
      <point x="651.762772339" y="393.79514752" type="curve"/>
      <point x="743.445126039" y="393.79514752"/>
      <point x="797.709611047" y="340.397976501"/>
      <point x="797.709611047" y="249.391874763" type="curve"/>
      <point x="797.709611047" y="0.0" type="line" smooth="yes"/>
    </contour>
  </outline>
</glyph>
<glyph name="Udieresis.alt.02" format="1">
  <advance width="642.168032108"/>
  <outline>
    <contour>
      <point x="540.777678225" y="234.634344481" type="curve" smooth="yes"/>
      <point x="540.777678225" y="559.300010681" type="line"/>
      <point x="520.824501767" y="559.300010681" type="line"/>
      <point x="520.824501767" y="235.577164499" type="line" smooth="yes"/>
      <point x="520.824501767" y="88.0817616821"/>
      <point x="448.095400415" y="16.5952303169"/>
      <point x="321.119612056" y="16.5952303169" type="curve" smooth="yes"/>
      <point x="194.143823697" y="16.5952303169"/>
      <point x="121.414722344" y="88.0817616821"/>
      <point x="121.414722344" y="235.577164499" type="curve" smooth="yes"/>
      <point x="121.414722344" y="559.300010681" type="line"/>
      <point x="101.390353883" y="559.300010681" type="line"/>
      <point x="101.390353883" y="234.634344481" type="line" smooth="yes"/>
      <point x="101.390353883" y="76.1447014542"/>
      <point x="185.126709471" y="-2.70861005173"/>
      <point x="321.084016054" y="-2.70861005173" type="curve" smooth="yes"/>
      <point x="457.041322637" y="-2.70861005173"/>
      <point x="540.777678225" y="76.1447014542"/>
    </contour>
    <contour>
      <point x="354.298320699" y="445.482458508" type="curve" smooth="yes"/>
      <point x="354.298320699" y="462.836738839"/>
      <point x="339.433754412" y="477.698139123"/>
      <point x="321.119612056" y="477.698139123" type="curve" smooth="yes"/>
      <point x="302.805469699" y="477.698139123"/>
      <point x="287.958701413" y="462.836738839"/>
      <point x="287.958701413" y="445.482458508" type="curve" smooth="yes"/>
      <point x="287.958701413" y="428.128178176"/>
      <point x="302.805469699" y="413.266777892"/>
      <point x="321.119612056" y="413.266777892" type="curve" smooth="yes"/>
      <point x="339.433754412" y="413.266777892"/>
      <point x="354.298320699" y="428.128178176"/>
    </contour>
    <contour>
      <point x="354.298320699" y="529.649120115" type="curve" smooth="yes"/>
      <point x="354.298320699" y="547.003400446"/>
      <point x="339.433754412" y="561.86480073"/>
      <point x="321.119612056" y="561.86480073" type="curve" smooth="yes"/>
      <point x="302.805469699" y="561.86480073"/>
      <point x="287.958701413" y="547.003400446"/>
      <point x="287.958701413" y="529.649120115" type="curve" smooth="yes"/>
      <point x="287.958701413" y="512.294839783"/>
      <point x="302.805469699" y="497.4334395"/>
      <point x="321.119612056" y="497.4334395" type="curve" smooth="yes"/>
      <point x="339.433754412" y="497.4334395"/>
      <point x="354.298320699" y="512.294839783"/>
    </contour>
  </outline>
</glyph>
<glyph name="Udieresis.alt" format="1">
  <advance width="642.168032108"/>
  <outline>
    <contour>
      <point x="540.777678225" y="234.634344481" type="curve" smooth="yes"/>
      <point x="540.777678225" y="559.300010681" type="line"/>
      <point x="520.824501767" y="559.300010681" type="line"/>
      <point x="520.824501767" y="235.577164499" type="line" smooth="yes"/>
      <point x="520.824501767" y="88.0817616821"/>
      <point x="448.095400415" y="16.5952303169"/>
      <point x="321.119612056" y="16.5952303169" type="curve" smooth="yes"/>
      <point x="194.143823697" y="16.5952303169"/>
      <point x="121.414722344" y="88.0817616821"/>
      <point x="121.414722344" y="235.577164499" type="curve" smooth="yes"/>
      <point x="121.414722344" y="559.300010681" type="line"/>
      <point x="101.390353883" y="559.300010681" type="line"/>
      <point x="101.390353883" y="234.634344481" type="line" smooth="yes"/>
      <point x="101.390353883" y="76.1447014542"/>
      <point x="185.126709471" y="-2.70861005173"/>
      <point x="321.084016054" y="-2.70861005173" type="curve" smooth="yes"/>
      <point x="457.041322637" y="-2.70861005173"/>
      <point x="540.777678225" y="76.1447014542"/>
    </contour>
    <contour>
      <point x="277.150461255" y="539.580690305" type="curve" smooth="yes"/>
      <point x="277.150461255" y="551.701520536"/>
      <point x="266.961915053" y="561.86480073"/>
      <point x="254.977388812" y="561.86480073" type="curve" smooth="yes"/>
      <point x="242.992862572" y="561.86480073"/>
      <point x="232.804316369" y="551.701520536"/>
      <point x="232.804316369" y="539.580690305" type="curve" smooth="yes"/>
      <point x="232.804316369" y="527.459860073"/>
      <point x="242.992862572" y="517.320549879"/>
      <point x="254.977388812" y="517.320549879" type="curve" smooth="yes"/>
      <point x="266.961915053" y="517.320549879"/>
      <point x="277.150461255" y="527.459860073"/>
    </contour>
    <contour>
      <point x="409.434907742" y="539.580690305" type="curve" smooth="yes"/>
      <point x="409.434907742" y="551.701520536"/>
      <point x="399.246361539" y="561.86480073"/>
      <point x="387.261835299" y="561.86480073" type="curve" smooth="yes"/>
      <point x="375.277309059" y="561.86480073"/>
      <point x="365.088762856" y="551.701520536"/>
      <point x="365.088762856" y="539.580690305" type="curve" smooth="yes"/>
      <point x="365.088762856" y="527.459860073"/>
      <point x="375.277309059" y="517.320549879"/>
      <point x="387.261835299" y="517.320549879" type="curve" smooth="yes"/>
      <point x="399.246361539" y="517.320549879"/>
      <point x="409.434907742" y="527.459860073"/>
    </contour>
  </outline>
</glyph>
<glyph name="Udieresis.ss01.alt.02" format="1">
  <advance width="647.093224203"/>
  <outline>
    <contour>
      <point x="536.347594081" y="238.26979455" type="curve" smooth="yes"/>
      <point x="536.347594081" y="319.600006104" type="line"/>
      <point x="520.824501767" y="319.600006104" type="line"/>
      <point x="520.824501767" y="239.164674567" type="line" smooth="yes"/>
      <point x="520.824501767" y="88.129701683"/>
      <point x="447.953016409" y="16.5952303169"/>
      <point x="321.066218053" y="16.5952303169" type="curve" smooth="yes"/>
      <point x="194.143823697" y="16.5952303169"/>
      <point x="121.414722344" y="87.2827616669"/>
      <point x="121.414722344" y="223.472314268" type="curve" smooth="yes"/>
      <point x="121.414722344" y="559.300010681" type="line"/>
      <point x="101.390353883" y="559.300010681" type="line"/>
      <point x="101.390353883" y="222.52949425" type="line" smooth="yes"/>
      <point x="101.390353883" y="75.9050014496"/>
      <point x="184.59276945" y="-2.70861005173"/>
      <point x="319.046953989" y="-2.70861005173" type="curve" smooth="yes"/>
      <point x="453.145178514" y="-2.70861005173"/>
      <point x="536.347594081" y="76.2166114555"/>
    </contour>
    <contour>
      <point x="354.298320699" y="445.458488507" type="curve" smooth="yes"/>
      <point x="354.298320699" y="462.812768839"/>
      <point x="339.433754412" y="477.674169122"/>
      <point x="321.119612056" y="477.674169122" type="curve" smooth="yes"/>
      <point x="302.805469699" y="477.674169122"/>
      <point x="287.958701413" y="462.812768839"/>
      <point x="287.958701413" y="445.458488507" type="curve" smooth="yes"/>
      <point x="287.958701413" y="428.104208176"/>
      <point x="302.805469699" y="413.242807892"/>
      <point x="321.119612056" y="413.242807892" type="curve" smooth="yes"/>
      <point x="339.433754412" y="413.242807892"/>
      <point x="354.298320699" y="428.104208176"/>
    </contour>
    <contour>
      <point x="540.848870228" y="0.0" type="line"/>
      <point x="540.848870228" y="559.300010681" type="line"/>
      <point x="520.824501767" y="559.300010681" type="line"/>
      <point x="520.824501767" y="187.173743575" type="line"/>
      <point x="520.949087772" y="173.30310331" type="line"/>
      <point x="520.949087772" y="0.0" type="line"/>
    </contour>
    <contour>
      <point x="354.298320699" y="529.649120115" type="curve" smooth="yes"/>
      <point x="354.298320699" y="547.003400446"/>
      <point x="339.433754412" y="561.86480073"/>
      <point x="321.119612056" y="561.86480073" type="curve" smooth="yes"/>
      <point x="302.805469699" y="561.86480073"/>
      <point x="287.958701413" y="547.003400446"/>
      <point x="287.958701413" y="529.649120115" type="curve" smooth="yes"/>
      <point x="287.958701413" y="512.294839783"/>
      <point x="302.805469699" y="497.4334395"/>
      <point x="321.119612056" y="497.4334395" type="curve" smooth="yes"/>
      <point x="339.433754412" y="497.4334395"/>
      <point x="354.298320699" y="512.294839783"/>
    </contour>
  </outline>
</glyph>
<glyph name="W.ss01" format="1">
  <advance width="901.866745024"/>
  <outline>
    <contour>
      <point x="450.933372512" y="559.300010681" type="move" name="top"/>
    </contour>
    <contour>
      <point x="452.436494556" y="149.508882855" type="curve"/>
      <point x="449.430250469" y="149.508882855" type="line"/>
      <point x="466.917594809" y="46.3260208847"/>
      <point x="529.281787987" y="-2.70861005173"/>
      <point x="620.698789711" y="-2.70861005173" type="curve" smooth="yes"/>
      <point x="730.297257804" y="-2.70861005173"/>
      <point x="800.476391141" y="67.3796712868"/>
      <point x="800.476391141" y="214.004164087" type="curve" smooth="yes"/>
      <point x="800.476391141" y="559.300010681" type="line"/>
      <point x="780.45202268" y="559.300010681" type="line"/>
      <point x="780.45202268" y="214.946984105" type="line" smooth="yes"/>
      <point x="780.45202268" y="77.7666714851"/>
      <point x="721.315739581" y="16.5952303169"/>
      <point x="620.698789711" y="16.5952303169" type="curve" smooth="yes"/>
      <point x="520.081839842" y="16.5952303169"/>
      <point x="460.945556743" y="77.7666714851"/>
      <point x="460.945556743" y="214.946984105" type="curve" smooth="yes"/>
      <point x="460.945556743" y="559.300010681" type="line"/>
      <point x="440.921188282" y="559.300010681" type="line"/>
      <point x="440.921188282" y="214.946984105" type="line" smooth="yes"/>
      <point x="440.921188282" y="77.7666714851"/>
      <point x="381.784905182" y="16.5952303169"/>
      <point x="281.167955313" y="16.5952303169" type="curve" smooth="yes"/>
      <point x="180.551005444" y="16.5952303169"/>
      <point x="121.414722344" y="77.7666714851"/>
      <point x="121.414722344" y="214.946984105" type="curve" smooth="yes"/>
      <point x="121.414722344" y="559.300010681" type="line"/>
      <point x="101.390353883" y="559.300010681" type="line"/>
      <point x="101.390353883" y="214.004164087" type="line" smooth="yes"/>
      <point x="101.390353883" y="67.3796712868"/>
      <point x="171.56948722" y="-2.70861005173"/>
      <point x="281.167955313" y="-2.70861005173" type="curve" smooth="yes"/>
      <point x="372.584957037" y="-2.70861005173"/>
      <point x="434.949150215" y="46.3260208847"/>
    </contour>
  </outline>
</glyph>
